SplineFontDB: 3.0
FontName: Coval-Light
FullName: Coval Light
FamilyName: Coval
Weight: Light
Copyright: Copyright \\(c\\) 2015 by Context Ltd. All rights reserved.
Version: 002.500
ItalicAngle: 0
UnderlinePosition: -75
UnderlineWidth: 50
Ascent: 800
Descent: 200
InvalidEm: 0
sfntRevision: 0x00010000
LayerCount: 2
Layer: 0 0 "Back" 1
Layer: 1 0 "Fore" 0
PreferredKerning: 4
XUID: [1021 196 -1413280356 26596]
StyleMap: 0x0000
FSType: 0
OS2Version: 0
OS2_WeightWidthSlopeOnly: 0
OS2_UseTypoMetrics: 0
CreationTime: 1426740055
ModificationTime: 1514914686
PfmFamily: 17
TTFWeight: 300
TTFWidth: 5
LineGap: 200
VLineGap: 0
Panose: 2 0 5 3 9 0 0 2 0 3
OS2TypoAscent: 800
OS2TypoAOffset: 0
OS2TypoDescent: -200
OS2TypoDOffset: 0
OS2TypoLinegap: 200
OS2WinAscent: 934
OS2WinAOffset: 0
OS2WinDescent: 339
OS2WinDOffset: 0
HheadAscent: 800
HheadAOffset: 0
HheadDescent: -200
HheadDOffset: 0
OS2SubXSize: 650
OS2SubYSize: 600
OS2SubXOff: 0
OS2SubYOff: 75
OS2SupXSize: 650
OS2SupYSize: 600
OS2SupXOff: 0
OS2SupYOff: 350
OS2StrikeYSize: 50
OS2StrikeYPos: 283
OS2CapHeight: 689
OS2XHeight: 472
OS2Vendor: 'CNTX'
OS2CodePages: 2000011f.00000000
OS2UnicodeRanges: e10002ff.5201e9eb.00000004.00000000
Lookup: 260 0 0 "'mark' Mark Positioning lookup 1" { "'mark' Mark Positioning lookup 1-1"  } ['mark' ('DFLT' <'dflt' > 'cyrl' <'BGR ' 'MKD ' 'RUS ' 'SRB ' 'dflt' > 'grek' <'dflt' > 'latn' <'AZE ' 'NLD ' 'TRK ' 'VIT ' 'dflt' > 'thai' <'dflt' > ) ]
Lookup: 258 0 0 "'kern' Horizontal Kerning lookup 0" { "'kern' Horizontal Kerning lookup 0 subtable"  } ['kern' ('cyrl' <'MKD ' 'SRB ' 'dflt' > 'grek' <'dflt' > 'latn' <'AZE ' 'NLD ' 'TRK ' 'VIT ' 'dflt' > ) ]
MarkAttachClasses: 1
DEI: 91125

StartChar: .notdef
Encoding: 256 -1 0
GlifName: _notdef
Width: 760
Flags: MW
HStem: 10 60<105 655 105 750> 705 60<105 105 105 655>
VStem: 10 60<112 112 112 663> 690 60<112 663 663 663>
LayerCount: 2
Fore
SplineSet
10 10 m 1
 10 765 l 1
 750 765 l 1
 750 10 l 1
 10 10 l 1
70 112 m 1
 346 388 l 1
 254 480 162 571 70 663 c 1
 70 112 l 1
105 70 m 1
 655 70 l 1
 563 162 472 254 380 346 c 1
 288 254 197 162 105 70 c 1
105 705 m 1
 380 429 l 1
 472 521 563 613 655 705 c 1
 105 705 l 1
414 388 m 1
 690 112 l 1
 690 663 l 1
 598 571 506 480 414 388 c 1
EndSplineSet
Validated: 1
EndChar

StartChar: exclam
Encoding: 33 33 2
GlifName: exclam
Width: 325
GlyphClass: 2
Flags: MW
HStem: 0 78<123 201 123 201> 675 20G<123 201 201 201>
VStem: 123 78<0 78 0 78>
LayerCount: 2
Fore
SplineSet
123 695 m 1
 201 695 l 1
 193 177 l 1
 131 177 l 1
 123 695 l 1
123 0 m 1
 123 78 l 1
 201 78 l 1
 201 0 l 1
 123 0 l 1
EndSplineSet
Validated: 1
EndChar

StartChar: quotedbl
Encoding: 34 34 3
GlifName: quotedbl
Width: 525
GlyphClass: 2
Flags: MW
HStem: 386 21G<149 200 149 149 324 375 324 324> 675 20G<142 207 207 207 317 382 382 382>
VStem: 149 58 324 58
LayerCount: 2
Fore
SplineSet
317 695 m 1
 382 695 l 1
 375 386 l 1
 324 386 l 1
 317 695 l 1
142 695 m 1
 207 695 l 1
 200 386 l 1
 149 386 l 1
 142 695 l 1
EndSplineSet
Validated: 1
EndChar

StartChar: numbersign
Encoding: 35 35 4
GlifName: numbersign
Width: 875
GlyphClass: 2
Flags: MW
HStem: -166 21G<191.5 211.5 428.5 448.5> 132 51<78.5 269 93 253 321 491 93 306 558 781> 345 51<78.5 331 93 316 93 368 383 553 621 782> 674 20G<425.5 445.5 662.5 682.5>
LayerCount: 2
Fore
SplineSet
79 183 m 1
 269 183 l 1
 316 345 l 1
 109 345 l 1
 129 396 l 1
 331 396 l 1
 418 694 l 1
 472 694 l 1
 383 396 l 1
 568 396 l 1
 656 694 l 1
 707 694 l 1
 621 396 l 1
 806 396 l 1
 786 345 l 1
 605 345 l 1
 558 183 l 1
 756 183 l 1
 736 132 l 1
 543 132 l 1
 459 -167 l 5
 404 -167 l 5
 491 132 l 1
 306 132 l 1
 220 -167 l 5
 167 -167 l 5
 253 132 l 1
 59 132 l 1
 79 183 l 1
321 183 m 1
 506 183 l 1
 553 345 l 1
 368 345 l 1
 321 183 l 1
EndSplineSet
EndChar

StartChar: dollar
Encoding: 36 36 5
GlifName: dollar
Width: 525
GlyphClass: 2
Flags: MW
HStem: -55 21G<236 287 236 236> 649 53<287 287> 730 20G<236 287 287 287>
VStem: 58 59<514 549.5 514 556> 236 51<-55 -7 -7 -7 47 319 403 648 648 648 702 750> 406 59<148 209 142.5 210>
CounterMasks: 1 1c
LayerCount: 2
Fore
SplineSet
46 61 m 1
 56 119 l 1
 117 74 157 54 236 46 c 1
 236 331 l 1
 70 366 58 482 58 516 c 0
 58 596 116 685 236 701 c 1
 236 750 l 1
 287 750 l 1
 287 702 l 1
 352 699 399 678 448 647 c 1
 438 592 l 1
 408 611 l 2
 377 630 342 645 287 649 c 1
 287 391 l 1
 456 355 465 226 465 192 c 0
 465 93 391 6 287 -6 c 1
 287 -55 l 1
 236 -55 l 1
 236 -7 l 1
 161 -3 98 25 46 61 c 1
117 525 m 0
 117 503 124 428 236 403 c 1
 236 648 l 1
 152 633 117 574 117 525 c 0
287 47 m 1
 354 59 406 113 406 183 c 0
 406 237 375 298 287 319 c 1
 287 47 l 1
EndSplineSet
Validated: 1
EndChar

StartChar: percent
Encoding: 37 37 6
GlifName: percent
Width: 875
GlyphClass: 2
Flags: HMW
HStem: -55 50<638.5 696 638.5 711> 297 50<635 693> 347 51<174.5 230 174.5 245> 699 51<175.5 226.5> 730 20G<165 240.5>
VStem: 58 61<503.5 590.5 503.5 605> 291 59<509.5 593.5> 524 62<105.5 177 105.5 201> 758 58<106.5 191>
LayerCount: 2
Back
SplineSet
186 -35 m 4
 195 -13 l 4
 651 736 l 5
 651 736 l 5
 671 749 l 4
 690 730 l 4xcf80
 676 700 l 6
 223 -44 l 6
 205 -55 l 4
 186 -35 l 4
EndSplineSet
Fore
SplineSet
586 146 m 4xc780
 586 65 607 -5 670 -5 c 4
 722 -5 758 67 758 146 c 4
 758 236 716 297 670 297 c 4
 600 297 586 208 586 146 c 4xc780
524 146 m 4
 524 256 590 347 670 347 c 4
 739 347 816 273 816 145 c 4
 816 35 751 -55 671 -55 c 4
 598 -55 524 24 524 146 c 4
119 549 m 0
 119 458 145 398 204 398 c 0
 256 398 291 470 291 549 c 0
 291 638 250 699 203 699 c 0xb780
 148 699 119 632 119 549 c 0
58 549 m 0
 58 661 125 750 205 750 c 0
 276 750 350 672 350 548 c 0
 350 437 285 347 205 347 c 0
 132 347 58 427 58 549 c 0
706 750 m 1x8f80
 216 -55 l 1
 169 -55 l 1
 659.0859375 750 l 1
 706 750 l 1x8f80
EndSplineSet
Validated: 1
EndChar

StartChar: ampersand
Encoding: 38 38 7
GlifName: ampersand
Width: 761
GlyphClass: 2
Flags: MW
HStem: -17 59 661 50<294 337>
VStem: 43 65<121.5 161.5> 177 53<525.5 579.5> 378 58<544.5 580.5>
LayerCount: 2
Fore
SplineSet
43 143 m 0
 43 265.566037736 139.869047619 335.603773585 201 375 c 1
 189.705882353 417.418604651 177 460.720930233 177 527 c 0
 177 632 231 711 312 711 c 0
 387 711 436 671.655172414 436 586 c 0
 436 543 408.333333333 481 270 370 c 1
 325.298191219 215.98223054 422.222004807 137.163111556 452 114 c 1
 478 134.063291139 591 224.348101266 646 431 c 1
 699 417 l 1
 641 195 508 94 493 79 c 1
 531.835880855 53.6073086716 557.53205488 37 615 37 c 0
 678 37 716 56 724 57 c 1
 724 0 l 1
 682 -13 647 -17 614 -17 c 0
 546 -17 493 9 444 45 c 1
 397 13 320 -17 237 -17 c 0
 122 -17 43 56 43 143 c 0
108 149 m 0
 108 94 154 36 236 36 c 0
 303 36 354 56 403 81 c 1
 326.691870067 146.375017732 271.996854713 200.64474215 223 327 c 1
 183.299914878 297.363676161 108 237.061974394 108 149 c 0
230 557 m 0
 230 501.974683544 240.482758621 452.189873418 249 419 c 1
 268.512605042 433.909638554 378 518.397590361 378 584 c 0
 378 608.864583333 364 661 310 661 c 0
 278 661 230 633 230 557 c 0
EndSplineSet
Validated: 1
EndChar

StartChar: quotesingle
Encoding: 39 39 8
GlifName: quotesingle
Width: 292
GlyphClass: 2
Flags: MW
HStem: 386 21G<120 171 120 120> 675 20G<113 178 178 178>
VStem: 120 58
LayerCount: 2
Fore
SplineSet
113 695 m 1
 178 695 l 1
 171 386 l 1
 120 386 l 1
 113 695 l 1
EndSplineSet
Validated: 1
EndChar

StartChar: parenleft
Encoding: 40 40 9
GlifName: parenleft
Width: 408
GlyphClass: 2
Flags: MW
HStem: -222 21G<299 349 299 299> 730 20G<299 349 349 349>
VStem: 91 64<168 360>
LayerCount: 2
Fore
SplineSet
91 264 m 0
 91 456 153 633 299 750 c 1
 349 750 l 1
 310 714 155 580 155 264 c 0
 155 -51 310 -188 349 -222 c 1
 299 -222 l 1
 153 -105 91 72 91 264 c 0
EndSplineSet
Validated: 1
EndChar

StartChar: parenright
Encoding: 41 41 10
GlifName: parenright
Width: 408
GlyphClass: 2
Flags: MW
HStem: -222 21G<58 58 58 83 83 108> 730 20G<58 108 108 108>
VStem: 252 64<168 360 168 390.5>
LayerCount: 2
Fore
SplineSet
58 -222 m 1
 97 -186 252 -52 252 264 c 0
 252 517 153 653 93 716 c 1
 93 716 l 1
 78 732 66 743 58 750 c 1
 108 750 l 1
 254 633 316 456 316 264 c 0
 316 72 254 -105 108 -222 c 1
 83 -222 l 1
 58 -222 l 1
EndSplineSet
Validated: 1
EndChar

StartChar: asterisk
Encoding: 42 42 11
GlifName: asterisk
Width: 525
GlyphClass: 2
Flags: MW
HStem: 320 21G<252 265> 729 20G<258.5 269>
VStem: 77 198<436 558 558 634> 248 27<558 558> 248 39
LayerCount: 2
Fore
SplineSet
77 441 m 0xe0
 77 464 105 469 236 535 c 1
 159 573 l 2
 78 613 77 614 77 628 c 0xe0
 77 640 89 655 104 655 c 0
 117 655 142 632 248 558 c 1
 242 638 l 2
 239 680 236 718 236 722 c 0
 236 746 255 749 262 749 c 0
 276 749 287 742 287 709 c 0xc8
 285 687 281 645 275 558 c 1xd0
 338 603 l 2
 405 651 409 655 419 655 c 0
 436 655 446 639 446 628 c 0
 446 623 445 620 442 616 c 0
 432 602 391 587 287 535 c 1xc8
 364 497 l 2
 445 457 446 456 446 441 c 0
 446 429 435 415 420 415 c 0
 408 415 380 437 275 511 c 1xe0
 279 457 287 354 287 348 c 0
 287 324 268 320 262 320 c 0
 242 320 236 333 236 360 c 0
 237 371 238 386 240 410 c 2
 248 511 l 1xc8
 126 425 116 415 104 415 c 0
 87 415 77 431 77 441 c 0xe0
EndSplineSet
Validated: 1
EndChar

StartChar: plus
Encoding: 43 43 12
GlifName: plus
Width: 642
GlyphClass: 2
Flags: HMW
HStem: 2 21G<315 336.5> 239 51<113.5 128 128 295 346 514 514 548 548 550> 506 20G<310.5 326>
VStem: 295 51<58 70 70 71 71 239 290 491 491 492>
LayerCount: 2
Back
SplineSet
58 526 m 5
 584 526 l 5
 584 0 l 5
 58 0 l 5
 58 526 l 5
EndSplineSet
Fore
SplineSet
58 290 m 1
 295 290 l 1
 295 526 l 1
 346 526 l 1
 346 290 l 1
 584 290 l 1
 584 239 l 1
 346 239 l 1
 346 0 l 1
 295 0 l 1
 295 239 l 1
 58 239 l 1
 58 290 l 1
EndSplineSet
Validated: 1
EndChar

StartChar: comma
Encoding: 44 44 13
GlifName: comma
Width: 292
GlyphClass: 2
Flags: MW
HStem: -111 21G<106 146 106 106> 0 21G<106 106 106 130> 58 20G<106 185 185 185>
VStem: 106 79<24 29 29 78 24 78>
LayerCount: 2
Fore
SplineSet
106 0 m 1
 106 78 l 1
 185 78 l 1
 185 29 l 2
 185 19 184 10 184 0 c 0
 171 -37 159 -74 146 -111 c 1
 106 -111 l 1
 130 0 l 1
 106 0 l 1
EndSplineSet
Validated: 1
EndChar

StartChar: hyphen
Encoding: 45 45 14
GlifName: hyphen
Width: 350
GlyphClass: 2
Flags: MW
HStem: 211 50<11 291 11 291>
LayerCount: 2
Fore
SplineSet
11 211 m 1
 11 261 l 1
 291 261 l 1
 291 211 l 1
 11 211 l 1
EndSplineSet
Validated: 1
EndChar

StartChar: period
Encoding: 46 46 15
GlifName: period
Width: 292
GlyphClass: 2
Flags: MW
HStem: 0 78<106 184 106 184>
VStem: 106 78<0 78 0 78>
LayerCount: 2
Fore
SplineSet
106 0 m 1
 106 78 l 1
 184 78 l 1
 184 0 l 1
 106 0 l 1
EndSplineSet
Validated: 1
EndChar

StartChar: slash
Encoding: 47 47 16
GlifName: slash
Width: 525
GlyphClass: 2
Flags: HMW
HStem: -222 21G<80 92.5> 729 20G<430.5 447.5>
LayerCount: 2
Back
SplineSet
59 -197 m 4
 59 -190 62 -183 64 -176 c 6
 411 718 l 6
 413 722 420 749 441 749 c 4
 454 749 466 740 466 725 c 4
 466 713 460 707 457 695 c 6
 115 -186 l 6
 106 -210 101 -222 84 -222 c 4
 76 -222 70 -220 66 -215 c 4
 62 -211 59 -204 59 -197 c 4
EndSplineSet
Fore
SplineSet
478 749 m 1
 101 -222 l 1
 46.111328125 -222 l 1
 423.077148438 749 l 1
 478 749 l 1
EndSplineSet
Validated: 1
EndChar

StartChar: zero
Encoding: 48 48 17
GlifName: zero
Width: 525
GlyphClass: 2
Flags: HMW
HStem: -17 51<262 262 262 328> 622 50<193 329.5>
VStem: 52 65<293 336 336 377 293 390.5> 408 64<338 357 357 376 376 377.5 206 416.5>
LayerCount: 2
Fore
SplineSet
52 328 m 0
 52 488 67 673 262 673 c 0
 457 673 472 488 472 328 c 0
 472 168 457 -17 262 -17 c 0
 67 -17 52 168 52 328 c 0
117 258 m 2
 117 188 132 34 262 34 c 0
 392 34 408 188 408 258 c 2
 408 398 l 2
 408 468 392 622 262 622 c 0
 132 622 117 468 117 398 c 2
 117 258 l 2
EndSplineSet
Validated: 1
EndChar

StartChar: one
Encoding: 49 49 18
GlifName: one
Width: 525
GlyphClass: 2
Flags: MW
HStem: 0 50<111 242 307 438 111 242> 556 51<105 146> 652 20G<291 307 307 307>
VStem: 242 65<50 585 585 585>
LayerCount: 2
Fore
SplineSet
105 556 m 1
 105 607 l 1
 217 607 265 647 291 672 c 1
 307 672 l 1
 307 50 l 1
 438 50 l 1
 438 0 l 1
 111 0 l 1
 111 50 l 1
 242 50 l 1
 242 585 l 1
 230 579 187 556 105 556 c 1
EndSplineSet
Validated: 1
EndChar

StartChar: two
Encoding: 50 50 19
GlifName: two
Width: 525
GlyphClass: 2
Flags: HMW
HStem: 0 56<109 472 109 472> 619 53<186.5 277.5>
VStem: 405 67<421.5 515>
LayerCount: 2
Fore
SplineSet
43 504 m 1
 71 591 130 672 261 672 c 0
 383 672 472 586 472 467 c 0
 472 375 411 315 322 242 c 1
 322 242 l 1
 258 189 290 218 109 56 c 1
 472 56 l 1
 472 0 l 1
 52 0 l 1
 52 53 l 1
 202 193 187 180 263 244 c 1
 263 244 l 1
 345 314 405 377 405 466 c 0
 405 564 327 619 247 619 c 0
 130 619 88 484 80 459 c 1
 43 504 l 1
EndSplineSet
Validated: 1
EndChar

StartChar: three
Encoding: 51 51 20
GlifName: three
Width: 525
GlyphClass: 2
Flags: HMW
HStem: -17 52<246.5 308 246.5 331> 622 50<245.5 302>
VStem: 385 66<499 554> 410 41 410 70<140 215.5 132.5 238.5>
LayerCount: 2
Back
SplineSet
246 -17 m 0
 216 -17 124 -13 47 81 c 1
 76 128 l 1
 136 42 216 35 247 35 c 1024
43 504 m 1
 70.6487804878 591 130.2 672 261 672 c 0
 382.513392857 672 472 586 472 467 c 0
 472 375 411 315 322 242 c 1
 322 242 l 1
 258 189 290 218 109 56 c 1
 472 56 l 1
 472 0 l 1
 52 0 l 1
 52 53 l 1
 202 193 187 180 263 244 c 1
 263 244 l 1
 345 314 405 377 405 466 c 0
 405 564 327.385964912 619 247 619 c 0
 129.883116883 619 87.5909090909 484 80 459 c 1
 43 504 l 1
EndSplineSet
Fore
SplineSet
48 82 m 0xc8
 76 128 l 1
 143 42 202 35 263 35 c 0
 353 35 410 98 410 182 c 0xd0
 410 295 326 329 243 329 c 2
 174 329 l 1
 174 379 l 1
 241 384 l 2
 290 388 385 422 385 514 c 0
 385 577 321 620 254 620 c 0
 149 620 101 512 98 506 c 1
 62 550 l 1
 121 670 222 672 254 672 c 0
 359 672 451 616 451 514 c 0xe0
 451 465 424 396 329 355 c 1
 433 326 480 250 480 181 c 0
 480 84 408 -17 256 -17 c 0
 123 -17 63 58 48 82 c 0xc8
EndSplineSet
Validated: 1
EndChar

StartChar: four
Encoding: 52 52 21
GlifName: four
Width: 525
GlyphClass: 2
Flags: MW
HStem: 0 21G<318 381 318 318> 181 53<94 318 381 495> 644 20G<305 381 381 381>
VStem: 321 60<234 607 607 607>
LayerCount: 2
Fore
SplineSet
29 181 m 1
 29 235 l 1
 305 664 l 1
 381 664 l 1
 381 234 l 1
 495 234 l 1
 495 181 l 1
 381 181 l 1
 381 0 l 1
 318 0 l 1
 318 181 l 1
 29 181 l 1
94 234 m 1
 321 234 l 1
 321 607 l 1
 304 563 196 394 135 298 c 2
 94 234 l 1
EndSplineSet
Validated: 1
EndChar

StartChar: five
Encoding: 53 53 22
GlifName: five
Width: 525
GlyphClass: 2
Flags: MW
HStem: -17 21G<231 310> 371 51<253 277 277 277> 602 53<152 437 152 152>
VStem: 91 61<372 602 372 655 372 655> 401 71<154 264.5 144 274>
LayerCount: 2
Fore
SplineSet
47 81 m 1
 76 128 l 1
 136 42 216 35 247 35 c 0
 339 35 401 85 401 205 c 0
 401 343 327 371 277 371 c 0
 199 371 163 325 147 297 c 1
 91 297 l 1
 91 655 l 1
 437 655 l 1
 437 602 l 1
 152 602 l 1
 152 372 l 1
 188 404 228 422 278 422 c 0
 383 422 472 325 472 204 c 0
 472 84 374 -17 246 -17 c 0
 216 -17 124 -13 47 81 c 1
EndSplineSet
Validated: 513
EndChar

StartChar: six
Encoding: 54 54 23
GlifName: six
Width: 525
GlyphClass: 2
Flags: MW
HStem: -17 52<222 322 201.5 336> 401 50<261 327> 622 50<249.5 345 249.5 345>
VStem: 54 67 404 66<178.5 268.5>
LayerCount: 2
Fore
SplineSet
54 319 m 0
 54 526 175 672 324 672 c 0
 366 672 393 667 437 653 c 1
 437 601 l 1
 393 616 368 622 322 622 c 0
 157.586955794 622 121 446.680549211 121 332 c 1
 146.847826087 394 206.565217391 451 285 451 c 0
 416.181818182 451 470 317 470 220 c 0
 470 115 408 -17 264 -17 c 0
 160 -17 54 43 54 319 c 0
125 243 m 0
 125 177 149 35 264 35 c 0
 380 35 404 133 404 224 c 0
 404 313 361.014925373 401 250 401 c 0
 175 401 125 325 125 243 c 0
EndSplineSet
Validated: 513
EndChar

StartChar: seven
Encoding: 55 55 24
GlifName: seven
Width: 525
GlyphClass: 2
Flags: MW
HStem: -8 21G<170 237 170 170> 600 55<43 480 43 437>
VStem: 170 67<-8 102>
LayerCount: 2
Fore
SplineSet
43 600 m 1
 43 655 l 1
 480 655 l 1
 480 602 l 1
 356 472 237 260 237 -8 c 1
 170 -8 l 1
 170 212 258 435 437 600 c 1
 43 600 l 1
EndSplineSet
Validated: 1
EndChar

StartChar: eight
Encoding: 56 56 25
GlifName: eight
Width: 525
GlyphClass: 2
Flags: MW
HStem: -17 52<218.5 307 218.5 323.5> 329 50<227.5 302> 622 50<203.5 318.5 202 321.5>
VStem: 43 75 58 60<471 525 471 545> 405 61<463.5 525> 405 75
LayerCount: 2
Fore
SplineSet
43 181 m 0xf2
 43 250 88 321 195 354 c 1
 141 368 58 415 58 501 c 0
 58 589 142 672 262 672 c 0
 375 672 466 595 466 502 c 0xec
 466 425 402 376 328 354 c 1
 400 336 480 275 480 181 c 0
 480 76 386 -17 261 -17 c 0
 147 -17 43 67 43 181 c 0xf2
109 181 m 0
 109 82 176 35 261 35 c 0
 353 35 414 87 414 182 c 0
 414 282 343 329 261 329 c 0
 194 329 109 294 109 181 c 0
118 501 m 0
 118 441 158 379 261 379 c 0
 349 379 405 425 405 501 c 0
 405 549 380 622 263 622 c 0
 144 622 118 549 118 501 c 0
EndSplineSet
Validated: 1
EndChar

StartChar: nine
Encoding: 57 57 26
GlifName: nine
Width: 525
GlyphClass: 2
Flags: MW
HStem: -17 52<188 286> 204 51<198.5 263.5> 622 50<210 305.5 210 319>
VStem: 54 66<403.5 473.5 385 506.5> 400 70<372.5 457.5>
LayerCount: 2
Fore
SplineSet
54 438 m 0
 54 575 155 672 265 672 c 0
 346 672 470 618 470 332 c 0
 470 131 356 -17 216 -17 c 0
 164 -17 128.714285714 -5.13043478261 86 22 c 1
 112 68 l 1
 126.584070796 57.275 157.575221239 35 215 35 c 0
 379.932193386 35 404 227.982396849 404 324 c 1
 375 262 308 204 219 204 c 0
 105.10431185 204 54 333.361348619 54 438 c 0
120 427 m 0
 120 343 142 255 255 255 c 0
 342 255 400 330 400 415 c 0
 400 500 373 622 265 622 c 0
 145 622 120 520 120 427 c 0
EndSplineSet
Validated: 513
EndChar

StartChar: colon
Encoding: 58 58 27
GlifName: colon
Width: 292
GlyphClass: 2
Flags: MW
HStem: 0 78<106 184 106 184> 394 78<106 184 106 184>
VStem: 106 78<0 78 0 78 394 472>
LayerCount: 2
Fore
SplineSet
106 0 m 1
 106 78 l 1
 184 78 l 1
 184 0 l 1
 106 0 l 1
106 394 m 1
 106 472 l 1
 184 472 l 1
 184 394 l 1
 106 394 l 1
EndSplineSet
Validated: 1
EndChar

StartChar: semicolon
Encoding: 59 59 28
GlifName: semicolon
Width: 292
GlyphClass: 2
Flags: MW
HStem: -111 21G<106 146 106 106> 0 21G<106 106 106 130> 394 78<106 184 106 184>
VStem: 106 78<0 5 0 78 0 78 394 472>
LayerCount: 2
Fore
SplineSet
106 394 m 1
 106 472 l 1
 184 472 l 1
 184 394 l 1
 106 394 l 1
106 0 m 1
 106 78 l 1
 185 78 l 1
 185 29 l 2
 185 19 184 10 184 0 c 0
 171 -37 159 -74 146 -111 c 1
 106 -111 l 1
 130 0 l 1
 106 0 l 1
EndSplineSet
Validated: 1
EndChar

StartChar: less
Encoding: 60 60 29
GlifName: less
Width: 632
GlyphClass: 2
Flags: HMW
LayerCount: 2
Fore
SplineSet
100 304 m 1
 532 605 l 1
 532 521 l 1
 180.5 270 l 1
 180.5 260 l 1
 532 20 l 1
 532 -76.5 l 1
 100 226 l 1
 100 304 l 1
EndSplineSet
Validated: 1
EndChar

StartChar: equal
Encoding: 61 61 30
GlifName: equal
Width: 642
GlyphClass: 2
Flags: MW
HStem: 142 50<76.5 552 92 549> 336 50<142 549>
LayerCount: 2
Fore
SplineSet
59 192 m 1
 582 192 l 1
 582 142 l 1
 59 142 l 1
 59 192 l 1
59 386 m 1
 582 386 l 1
 582 336 l 1
 59 336 l 1
 59 386 l 1
EndSplineSet
Validated: 1
EndChar

StartChar: greater
Encoding: 62 62 31
GlifName: greater
Width: 632
GlyphClass: 2
Flags: HMW
LayerCount: 2
Fore
SplineSet
532 304 m 1
 532 226 l 1
 100 -76.5 l 1
 100 20 l 1
 451.5 260 l 1
 451.5 270 l 1
 100 521 l 1
 100 605 l 1
 532 304 l 1
EndSplineSet
Validated: 1
EndChar

StartChar: question
Encoding: 63 63 32
GlifName: question
Width: 496
GlyphClass: 2
Flags: HMW
HStem: 0 78<194 272 194 272> 652 51<209 276.5>
VStem: 194 78<0 78 0 78> 372 65<527.5 583 512.5 596>
LayerCount: 2
Fore
SplineSet
49 593 m 1
 76 656 161 703 237 703 c 0
 401 703 437 613 437 553 c 0
 437 419.983287487 264 401 264 213 c 6
 264 177 l 1
 202 177 l 1
 202 213 l 0
 202 426 372 442.415086467 372 555 c 0
 372 621 311 652 242 652 c 0
 172 652 108 622 68 540 c 1
 49 593 l 1
194 0 m 1
 194 78 l 1
 272 78 l 1
 272 0 l 1
 194 0 l 1
EndSplineSet
Validated: 1
EndChar

StartChar: at
Encoding: 64 64 33
GlifName: at
Width: 800
GlyphClass: 2
Flags: MW
HStem: -8 50<323 458> 124 51<451 451 451 484.5 451 495.5> 520 50<417 472.5 397.5 486> 652 51<334 431 312.5 454.5>
VStem: 58 61<269.5 437 269.5 446.5> 261 61<299 397 299 408> 580 61<347 347 347 395.5>
LayerCount: 2
Fore
SplineSet
254 242 m 0
 254 170.057803468 288.821705426 115 352 115 c 0
 410.176802375 115 465.40215875 148.274543035 494.802734375 201 c 1
 526 407 l 1
 490.421487603 440.264150943 445.926174497 450 403 450 c 0
 324.457364341 450 254 369.376146789 254 242 c 0
403 653 m 0
 675.567975831 653 750 441.663827054 750 326 c 0
 750 122.105148509 677.906103286 55 584 55 c 1
 510.153846154 55 493.558139535 96.9047619048 494 135 c 1
 448.771832088 87.8940953354 399.357068611 64 352 64 c 0
 245.805263158 64 193 141.784753363 193 241 c 0
 193 391.31300115 284.736842105 500 403 500 c 0
 456.75 500 504.503759398 483.921568627 538 459 c 1
 541.4609375 484 l 1
 593 484 l 1
 545 143 l 1
 541.032258065 114 554.547945205 97.2080078125 586 97.2080078125 c 3
 634.668721109 97.2080078125 694 137.203482201 694 326 c 1
 694 433.607142857 617.826086957 602 402 602 c 0
 255.993031359 602 111 503.885245902 111 287 c 0
 111 137.081967213 197 -8 403 -8 c 0
 509.909090909 -8 539.977272727 3 599 32 c 1
 616 -7 l 1
 568.737068966 -33.9010989011 491.818965517 -58 401 -58 c 0
 192 -58 50 90.6901408451 50 287 c 0
 50 512.151685393 211.833810888 653 403 653 c 0
EndSplineSet
Validated: 33
EndChar

StartChar: A
Encoding: 65 65 34
GlifName: A_
Width: 676
GlyphClass: 2
Flags: HMW
HStem: 0 21G<30 30 30 95 573 573 573 646> 210 53<196 472 196 492 175 472> 683 20G<300 376 376 376>
AnchorPoint: "top_550" 335 790 basechar 0
AnchorPoint: "bottom_50" 331 -50 basechar 0
AnchorPoint: "bottom_0" 601 0 basechar 0
AnchorPoint: "top_550" 326 790 basechar 0
LayerCount: 2
Fore
SplineSet
30 0 m 5
 300 703 l 5
 376 703 l 5
 646 0 l 5
 573 0 l 5
 492 210 l 5
 175 210 l 5
 95 0 l 5
 30 0 l 5
196 263 m 5
 472 263 l 5
 334 630 l 4
 196 263 l 5
EndSplineSet
Validated: 1
EndChar

StartChar: B
Encoding: 66 66 35
GlifName: B_
Width: 649
GlyphClass: 2
Flags: W
HStem: 0 55<130 458.507> 336 55<130 433.082> 640 55<130 428.364>
VStem: 60 70<55 336 391 640> 490 70<447.345 583.578> 519 70<110.555 266.773>
AnchorPoint: "top_550" 330 790 basechar 0
AnchorPoint: "bottom_50" 320 -50 basechar 0
AnchorPoint: "bottom_0" 281 0 basechar 0
AnchorPoint: "top_550" 290 790 basechar 0
LayerCount: 2
Fore
SplineSet
60 0 m 5xf4
 60 695 l 5
 353 695 l 4
 481 695 560 624 560 520 c 4xf8
 560 470 521 379 461 368 c 5
 528 354 589 285 589 188 c 4
 589 113 532 -0 367 0 c 6
 60 0 l 5xf4
130 55 m 5
 367 55 l 6
 424 55 519 74 519 189 c 4xf4
 519 268 461 336 365 336 c 5
 130 336 l 5
 130 55 l 5
130 391 m 5
 361 391 l 6
 442 391 490 455 490 519 c 4xf8
 490 591 430 640 333 640 c 6
 130 640 l 5
 130 391 l 5
EndSplineSet
Validated: 1
EndChar

StartChar: C
Encoding: 67 67 36
GlifName: C_
Width: 651
GlyphClass: 2
Flags: W
HStem: -17 53<296.284 519.714> 658 53<295.469 511.986>
VStem: 60 70<224.935 468.801>
AnchorPoint: "top_550" 380 790 basechar 0
AnchorPoint: "bottom_0" 380 0 basechar 0
AnchorPoint: "top_550" 360 790 basechar 0
LayerCount: 2
Fore
SplineSet
60 347 m 0
 60 536 193 711 392 711 c 0
 479 711 538 693 585 677 c 1
 572 608 l 1
 516 637 473 658 391 658 c 0
 247 658 130 524 130 347 c 0
 130 185 235 36 392 36 c 0
 499 36 537 64 591 97 c 1
 591 39 l 1
 533 6 497 -17 392 -17 c 0
 193 -17 60 158 60 347 c 0
EndSplineSet
Validated: 1
EndChar

StartChar: D
Encoding: 68 68 37
GlifName: D_
Width: 709
GlyphClass: 2
Flags: W
HStem: 0 55<130 419.027> 640 55<130 413.858>
VStem: 60 70<55 640> 579 70<220.708 463.466>
AnchorPoint: "top_550" 340 790 basechar 0
AnchorPoint: "bottom_50" 282 -50 basechar 0
AnchorPoint: "bottom_0" 282 0 basechar 0
AnchorPoint: "top_550" 252 790 basechar 0
LayerCount: 2
Fore
SplineSet
60 0 m 1
 60 695 l 1
 308 695 l 2
 491 695 649 555 649 342 c 0
 649 140 498 -0 310 0 c 2
 60 0 l 1
130 55 m 1
 297 55 l 2
 520 55 579 222 579 342 c 0
 579 463 521 640 297 640 c 2
 130 640 l 1
 130 55 l 1
EndSplineSet
Validated: 1
EndChar

StartChar: E
Encoding: 69 69 38
GlifName: E_
Width: 603
GlyphClass: 2
Flags: W
HStem: 0 55<130 543> 333 55<130 499> 640 55<130 528>
VStem: 60 70<55 333 388 640>
AnchorPoint: "top_550" 330 790 basechar 0
AnchorPoint: "bottom_0" 290 0 basechar 0
AnchorPoint: "top_550" 290 790 basechar 0
LayerCount: 2
Fore
SplineSet
60 0 m 1
 60 695 l 1
 528 695 l 1
 528 640 l 1
 130 640 l 1
 130 388 l 1
 499 388 l 1
 499 333 l 1
 130 333 l 1
 130 55 l 1
 543 55 l 1
 543 0 l 1
 60 0 l 1
EndSplineSet
Validated: 1
EndChar

StartChar: F
Encoding: 70 70 39
GlifName: F_
Width: 574
GlyphClass: 2
Flags: W
HStem: 0 21G<60 130> 319 55<130 470> 640 55<130 514>
VStem: 60 70<0 319 374 640>
AnchorPoint: "top_550" 330 790 basechar 0
AnchorPoint: "top_550" 252 790 basechar 0
LayerCount: 2
Fore
SplineSet
60 0 m 1
 60 695 l 1
 514 695 l 1
 514 640 l 1
 130 640 l 1
 130 374 l 1
 470 374 l 1
 470 319 l 1
 130 319 l 1
 130 0 l 1
 60 0 l 1
EndSplineSet
Validated: 1
EndChar

StartChar: G
Encoding: 71 71 40
GlifName: G_
Width: 668
GlyphClass: 2
Flags: W
HStem: -17 53<296.426 528.542> 273 55<386 543> 658 53<296.062 511.184>
VStem: 60 70<223.207 469.079> 543 65<55.8516 273>
AnchorPoint: "top_550" 400 790 basechar 0
AnchorPoint: "top_550" 359 790 basechar 0
LayerCount: 2
Fore
SplineSet
60 347 m 0
 60 535 192 711 391 711 c 0
 470 711 523 698 599 663 c 1
 587 594 l 1
 533 631 480 658 393 658 c 0
 235 658 130 510 130 347 c 0
 130 171 248 36 389 36 c 0
 473 36 539 61 543 63 c 1
 543 273 l 1
 386 273 l 1
 386 328 l 1
 608 328 l 1
 608 32 l 1
 528 -4 455 -17 390 -17 c 0
 203 -17 60 147 60 347 c 0
EndSplineSet
Validated: 1
EndChar

StartChar: H
Encoding: 72 72 41
GlifName: H_
Width: 631
GlyphClass: 2
Flags: W
HStem: 0 21G<60 130 501 571> 334 55<130 501> 675 20G<60 130 501 571>
VStem: 60 70<0 334 389 695> 501 70<0 334 389 695>
AnchorPoint: "top_550" 380 790 basechar 0
AnchorPoint: "top_550" 292 790 basechar 0
LayerCount: 2
Fore
SplineSet
60 0 m 1
 60 695 l 1
 130 695 l 1
 130 389 l 1
 501 389 l 1
 501 695 l 1
 571 695 l 1
 571 0 l 1
 501 0 l 1
 501 334 l 1
 130 334 l 1
 130 0 l 1
 60 0 l 1
EndSplineSet
Validated: 1
EndChar

StartChar: I
Encoding: 73 73 42
GlifName: I_
Width: 190
GlyphClass: 2
Flags: W
HStem: 0 21G<60 130> 675 20G<60 130>
VStem: 60 70<0 695>
AnchorPoint: "top_550" 160 790 basechar 0
AnchorPoint: "top_550" 87 790 basechar 0
LayerCount: 2
Fore
SplineSet
60 0 m 1
 60 695 l 1
 130 695 l 1
 130 0 l 1
 60 0 l 1
EndSplineSet
Validated: 1
EndChar

StartChar: J
Encoding: 74 74 43
GlifName: J_
Width: 465
GlyphClass: 2
Flags: W
HStem: -17 53<105.12 285.436> 675 20G<335 405>
VStem: 335 70<83.5796 695>
AnchorPoint: "top_550" 340 790 basechar 0
AnchorPoint: "top_550" 357 790 basechar 0
LayerCount: 2
Fore
SplineSet
40 39 m 1
 63 84 l 1
 98 59 136 36 198 36 c 0
 280 36 335 76 335 157 c 2
 335 695 l 1
 405 695 l 1
 405 155 l 2
 405 18 307 -17 220 -17 c 0
 166 -17 105 -6 40 39 c 1
EndSplineSet
Validated: 1
EndChar

StartChar: K
Encoding: 75 75 44
GlifName: K_
Width: 664
GlyphClass: 2
Flags: W
HStem: 0 21G<60 130 533.92 624> 675 20G<60 130 503.638 609>
VStem: 60 70<0 224 308 695>
AnchorPoint: "top_550" 370 790 basechar 0
AnchorPoint: "bottom_50" 314 -50 basechar 0
AnchorPoint: "top_550" 294 790 basechar 0
LayerCount: 2
Fore
SplineSet
60 0 m 1
 60 695 l 1
 130 695 l 1
 130 308 l 1
 524 695 l 1
 609 695 l 1
 329 420 l 1
 624 0 l 1
 548 0 l 1
 284 375 l 1
 130 224 l 1
 130 0 l 1
 60 0 l 1
EndSplineSet
Validated: 1
EndChar

StartChar: L
Encoding: 76 76 45
GlifName: L_
Width: 545
GlyphClass: 2
Flags: W
HStem: 0 55<130 485> 675 20G<60 130>
VStem: 60 70<55 695>
AnchorPoint: "top_550" 160 790 basechar 0
AnchorPoint: "bottom_50" 262 -50 basechar 0
AnchorPoint: "top_550" 92 790 basechar 0
LayerCount: 2
Fore
SplineSet
60 0 m 1
 60 695 l 1
 130 695 l 1
 130 55 l 1
 485 55 l 1
 485 0 l 1
 60 0 l 1
EndSplineSet
Validated: 1
EndChar

StartChar: M
Encoding: 77 77 46
GlifName: M_
Width: 803
GlyphClass: 2
Flags: W
HStem: 0 21G<60 120 673 743> 675 20G<60 167.182 634.886 743>
VStem: 60 60<0 630> 673 70<0 630>
LayerCount: 2
Fore
SplineSet
60 0 m 1
 60 695 l 1
 159 695 l 1
 402 101 l 1
 643 695 l 1
 743 695 l 1
 743 0 l 1
 673 0 l 1
 673 630 l 1
 426 17 l 1
 366 17 l 1
 120 630 l 1
 120 0 l 1
 60 0 l 1
EndSplineSet
Validated: 1
EndChar

StartChar: N
Encoding: 78 78 47
GlifName: N_
Width: 622
GlyphClass: 2
Flags: W
HStem: 0 21G<60 120 456.105 562> 675 20G<60 175.767 502 562>
VStem: 60 60<0 637> 502 60<69 695>
AnchorPoint: "top_550" 420 790 basechar 0
AnchorPoint: "bottom_50" 297 -50 basechar 0
AnchorPoint: "top_550" 317 790 basechar 0
LayerCount: 2
Fore
SplineSet
60 0 m 1
 60 695 l 1
 165 695 l 1
 502 69 l 1
 502 695 l 1
 562 695 l 1
 562 0 l 1
 467 0 l 1
 120 637 l 1
 120 0 l 1
 60 0 l 1
EndSplineSet
Validated: 1
EndChar

StartChar: O
Encoding: 79 79 48
GlifName: O_
Width: 786
GlyphClass: 2
Flags: W
HStem: -17 53<353.5 466.5 353.5 481> 659 52<318 391 391 391 391 391>
VStem: 58 70<306 444 306 451.5> 654 70<263 444>
LayerCount: 2
Fore
SplineSet
60 347 m 4
 60 556 213 711 393 711 c 4
 573 711 726 556 726 347 c 4
 726 138 573 -17 393 -17 c 4
 213 -17 60 138 60 347 c 4
130 347 m 4
 130 187 236 36 393 36 c 4
 544 36 656 179 656 347 c 4
 656 540 538 658 393 658 c 4
 247 658 130 540 130 347 c 4
EndSplineSet
Validated: 1
EndChar

StartChar: P
Encoding: 80 80 49
GlifName: P_
Width: 621
GlyphClass: 2
Flags: W
HStem: 0 21G<60 130> 295 55<130 419.809> 640 55<129 426.379>
VStem: 60 70<0 295 350 640> 491 70<416.895 578.073>
LayerCount: 2
Back
SplineSet
60 0 m 5xf4
 60 695 l 5
 353 695 l 4
 481 695 560 624 560 520 c 4xf8
 560 470 521 379 461 368 c 5
 528 354 589 285 589 188 c 4
 589 113 532 -0 367 0 c 6
 60 0 l 5xf4
130 55 m 5
 367 55 l 6
 424 55 519 74 519 189 c 4xf4
 519 268 461 336 365 336 c 5
 130 336 l 5
 130 55 l 5
130 391 m 5
 361 391 l 6
 442 391 490 455 490 519 c 4xf8
 490 591 430 640 333 640 c 6
 130 640 l 5
 130 391 l 5
EndSplineSet
Fore
SplineSet
60 0 m 1
 60 695 l 1
 340 695 l 1
 488 695 561 618 561 494 c 4
 561 376 500 295 340 295 c 1
 130 295 l 1
 130 0 l 1
 60 0 l 1
129 350 m 1
 340 350 l 1
 421 350 491 401 491 494 c 0
 491 581 442 640 340 640 c 1
 129 640 l 1
 129 350 l 1
EndSplineSet
Validated: 1
EndChar

StartChar: Q
Encoding: 81 81 50
GlifName: Q_
Width: 789
GlyphClass: 2
Flags: W
HStem: -17 53<296.727 478.151> 658 53<295.654 492.028>
VStem: 60 70<220.122 471.718> 659 70<219.862 472.378>
AnchorPoint: "top_550" 390 790 basechar 0
AnchorPoint: "top_550" 383 790 basechar 0
LayerCount: 2
Fore
SplineSet
60 346 m 0
 60 544 206 711 394 711 c 0
 573 711 729 554 729 346 c 0
 729 210 659 96 569 37 c 1
 698 -111 l 1
 616 -111 l 1
 516 8 l 1
 475 -8 438 -17 395 -17 c 0
 217 -17 60 137 60 346 c 0
130 347 m 0
 130 167 244 36 394 36 c 0
 428 36 455 43 479 50 c 1
 358 195 l 1
 431 195 l 1
 533 78 l 1
 617 137 659 236 659 346 c 0
 659 526 544 658 394 658 c 0
 235 658 130 515 130 347 c 0
EndSplineSet
Validated: 1
EndChar

StartChar: R
Encoding: 82 82 51
GlifName: R_
Width: 624
GlyphClass: 2
Flags: W
HStem: 0 21G<60 130 482.931 564> 318 55<130 318> 640 55<130 420.923>
VStem: 60 70<0 318 373 640> 491 70<435.793 577.782>
AnchorPoint: "top_550" 310 790 basechar 0
AnchorPoint: "bottom_50" 280 -50 basechar 0
AnchorPoint: "top_550" 273 790 basechar 0
LayerCount: 2
Back
SplineSet
129 350 m 1
 340 350 l 1
 421 350 491 401 491 494 c 0
 491 581 442 640 340 640 c 1
 129 640 l 1
 129 350 l 1
60 0 m 1
 60 695 l 1
 340 695 l 1
 488 695 561 618 561 494 c 0
 561 416 500 295 340 295 c 1
 130 295 l 1
 130 0 l 1
 60 0 l 1
EndSplineSet
Fore
SplineSet
60 0 m 1
 60 695 l 1
 340 695 l 17
 503 695 561 594 561 507 c 0
 561 409 479 344 381 326 c 1
 564 0 l 1
 494 0 l 1
 318 318 l 1
 130 318 l 1
 130 0 l 1
 60 0 l 1
130 373 m 1
 340 373 l 17
 400 373 491 409 491 507 c 0
 491 586 425 640 340 640 c 9
 130 640 l 1
 130 373 l 1
EndSplineSet
Validated: 1
EndChar

StartChar: S
Encoding: 83 83 52
GlifName: S_
Width: 598
GlyphClass: 2
Flags: W
HStem: -17 57<180.454 390.557> 656 55<213.238 419.599>
VStem: 71 70<465.735 591.177> 468 70<112.808 247.74>
LayerCount: 2
Fore
SplineSet
60 53 m 1
 71 122 l 1
 123 84 196 40 302 40 c 0
 402 40 468 103.142857143 468 170 c 0
 468 251.523809524 438.587981447 291.751017565 316 322 c 2
 239 341 l 2
 171.390221712 354.17073603 71 396.446693428 71 522 c 0
 71 612 157 711 308 711 c 0
 385 711 436 696 500 663 c 1
 488 594 l 1
 449 620 403 656 308 656 c 0
 206 656 141 594 141 530 c 0
 141 452.591747158 194.681285275 421.129407796 257 408.994140625 c 2
 334 390 l 2
 470.422127294 356.347778309 538 299.764705882 538 177 c 0
 538 81.9019607843 449 -17 301 -17 c 0
 200 -17 119 17 60 53 c 1
EndSplineSet
Validated: 1
EndChar

StartChar: T
Encoding: 84 84 53
GlifName: T_
Width: 729
GlyphClass: 2
Flags: W
HStem: 0 21G<330 400> 637 55<40 330 400 689>
VStem: 330 70<0 637>
AnchorPoint: "top_550" 370 790 basechar 0
AnchorPoint: "bottom_50" 363 -50 basechar 0
AnchorPoint: "top_550" 367 790 basechar 0
LayerCount: 2
Fore
SplineSet
40 637 m 1
 40 692 l 1
 689 692 l 1
 689 637 l 1
 400 637 l 1
 400 0 l 1
 330 0 l 1
 330 637 l 1
 40 637 l 1
EndSplineSet
Validated: 1
EndChar

StartChar: U
Encoding: 85 85 54
GlifName: U_
Width: 620
GlyphClass: 2
Flags: W
HStem: -17 53<219.897 398.071> 675 20G<60 130 490 560>
VStem: 60 70<138.094 695> 490 70<135.096 695>
AnchorPoint: "top_550" 380 790 basechar 0
AnchorPoint: "top_550" 302 790 basechar 0
LayerCount: 2
Fore
SplineSet
60 247 m 2
 60 695 l 1
 130 695 l 1
 130 237 l 2
 130 77 234 36 309 36 c 0
 374 36 490 66 490 240 c 2
 490 695 l 1
 560 695 l 1
 560 242 l 2
 560 70 426 -17 309 -17 c 0
 164 -17 60 98 60 247 c 2
EndSplineSet
Validated: 1
EndChar

StartChar: V
Encoding: 86 86 55
GlifName: V_
Width: 705
GlyphClass: 2
Flags: W
HStem: -5 21G<305.886 400.086> 675 20G<30 112 600.968 675>
AnchorPoint: "top_550" 356 790 basechar 0
LayerCount: 2
Fore
SplineSet
30 695 m 1
 104 695 l 1
 356 65 l 1
 609 695 l 1
 675 695 l 1
 392 -5 l 1
 314 -5 l 1
 30 695 l 1
EndSplineSet
Validated: 1
EndChar

StartChar: W
Encoding: 87 87 56
GlifName: W_
Width: 997
GlyphClass: 2
Flags: HMW
HStem: -5 21G<236 306 236 236 677 749 677 677> 675 20G<24 92 92 92 459 529 529 529 900 961 961 961>
AnchorPoint: "top_550" 486 790 basechar 0
LayerCount: 2
Fore
SplineSet
30 695 m 1
 98 695 l 1
 282 65 l 1
 465 695 l 1
 535 695 l 1
 721 65 l 1
 906 695 l 1
 967 695 l 1
 755 -5 l 1
 683 -5 l 1
 497 625 l 1
 312 -5 l 1
 242 -5 l 1
 30 695 l 1
EndSplineSet
Validated: 1
EndChar

StartChar: X
Encoding: 88 88 57
GlifName: X_
Width: 705
GlyphClass: 2
Flags: W
HStem: 0 21G<30 125.717 574.591 675> 675 20G<45 145.636 536.018 631>
LayerCount: 2
Fore
SplineSet
30 0 m 1
 309 367 l 1
 45 695 l 1
 130 695 l 1
 345 420 l 1
 551 695 l 1
 631 695 l 1
 381 366 l 1
 675 0 l 1
 590 0 l 1
 345 318 l 1
 111 0 l 1
 30 0 l 1
EndSplineSet
Validated: 1
EndChar

StartChar: Y
Encoding: 89 89 58
GlifName: Y_
Width: 730
GlyphClass: 2
Flags: W
HStem: 0 21G<330 400> 675 20G<30 129.391 609.552 700>
VStem: 330 70<0 278>
AnchorPoint: "top_550" 389 790 basechar 0
LayerCount: 2
Fore
SplineSet
30 695 m 1
 115 695 l 1
 369 342 l 1
 624 695 l 1
 700 695 l 1
 400 278 l 1
 400 0 l 1
 330 0 l 1
 330 278 l 1
 30 695 l 1
EndSplineSet
Validated: 1
EndChar

StartChar: Z
Encoding: 90 90 59
GlifName: Z_
Width: 641
GlyphClass: 2
Flags: W
HStem: 0 55<154 591> 640 55<75 491>
AnchorPoint: "top_550" 340 790 basechar 0
AnchorPoint: "top_550" 342 790 basechar 0
LayerCount: 2
Fore
SplineSet
60 0 m 1
 60 36 l 1
 491 640 l 1
 75 640 l 1
 75 695 l 1
 585 695 l 1
 585 660 l 1
 154 55 l 1
 591 55 l 1
 591 0 l 1
 60 0 l 1
EndSplineSet
Validated: 1
EndChar

StartChar: bracketleft
Encoding: 91 91 60
GlifName: bracketleft
Width: 294
GlyphClass: 2
Flags: MW
HStem: -222 50<176 270 176 270> 700 50<176 270 176 176>
VStem: 113 63<-172 700 -172 750 -172 750> 113 157<-222 -172 700 750>
LayerCount: 2
Fore
SplineSet
113 -222 m 1xd0
 113 750 l 1
 270 750 l 1
 270 700 l 1xd0
 176 700 l 1
 176 -172 l 1xe0
 270 -172 l 1
 270 -222 l 1
 113 -222 l 1xd0
EndSplineSet
Validated: 1
EndChar

StartChar: backslash
Encoding: 92 92 61
GlifName: backslash
Width: 525
GlyphClass: 2
Flags: MW
HStem: -222 21G<439 441.5> 729 20G<80 92.5>
LayerCount: 2
Fore
SplineSet
47.2744140625 749 m 1
 101 749 l 1
 478 -222 l 1
 424.126953125 -222 l 1
 47.2744140625 749 l 1
EndSplineSet
EndChar

StartChar: bracketright
Encoding: 93 93 62
GlifName: bracketright
Width: 294
GlyphClass: 2
Flags: MW
HStem: -222 50<23 117 23 180 23 117> 700 50<23 117 23 180>
VStem: 23 157<-222 -172 -172 -172 700 750 -222 750> 117 63<-172 700 700 700>
LayerCount: 2
Fore
SplineSet
23 -172 m 1xe0
 117 -172 l 1
 117 700 l 1xd0
 23 700 l 1
 23 750 l 1
 180 750 l 1
 180 -222 l 1
 23 -222 l 1
 23 -172 l 1xe0
EndSplineSet
Validated: 1
EndChar

StartChar: asciicircum
Encoding: 94 94 63
GlifName: asciicircum
Width: 642
GlyphClass: 2
Flags: MW
HStem: 472 21G<138 138 138 188 453 453 453 503> 600 20G<295 346 346 346>
LayerCount: 2
Fore
SplineSet
138 472 m 1
 295 620 l 1
 346 620 l 1
 503 472 l 1
 453 472 l 1
 320 591 l 1
 276 551 232 512 188 472 c 1
 138 472 l 1
EndSplineSet
Validated: 1
EndChar

StartChar: underscore
Encoding: 95 95 64
GlifName: underscore
Width: 817
GlyphClass: 2
Flags: HMW
HStem: -264 40<115 116 116 693 693 700>
LayerCount: 2
Fore
SplineSet
88 -224 m 1
 728 -224 l 1
 728 -264 l 1
 88 -264 l 1
 88 -224 l 1
EndSplineSet
Validated: 1
EndChar

StartChar: grave
Encoding: 96 96 65
GlifName: grave
Width: 525
GlyphClass: 2
Flags: MW
HStem: 538 21G<269 278 278 316> 647 20G<101 166 166 166>
LayerCount: 2
Fore
SplineSet
123 708 m 5
 196 708 l 5
 316 550 l 5
 266 550 l 5
 123 708 l 5
EndSplineSet
Validated: 1
EndChar

StartChar: a
Encoding: 97 97 66
GlifName: a
Width: 490
GlyphClass: 2
Flags: HMW
HStem: -8 21G<121.5 201.5> 0 42 234 31<346 346> 438 47<215 257>
VStem: 55 62<98 146.5> 346 65<145 234 234 234 265 301 0 307 0 364>
LayerCount: 2
Fore
SplineSet
55 115 m 0xbc
 55 182.2 107 275 346 275 c 1
 346 339 l 2
 346 423 269 438 245 438 c 0
 167.814062622 438 127.931544673 403.916786381 96 367 c 1
 91 432 l 1
 139.234939759 466.511627907 185.578313253 485 248 485 c 0
 361.300613497 485 410 413 410 339 c 2
 410 0 l 1
 346 0 l 1x7c
 346 69 l 1
 305.726027397 15 234.383561644 -8 178 -8 c 0
 79.6 -8 55 77 55 115 c 0xbc
117 117 m 0
 117 69 157.106796117 42 198 42 c 0
 249.682539683 42 346 62 346 145 c 2
 346 244 l 1
 212 244 117 192.982905983 117 117 c 0
EndSplineSet
EndChar

StartChar: b
Encoding: 98 98 67
GlifName: b
Width: 517
GlyphClass: 2
Flags: W
HStem: -8 50<198.464 323.308> 0 21G<80 144> 430 50<208.251 331.191> 675 20G<80 144>
VStem: 80 64<0 66 79.5015 391.984 405 695> 406 65<130.071 347.043>
LayerCount: 2
Fore
SplineSet
80 0 m 1x7c
 80 695 l 1
 144 695 l 1
 144 405 l 1
 204 476 269 480 294 480 c 0
 394 480 471 372 471 238 c 0
 471 97 381 -8 275 -8 c 0xbc
 195.790697674 -8 155.170542636 50 144 66 c 1
 144 0 l 1
 80 0 l 1x7c
144 131 m 2
 144 90 186.857142857 42 244 42 c 0
 308 42 406 81 406 236 c 0
 406 402 307 430 256 430 c 0
 187.781818182 430 149.090909091 378 144 362 c 1
 144 131 l 2
EndSplineSet
EndChar

StartChar: c
Encoding: 99 99 68
GlifName: c
Width: 467
GlyphClass: 2
Flags: W
HStem: -8 50<192.673 365.976> 435 50<190.718 379.605>
VStem: 46 65<134.4 343.086>
AnchorPoint: "top_550" 250 550 basechar 0
AnchorPoint: "top_550" 240 550 basechar 0
LayerCount: 2
Fore
SplineSet
46 237 m 4
 46 366 135 485 267 485 c 4
 340 485 372 474 431 442 c 5
 421 387 l 5
 379 419 343 435 267 435 c 4
 173 435 111 358 111 238 c 4
 111 122 174 42 265 42 c 4
 355 42 413 88 432 111 c 5
 432 55 l 5
 387 19 341 -8 264 -8 c 4
 141 -8 46 101 46 237 c 4
EndSplineSet
Validated: 1
EndChar

StartChar: d
Encoding: 100 100 69
GlifName: d
Width: 517
GlyphClass: 2
Flags: W
HStem: -8 50<185.54 308.483> 0 21G<373 437> 430 50<190.728 315.966> 675 20G<373 437>
VStem: 46 65<124.203 341.428> 373 64<0 73 86.4263 396.739 410 695>
AnchorPoint: "top_550" 410 790 basechar 0
AnchorPoint: "top_550" 220 550 basechar 0
LayerCount: 2
Fore
SplineSet
111 236 m 0xbc
 111 74 206 42 260 42 c 0
 331.261261261 42 373 105 373 134 c 2
 373 352 l 2
 373 387 328.111111111 430 272 430 c 0
 208 430 111 393 111 236 c 0xbc
46 236 m 0
 46 369 129 480 235 480 c 0
 295.882352941 480 338.5 451 373 410 c 1
 373 695 l 1
 437 695 l 1
 437 0 l 1
 373 0 l 1x7c
 373 73 l 1
 338.524475524 23 285.797202797 -8 228 -8 c 0
 135 -8 46 89 46 236 c 0
EndSplineSet
EndChar

StartChar: e
Encoding: 101 101 70
GlifName: e
Width: 467
GlyphClass: 2
Flags: HW
HStem: -8 50<193.155 358.612> 250 40<112 374> 434 50<184.314 317.34>
VStem: 42 65<141.766 250 290 341.967> 374 59<290 370.094>
LayerCount: 2
Fore
SplineSet
42 240 m 0
 42 366 127 484 248 484 c 0
 319 484 433 446.461538462 433 240 c 1
 107 240 l 1
 107 124.098868843 175.237804515 42 264 42 c 0
 339 42 389 77 426 111 c 1
 426 56 l 1
 384 21 334 -8 264 -8 c 0
 142 -8 42 99 42 240 c 0
112 290 m 1
 374 290 l 1
 374 372 324 434 248 434 c 0
 181 434 127 371 112 290 c 1
EndSplineSet
EndChar

StartChar: f
Encoding: 102 102 71
GlifName: f
Width: 333
GlyphClass: 2
Flags: W
HStem: 0 21G<114 178> 422 50<29 114 178 300> 645 50<201.911 341.714>
VStem: 114 64<0 422 472 619.927>
AnchorPoint: "top_550" 230 790 basechar 0
AnchorPoint: "top_550" 240 790 basechar 0
LayerCount: 2
Fore
SplineSet
29 422 m 1
 29 472 l 1
 114 472 l 1
 114 535 l 2
 114 568 115.962962963 613 167 657 c 0
 195 680 232 695 281 695 c 0
 293 695 313 694 343 687 c 1
 343 631 l 1
 318 641 292 645 278 645 c 0
 203 645 178 619 178 536 c 2
 178 472 l 1
 300 472 l 1
 300 422 l 1
 178 422 l 1
 178 0 l 1
 114 0 l 1
 114 422 l 1
 29 422 l 1
EndSplineSet
EndChar

StartChar: g
Encoding: 103 103 72
GlifName: g
Width: 517
GlyphClass: 2
Flags: HW
HStem: -184 50<133.673 318.853> -8 50<192.508 322.812> 430 50<188.053 311.49>
VStem: 47 65<135.584 346.181> 372 65<-76.619 65 75.1381 390.349 408 480>
LayerCount: 2
Fore
SplineSet
47 237 m 0
 47 365 120.454545455 480 249 480 c 0
 318.56097561 480 355.927536232 444.861111111 373 425 c 1
 373 472 l 1
 437 472 l 1
 437 9 l 2
 437 -112 354 -184 257 -184 c 0
 181 -184 132 -168 72 -139 c 1
 72 -85 l 1
 131 -114 179 -134 255 -134 c 0
 302.401709402 -134 373 -103 373 12 c 0
 373 55 l 1
 343.55 15.301369863 306.5 -8 240 -8 c 0
 135 -8 47 62 47 237 c 0
112 237 m 0
 112 97 176 42 260 42 c 0
 347.776785714 42 373 93 373 140 c 2
 373 371 l 1
 356.834951456 401.746478873 301.873786408 430 262 430 c 0
 182.700636943 430 112 376 112 237 c 0
EndSplineSet
EndChar

StartChar: h
Encoding: 104 104 73
GlifName: h
Width: 517
GlyphClass: 2
Flags: W
HStem: 0 21G<80 144 373 437> 430 50<214.274 339.432> 675 20G<80 144>
VStem: 80 64<0 370.26 378 695> 373 64<0 396.536>
AnchorPoint: "top_550" 330 550 basechar 0
AnchorPoint: "top_550" 262 550 basechar 0
LayerCount: 2
Fore
SplineSet
80 0 m 1
 80 695 l 1
 144 695 l 1
 144 378 l 1
 159.100671141 413 203.395973154 480 294 480 c 0
 434.020833333 480 437 374 437 315 c 2
 437 0 l 1
 373 0 l 1
 373 311 l 2
 373 382 352 430 261 430 c 0
 157.112068966 430 144 318 144 262 c 2
 144 0 l 1
 80 0 l 1
EndSplineSet
EndChar

StartChar: i
Encoding: 105 105 74
GlifName: i
Width: 224
GlyphClass: 2
Flags: W
HStem: 0 21G<80 144> 452 20G<80 144> 631 64<80 144>
VStem: 80 64<0 472 631 695>
LayerCount: 2
Fore
SplineSet
80 0 m 1
 80 472 l 1
 144 472 l 5
 144 0 l 5
 80 0 l 1
80 631 m 1
 80 695 l 1
 144 695 l 5
 144 631 l 5
 80 631 l 1
EndSplineSet
EndChar

StartChar: j
Encoding: 106 106 75
GlifName: j
Width: 244
GlyphClass: 2
Flags: W
HStem: -175 53<-54.1984 71.2156> 452 20G<90 154> 631 64<90 153>
VStem: 90 64<-102.429 472 631 695>
LayerCount: 2
Fore
SplineSet
-76 -146 m 5
 -62 -95 l 5
 -38.976744186 -113 -21.3255813954 -122 4 -122 c 4
 56 -122 90 -98 90 -55 c 6
 90 472 l 5
 154 472 l 5
 154 -45 l 6
 154 -65 145.0703125 -175 27 -175 c 4
 -3.9837398374 -175 -39.1544715447 -167 -76 -146 c 5
90 631 m 5
 90 695 l 5
 153 695 l 5
 153 631 l 5
 90 631 l 5
EndSplineSet
EndChar

StartChar: k
Encoding: 107 107 76
GlifName: k
Width: 487
GlyphClass: 2
Flags: W
HStem: 0 21G<80 144 388.353 471> 452 20G<349 445> 675 20G<80 144>
VStem: 80 64<0 171 247 695>
AnchorPoint: "top_550" 329 550 basechar 0
AnchorPoint: "bottom_50" 272 -50 basechar 0
AnchorPoint: "top_550" 262 550 basechar 0
LayerCount: 2
Fore
SplineSet
80 0 m 1
 80 695 l 1
 144 695 l 1
 144 247 l 1
 369 472 l 1
 445 472 l 1
 269 296 l 1
 471 0 l 1
 402 0 l 1
 228 255 l 1
 144 171 l 1
 144 0 l 1
 80 0 l 1
EndSplineSet
EndChar

StartChar: l
Encoding: 108 108 77
GlifName: l
Width: 224
GlyphClass: 2
Flags: W
HStem: 0 21G<80 144> 675 20G<80 144>
VStem: 80 64<0 695>
AnchorPoint: "top_550" 120 790 basechar 0
AnchorPoint: "bottom_50" 110 -50 basechar 0
AnchorPoint: "top_550" 110 790 basechar 0
LayerCount: 2
Fore
SplineSet
80 0 m 1
 80 695 l 1
 144 695 l 5
 144 0 l 5
 80 0 l 1
EndSplineSet
EndChar

StartChar: m
Encoding: 109 109 78
GlifName: m
Width: 805
GlyphClass: 2
Flags: HW
HStem: 0 21G<80 144 370 434 661 725> 430 50<215.574 332.873 502.144 624.263> 452 20G<80 144>
VStem: 80 64<0 371.165 375 472> 370 64<0 371.165 373 393.938> 661 64<0 392.209>
LayerCount: 2
Fore
SplineSet
80 0 m 1xdc
 80 472 l 1
 144 472 l 1xbc
 144 375 l 1
 159 410 204 480 292 480 c 0
 427.028571429 480 431 383 431 373 c 1
 450 415 491 480 583 480 c 0
 723.013986014 480 725 373 725 315 c 2
 725 0 l 1
 661 0 l 1
 661 311 l 2
 661 390 626 430 548 430 c 0
 475 430 434 364 434 270 c 2
 434 0 l 1
 370 0 l 1
 370 311 l 2
 370 390 336 430 258 430 c 0
 186 430 144 364 144 270 c 1
 144 0 l 1
 80 0 l 1xdc
EndSplineSet
EndChar

StartChar: n
Encoding: 110 110 79
GlifName: n
Width: 517
GlyphClass: 2
Flags: W
HStem: 0 21G<80 144 370 434> 430 50<213.511 333.989> 452 20G<80 144>
VStem: 80 64<0 359.773 375 472> 370 64<0 395.666>
LayerCount: 2
Fore
SplineSet
80 0 m 1xd8
 80 472 l 1
 144 472 l 1xb8
 144 375 l 1
 167 426 213 480 291 480 c 0
 432.013888889 480 434 372 434 315 c 6
 434 0 l 5
 370 0 l 1
 370 311 l 2
 370 382 349 430 258 430 c 0
 166 430 144 305 144 270 c 9
 144 0 l 1
 80 0 l 1xd8
EndSplineSet
EndChar

StartChar: o
Encoding: 111 111 80
GlifName: o
Width: 525
GlyphClass: 2
Flags: W
HStem: -8 50<184.392 339.125> 434 50<182.47 342.242>
VStem: 40 65<130.681 342.081> 419 65<130.144 341.52>
LayerCount: 2
Fore
SplineSet
40 236 m 0
 40 367 134 484 262 484 c 0
 381 484 484 378 484 236 c 0
 484 101 386 -8 262 -8 c 0
 148 -8 40 91 40 236 c 0
105 245 m 0
 105 82 199 42 262 42 c 0
 325 42 419 82 419 245 c 0
 419 396 325 434 262 434 c 0
 199 434 105 397 105 245 c 0
EndSplineSet
Validated: 1
EndChar

StartChar: p
Encoding: 112 112 81
GlifName: p
Width: 517
GlyphClass: 2
Flags: W
HStem: -167 21G<80 144> -8 50<195.21 321.126> 430 50<208.742 328.591> 452 20G<80 144>
VStem: 80 64<-167 66 78.4263 390.527 404 472> 404 65<133.038 343.491>
LayerCount: 2
Fore
SplineSet
80 -167 m 1xec
 80 472 l 1
 144 472 l 1xdc
 144 404 l 1
 203 476 269 480 294 480 c 0
 393 480 469 372 469 238 c 0
 469 96 378 -8 273 -8 c 0
 186 -8 147 60 144 66 c 1
 144 -167 l 1
 80 -167 l 1xec
144 130 m 2
 144 92 184 42 242 42 c 0
 321 42 404 102 404 237 c 0
 404 368 335 430 252 430 c 0xec
 191 430 144 381 144 342 c 2
 144 130 l 2
EndSplineSet
EndChar

StartChar: q
Encoding: 113 113 82
GlifName: q
Width: 517
GlyphClass: 2
Flags: W
HStem: -167 21G<373 437> -8 50<194.473 309.128> 430 50<194.757 317.654> 452 20G<373 437>
VStem: 46 65<136.161 336.203> 373 64<-167 77 90.6063 380.707 393 472>
LayerCount: 2
Fore
SplineSet
46 235 m 0xdc
 46 381 142 480 242 480 c 0xec
 336.723076923 480 370.984615385 400 373 393 c 1
 373 472 l 1
 437 472 l 1
 437 -167 l 1
 373 -167 l 1
 373 77 l 1
 326.673758865 3 264.234042553 -8 231 -8 c 0
 134 -8 46 93 46 235 c 0xdc
111 235 m 0
 111 120 187 42 262 42 c 0
 326.581818182 42 373 103 373 149 c 2
 373 315 l 2
 373 366 331.627272727 430 262 430 c 0
 187 430 111 355 111 235 c 0
EndSplineSet
EndChar

StartChar: r
Encoding: 114 114 83
GlifName: r
Width: 360
GlyphClass: 2
Flags: W
HStem: 0 21G<80 144> 424 56<242.295 330> 452 20G<80 144>
VStem: 80 64<0 326.455 349 472>
AnchorPoint: "top_550" 220 550 basechar 0
AnchorPoint: "bottom_50" 110 -50 basechar 0
AnchorPoint: "top_550" 195 550 basechar 0
LayerCount: 2
Fore
SplineSet
80 0 m 1xd0
 80 472 l 1
 144 472 l 5xb0
 144 349 l 1
 163.102702703 394 216.389189189 480 330 480 c 1
 330 424 l 1
 201.308108108 424 144 324 144 236 c 2
 144 0 l 1
 80 0 l 1xd0
EndSplineSet
EndChar

StartChar: s
Encoding: 115 115 84
GlifName: s
Width: 402
GlyphClass: 2
Flags: W
HStem: -8 50<98.5695 281.529> 435 50<121.543 298.52>
VStem: 35 65<314.147 412.55> 313 65<70.8859 178.139>
LayerCount: 2
Fore
SplineSet
29 39 m 1
 39 97 l 1
 82 67 134 42 205 42 c 0
 258 42 313 65 313 124 c 0
 313 173.012658228 263.790789224 201.380808099 216 212 c 2
 158 224.887695312 l 2
 97.526793958 238.324941072 35 269.623550175 35 355 c 0
 35 449 113 485 197 485 c 0
 241 485 304 471 350 451 c 1
 340 396 l 1
 296 418 232 435 189 435 c 0
 146 435 100 417 100 362 c 0
 100 306.32053362 149.361782288 292.976151477 186 284.497070312 c 2
 240 272 l 2
 315.458365617 254.536879615 378 205.835820896 378 129 c 0
 378 35 299 -8 208 -8 c 0
 135 -8 77 12 29 39 c 1
EndSplineSet
Validated: 1
EndChar

StartChar: t
Encoding: 116 116 85
GlifName: t
Width: 379
GlyphClass: 2
Flags: W
HStem: -8 50<194.172 308.694> 422 50<19 115 179 334>
VStem: 115 64<56.6062 422 472 607>
AnchorPoint: "top_550" 150 720 basechar 0
AnchorPoint: "bottom_50" 200 -50 basechar 0
AnchorPoint: "top_550" 140 720 basechar 0
LayerCount: 2
Fore
SplineSet
19 422 m 1
 19 472 l 1
 115 472 l 1
 115 607 l 1
 179 607 l 1
 179 472 l 1
 334 472 l 1
 334 422 l 1
 179 422 l 1
 179 138 l 2
 179 109 181 42 232 42 c 0
 297 42 334 83 335 85 c 1
 348 36 l 1
 312 10 269 -8 216 -8 c 0
 116.980392157 -8 115 88 115 131 c 2
 115 422 l 1
 19 422 l 1
EndSplineSet
EndChar

StartChar: u
Encoding: 117 117 86
GlifName: u
Width: 512
GlyphClass: 2
Flags: HW
HStem: -8 50<160.532 288.778> 0 21G<370 434> 452 20G<80 144 370 434>
VStem: 80 64<57.9454 472> 370 64<0 86 97.3223 472>
AnchorPoint: "top_550" 260 550 basechar 0
AnchorPoint: "top_550" 245 550 basechar 0
LayerCount: 2
Fore
SplineSet
80 136 m 2xb8
 80 472 l 1
 144 472 l 1
 144 127 l 2
 144 81 144 42 236 42 c 0xb8
 312.835820896 42 368 94 368 175 c 2
 368 472 l 1
 432 472 l 1
 432 0 l 1
 368 0 l 1x78
 368 86 l 1
 333.4 28 266.177142857 -8 195 -8 c 0
 82.974137931 -8 80 81 80 136 c 2xb8
EndSplineSet
EndChar

StartChar: v
Encoding: 118 118 87
GlifName: v
Width: 458
GlyphClass: 2
Flags: MW
HStem: -3 21G<191 265 191 191> 452 20G<14 78 78 78 380 443 443 443>
AnchorPoint: "top_550" 240 550 basechar 0
AnchorPoint: "top_550" 225 550 basechar 0
LayerCount: 2
Fore
SplineSet
14 472 m 1
 78 472 l 5
 229 65 l 1
 380 472 l 1
 443 472 l 1
 265 -3 l 1
 191 -3 l 1
 14 472 l 1
EndSplineSet
Validated: 1
EndChar

StartChar: w
Encoding: 119 119 88
GlifName: w
Width: 692
GlyphClass: 2
Flags: HW
HStem: -3 21G<152.895 229.894 453.055 537.105> 452 20G<14 82.8477 309.152 378.946 609.054 676>
AnchorPoint: "top_550" 330 550 basechar 0
LayerCount: 2
Fore
SplineSet
14 472 m 1
 77 472 l 1
 196 65 l 1
 317 472 l 1
 375 472 l 1
 494 65 l 1
 615 472 l 1
 676 472 l 1
 531 -3 l 1
 459 -3 l 1
 343 394 l 1
 224 -3 l 1
 159 -3 l 1
 14 472 l 1
EndSplineSet
EndChar

StartChar: x
Encoding: 120 120 89
GlifName: x
Width: 458
GlyphClass: 2
Flags: HMW
HStem: 0 21G<0 0 0 71 386 386 386 458> 452 20G<6 78 78 78 369 440 440 440>
LayerCount: 2
Fore
SplineSet
0 0 m 1
 197 243 l 1
 6 472 l 1
 78 472 l 1
 226 289 l 1
 369 472 l 5
 440 472 l 1
 254 243 l 1
 458 0 l 1
 386 0 l 1
 226 207 l 1
 71 0 l 1
 0 0 l 1
EndSplineSet
Validated: 1
EndChar

StartChar: y
Encoding: 121 121 90
GlifName: y
Width: 458
GlyphClass: 2
Flags: HW
HStem: -175 50<24.9495 157.784> 452 20G<14 86.6167 372.826 443>
LayerCount: 2
Fore
SplineSet
14 472 m 1
 79 472 l 1
 234 65 l 1
 380 472 l 1
 443 472 l 1
 248 -44 l 2
 225.542321209 -103.426473109 190.66 -175 107 -175 c 0
 78.4408602151 -175 41.8494623656 -170 24 -167 c 1
 24 -112 l 1
 39.1807228916 -117 63.4698795181 -125 87 -125 c 0
 160.978723404 -125 189.264408565 -62.94236574 201 -16 c 2
 205 0 l 1
 14 472 l 1
EndSplineSet
EndChar

StartChar: z
Encoding: 122 122 91
GlifName: z
Width: 450
GlyphClass: 2
Flags: W
HStem: 0 50<117 423> 422 50<44 332>
AnchorPoint: "top_550" 240 550 basechar 0
AnchorPoint: "top_550" 230 550 basechar 0
LayerCount: 2
Fore
SplineSet
29 0 m 1
 29 34 l 1
 332 422 l 1
 44 422 l 1
 44 472 l 1
 419 472 l 1
 419 438 l 1
 117 50 l 1
 423 50 l 1
 423 0 l 1
 29 0 l 1
EndSplineSet
Validated: 1
EndChar

StartChar: braceleft
Encoding: 123 123 92
GlifName: braceleft
Width: 525
GlyphClass: 2
Flags: MW
HStem: -222 50<389 425 425 462> 239 25 700 50<425 437 437 462>
VStem: 230 64<-106 -92 -92 110 110 110 418 620>
LayerCount: 2
Fore
SplineSet
62 239 m 5
 62 289 l 5
 149 290 230 326 230 418 c 6
 230 627 l 6
 230 722 325 750 425 750 c 6
 462 750 l 5
 462 700 l 5
 437 700 l 6
 366 700 294 695 294 620 c 6
 294 415 l 6
 294 266 123 265 123 264 c 4
 178 262 294 234 294 113 c 6
 294 -92 l 6
 294 -153 316 -172 462 -172 c 5
 462 -222 l 5
 425 -222 l 6
 274 -222 230 -158 230 -106 c 6
 230 110 l 6
 227 137 230 232 62 239 c 5
EndSplineSet
Validated: 1
EndChar

StartChar: bar
Encoding: 124 124 93
GlifName: bar
Width: 292
GlyphClass: 2
Flags: MW
HStem: -221 21G<141 149> 729 20G<141 149>
VStem: 125 40<-193 720>
LayerCount: 2
Fore
SplineSet
125 -193 m 2
 125 720 l 2
 125 745 137 749 145 749 c 0
 153 749 165 745 165 720 c 2
 165 -193 l 2
 165 -218 153 -221 145 -221 c 0
 137 -221 125 -217 125 -193 c 2
EndSplineSet
Validated: 1
EndChar

StartChar: braceright
Encoding: 125 125 94
GlifName: braceright
Width: 525
GlyphClass: 2
Flags: HMW
HStem: -222 50<62 87 87 99 62 87> 239 50<462 462> 264 25 700 50<62 91.5>
VStem: 230 64<-92 110 418 456 456 620>
LayerCount: 2
Fore
SplineSet
462 239 m 5xd8
 294 232 297 137 294 110 c 6
 294 -106 l 6
 294 -158 250 -222 99 -222 c 6
 62 -222 l 5
 62 -172 l 5
 208 -172 230 -153 230 -92 c 6
 230 113 l 6
 230 234 346 262 401 264 c 4xb8
 401 265 230 266 230 415 c 6
 230 620 l 6
 230 695 158 700 87 700 c 6
 62 700 l 5
 62 750 l 5
 99 750 l 6
 199 750 294 722 294 627 c 6
 294 418 l 6
 294 326 375 290 462 289 c 5
 462 239 l 5xd8
EndSplineSet
Validated: 1
EndChar

StartChar: asciitilde
Encoding: 126 126 95
GlifName: asciitilde
Width: 642
GlyphClass: 2
Flags: MW
HStem: 589 50<388 433.5 388 451.5> 644 50<207 251.5> 675 20G<503 554 554 554>
LayerCount: 2
Fore
SplineSet
87 589 m 1xc0
 89 660 157 694 215 694 c 0xc0
 291 694 352 639 424 639 c 0
 443 639 498 644 503 695 c 1
 554 695 l 1xa0
 550 617 477 589 426 589 c 0
 348 589 287 644 216 644 c 0
 198 644 143 639 137 589 c 1
 112 589 l 1
 87 589 l 1xc0
EndSplineSet
Validated: 1
EndChar

StartChar: exclamdown
Encoding: 257 161 97
GlifName: exclamdown
Width: 325
GlyphClass: 2
Flags: HMW
HStem: -167 21G<123 123 123 201> 450 78<123 201 123 201>
VStem: 123 78<-167 -167 450 528>
LayerCount: 2
Fore
SplineSet
123 -167 m 1
 131 350 l 1
 193 350 l 1
 201 -167 l 1
 123 -167 l 1
123 450 m 1
 123 528 l 1
 201 528 l 1
 201 450 l 1
 123 450 l 1
EndSplineSet
Validated: 1
EndChar

StartChar: cent
Encoding: 258 162 98
GlifName: cent
Width: 525
GlyphClass: 2
Flags: MW
HStem: -83 21G<266 316 266 266> -7 52<266 266 266 316> 432 52<316 351> 540 20G<266 316 316 316>
VStem: 46 65<190.5 288.5 190.5 294> 266 50<-83 -7 -83 -7 45 431 431 431 484 560>
LayerCount: 2
Fore
SplineSet
46 236 m 0
 46 352 128 468 266 483 c 1
 266 560 l 1
 316 560 l 1
 316 484 l 1
 386 484 425 471 489 442 c 1
 480 387 l 1
 412 420 382 431 316 432 c 1
 316 45 l 1
 391 50 434 72 490 111 c 1
 495 55 l 1
 442 19 389 -3 316 -7 c 1
 316 -83 l 1
 266 -83 l 1
 266 -7 l 1
 146 6 46 105 46 236 c 0
111 237 m 0
 111 144 163 60 266 45 c 1
 266 431 l 1
 170 419 111 340 111 237 c 0
EndSplineSet
Validated: 1
EndChar

StartChar: sterling
Encoding: 259 163 99
GlifName: sterling
Width: 671
GlyphClass: 2
Flags: MW
HStem: -8 50<137 156.5 477 499> 89 50<151 175.5> 322 51<174 259 174 259 323 437> 677 51<400 469.5>
VStem: 259 64<216 220 220 322 373 476 476 505> 548 64
LayerCount: 2
Fore
SplineSet
58 57 m 0
 58 106 114 139 188 139 c 0
 208 139 229 136 255 129 c 1
 259 155 259 188 259 218 c 2
 259 322 l 1
 174 322 l 1
 174 373 l 1
 259 373 l 1
 259 511 l 2
 259 665 363 728 437 728 c 0
 552 728 612 636.831050228 612 579 c 1
 548 579 l 1
 546 631.5 503 677 436 677 c 0
 332 677 323 571 323 505 c 2
 323 373 l 1
 437 373 l 1
 437 322 l 1
 323 322 l 1
 323 218 l 2
 323 173.130200393 322.723625911 146.170877732 312 108 c 1
 392 71 449 42 505 42 c 0
 553.523131664 42 575.333278575 87.3316358259 577 139 c 1
 641 139 l 1
 637.120476144 76.9276183107 612 -8 481 -8 c 0
 426.932574335 -8 347.026321462 28.6546026633 283 58 c 1
 229 -6 167 -8 146 -8 c 0
 97 -8 58 18 58 57 c 0
120 59 m 0
 120 52 124 42 150 42 c 0
 202 42 231 84 231 84 c 1
 211 88.2727272727 186 89 165 89 c 0
 127 89 120 65 120 59 c 0
EndSplineSet
Validated: 1
EndChar

StartChar: currency
Encoding: 260 164 100
GlifName: currency
Width: 803
GlyphClass: 2
Flags: MW
HStem: -46 78 -8 40<356 437.5> 575 40<367.5 434.5 367.5 476> 575 78
VStem: 52 77 89 40<266.5 336.5> 673 40<259 340.5 259 379> 673 77
LayerCount: 2
Fore
SplineSet
52 -28 m 0xaa
 52 -20 54 -15 77 8 c 2
 167 97 l 1
 167 98 l 1
 116 154 89 230 89 303 c 0xa6
 89 370 112 448 167 509 c 1
 56 622 52 620 52 634 c 0
 52 645 63 653 71 653 c 0x9a
 87 653 96 635 196 538 c 1
 256 592 334 615 401 615 c 0xaa
 468 615 546 593 606 538 c 1
 711 642 719 653 731 653 c 0
 739 653 750 647 750 632 c 0x99
 750 622 746 620 635 509 c 1
 686 453 713 378 713 303 c 0xaa
 713 215 678 148 635 98 c 1
 716 18 l 2
 742 -8 750 -18 750 -26 c 0
 750 -38 739 -46 732 -46 c 0xa9
 715 -46 716 -38 606 70 c 1
 550 19 475 -8 400 -8 c 0x6a
 312 -8 245 27 195 70 c 1
 140 14 l 2
 82 -45 81 -46 70 -46 c 0
 59 -46 52 -33 52 -28 c 0xaa
129 304 m 0
 129 157 249 32 400 32 c 0
 547 32 673 150 673 304 c 0
 673 454 550 575 402 575 c 0
 254 575 129 456 129 304 c 0
EndSplineSet
Validated: 1
EndChar

StartChar: yen
Encoding: 261 165 101
GlifName: yen
Width: 675
GlyphClass: 2
Flags: MW
HStem: 0 21G<303 372 303 303> 200 50<17.5 18 18 303 372 656 656 657> 412 51<9 170 50 170 50 207 292 393 292 292 505 625 625 657> 675 20G<3 88 88 88 596 672 672 672>
VStem: 303 69<0 200 0 200 250 278>
LayerCount: 2
Fore
SplineSet
-21 225 m 0
 -21 248 0 250 12 250 c 2
 303 250 l 1
 303 278 l 1
 287 300 271 323 255 345 c 2
 207 412 l 1
 19 412 l 2
 -1 412 -21 414 -21 437 c 0
 -21 458 -9 463 50 463 c 2
 170 463 l 1
 114 540 59 618 3 695 c 1
 88 695 l 1
 255 463 l 1
 429 463 l 1
 485 540 540 618 596 695 c 1
 672 695 l 1
 505 463 l 1
 625 463 l 2
 689 463 696 455 696 437 c 0
 696 414 674 412 661 412 c 2
 468 412 l 1
 372 278 l 1
 372 250 l 1
 656 250 l 2
 676 250 696 247 696 225 c 0
 696 201 676 199 663 199 c 0
 660 199 658 200 657 200 c 2
 372 200 l 1
 372 0 l 1
 303 0 l 1
 303 200 l 1
 18 200 l 2
 17 200 15 199 12 199 c 0
 -1 199 -21 201 -21 225 c 0
292 412 m 1
 342 342 l 1
 393 412 l 1
 292 412 l 1
EndSplineSet
Validated: 1
EndChar

StartChar: brokenbar
Encoding: 262 166 102
GlifName: brokenbar
Width: 175
GlyphClass: 2
Flags: MW
HStem: -221 21G<76.5 91> 729 20G<84 97.5>
VStem: 67 40<-195 -193 -193 149 149 150 378 379 379 721 721 723>
LayerCount: 2
Fore
SplineSet
67 177 m 1
 107 177 l 1
 107 -221 l 5
 67 -221 l 5
 67 177 l 1
67 351 m 17
 67 749 l 25
 107 749 l 25
 107 616.333333333 107 483.666666667 107 351 c 25
 67 351 l 17
EndSplineSet
Validated: 1
EndChar

StartChar: section
Encoding: 253 167 103
GlifName: section
Width: 467
GlyphClass: 2
Flags: MW
HStem: -175 50<183.5 239 176 279.5> 652 51<224 271 185 272.5>
VStem: 72 63<236.5 285.5 530 560.5> 330 63<-34 -2.5 -56.5 22.5 242 300>
LayerCount: 2
Fore
SplineSet
46 -105 m 1
 56 -48 l 1
 75 -66 125 -125 227 -125 c 0
 251 -125 269 -118 285 -107 c 0
 316 -86 330 -50 330 -18 c 0
 330 63 226 92 202 104 c 0
 115 146 72 203 72 270 c 0
 72 301 82 362 154 407 c 1
 82 457 72 514 72 546 c 0
 72 624 134 703 236 703 c 0
 306 703 350 678 390 647 c 1
 380 592 l 1
 344 622 309 652 236 652 c 0
 212 652 193 645 178 634 c 1
 178 634 l 1
 148 612 135 575 135 546 c 0
 135 483 192 453 232 436 c 0
 265 421 393 375 393 258 c 0
 393 226 383 165 311 120 c 1
 383 71 393 13 393 -18 c 0
 393 -95 331 -175 228 -175 c 0
 139 -175 89 -141 46 -105 c 1
135 270 m 0
 135 186 247 155 253 155 c 0
 282 155 330 198 330 257 c 0
 330 343 217 373 212 373 c 0
 183 373 135 329 135 270 c 0
EndSplineSet
Validated: 1
EndChar

StartChar: dieresis
Encoding: 263 168 104
AltUni2: 00f24d.ffffffff.0
GlifName: dieresis
Width: 493
GlyphClass: 2
Flags: HMW
HStem: 593 63<128 191 128 191 332 395>
AnchorPoint: "top_550" 240 787 mark 0
AnchorPoint: "top_550" 246 787 mark 0
LayerCount: 2
Fore
SplineSet
302 790 m 1
 302 853 l 1
 365 853 l 1
 365 790 l 1
 302 790 l 1
128 790 m 1
 128 853 l 1
 191 853 l 1
 191 790 l 1
 128 790 l 1
EndSplineSet
Validated: 1
EndChar

StartChar: copyright
Encoding: 264 169 105
GlifName: copyright
Width: 1091
GlyphClass: 2
Flags: MW
HStem: -239 40<429 664.5 429 681.5> -17 53<535.5 662> 450 53<606 655.5> 727 40<425.5 661>
VStem: 58 40<128 395 128 400.5> 277 70<192.5 289 192.5 314.5> 992 40<132.5 399>
LayerCount: 2
Fore
SplineSet
218 258 m 0
 218 447 351 622 550 622 c 0
 637 622 696 604 743 588 c 1
 730 519 l 1
 674 548 631 569 549 569 c 0
 405 569 288 435 288 258 c 0
 288 96 393 -53 550 -53 c 0
 650.547738693 -53 686.256281407 -28 737 8 c 1
 754 -50 l 1
 696 -83 655 -106 550 -106 c 0
 351 -106 218 69 218 258 c 0
58 263 m 4
 58 538 273 767 545 767 c 4
 806 767 1032 549 1032 264 c 4
 1032 -9 819 -239 544 -239 c 4
 284 -239 58 -22 58 263 c 4
98 263 m 4
 98 -7 314 -199 544 -199 c 4
 785 -199 992 1 992 264 c 4
 992 534 776 727 546 727 c 4
 305 727 98 527 98 263 c 4
EndSplineSet
Validated: 1
EndChar

StartChar: ordfeminine
Encoding: 265 170 106
GlifName: ordfeminine
Width: 422
GlyphClass: 2
Flags: MW
HStem: 285 21G<50 64 64 392> 285 50<50 398 70 392> 375 42 485 30<288 288> 715 47<188 243>
VStem: 288 65<461 485 515 543 543 574 574 577 375 604.5>
LayerCount: 2
Fore
SplineSet
33 284 m 1x7c
 33 335 l 1
 382 335 l 1
 382 284 l 1
 33 284 l 1x7c
55 447 m 0
 55 510 211 515 288 515 c 1
 288 574 l 2
 288 635 272 715 214 715 c 0
 151 715 107 677 87 659 c 1
 82 715 l 1
 121 744 159 762 217 762 c 0
 298 762 353 682 353 577 c 2
 353 375 l 1
 289 375 l 1
 289 419 l 1
 270 400 228 367 135 367 c 0
 75 367 55 420 55 447 c 0
117.97555455 447.943933425 m 0
 117.97555455 428.70119726 136.768234849 417 188 417 c 0
 249 417 288 437 288 485 c 1
 123.234042553 483.127659574 117.97555455 458.4685378 117.97555455 447.943933425 c 0
EndSplineSet
Validated: 1
EndChar

StartChar: guillemotleft
Encoding: 266 171 107
GlifName: guillemotleft
Width: 700
GlyphClass: 2
Flags: MW
HStem: 0 21G<363 419 363 363 538 538 538 594> 452 20G<363 419 419 419 538 594 594 594>
LayerCount: 2
Fore
SplineSet
116 236 m 1
 363 472 l 1
 419 472 l 1
 176 236 l 1
 257 157 338 79 419 0 c 1
 363 0 l 1
 116 236 l 1
291 236 m 1
 538 472 l 1
 594 472 l 1
 351 236 l 1
 432 157 513 79 594 0 c 1
 538 0 l 1
 291 236 l 1
EndSplineSet
Validated: 1
EndChar

StartChar: logicalnot
Encoding: 267 172 108
GlifName: logicalnot
Width: 642
GlyphClass: 2
Flags: MW
HStem: 104 21G<554 571> 320 40<80.5 555 92 179 179 543>
VStem: 543 40<134 135 135 320 320 320>
LayerCount: 2
Fore
SplineSet
59 340 m 0
 59 363 86 359 92 360 c 2
 555 360 l 2
 582 360 583 344 583 330 c 2
 583 135 l 2
 583 119 579 104 563 104 c 0
 545 104 543 122 543 134 c 2
 543 320 l 1
 179 320 l 1
 88 320 l 2
 73 320 59 324 59 340 c 0
EndSplineSet
Validated: 1
EndChar

StartChar: uni00AD
Encoding: 173 173 109
GlifName: uni00A_D_
Width: 175
GlyphClass: 2
Flags: MW
HStem: 211 50<11 291 11 291>
LayerCount: 2
Fore
SplineSet
11 211 m 1
 11 261 l 1
 291 261 l 1
 291 211 l 1
 11 211 l 1
EndSplineSet
Validated: 1
EndChar

StartChar: registered
Encoding: 268 174 110
GlifName: registered
Width: 1091
GlyphClass: 2
Flags: MW
HStem: -239 0<544 544> 0 21G<315 315 315 384 776 776 776 846> 219 50<541 556 556 573> 433 53<384 540 384 384> 767 0<545 545>
VStem: 58 0<263 263> 315 69<0 218 269 433> 1032 0<264 264>
LayerCount: 2
Fore
SplineSet
58 263 m 0
 58 536.858383954 271.601581245 767 545 767 c 0
 800.658045295 767 1032 558.644167174 1032 264 c 0
 1032 -9 819 -239 544 -239 c 0
 284 -239 58 -22 58 263 c 0
98 263 m 0
 98 -7 314 -199 544 -199 c 0
 785 -199 992 1 992 264 c 0
 992 534 776 727 546 727 c 0
 305 727 98 527 98 263 c 0
294 -74 m 1
 294 621 l 1
 524 621 l 2
 732 621 807 508 807 433 c 0
 807 347 719 274 614 256 c 1
 837 -74 l 1
 767 -74 l 1
 551 248 l 1
 363 248 l 1
 363 -74 l 1
 294 -74 l 1
363 299 m 1
 509 299 l 2
 581 299 742 305 742 433 c 0
 742 513 662 567 540 567 c 2
 363 567 l 1
 363 299 l 1
EndSplineSet
Validated: 1
EndChar

StartChar: macron
Encoding: 269 175 111
GlifName: macron
Width: 525
GlyphClass: 2
Flags: W
HStem: 550 54<72 451>
AnchorPoint: "top_550" 255 550 mark 0
LayerCount: 2
Fore
SplineSet
72 550 m 5
 72 604 l 5
 451 604 l 5
 451 550 l 5
 72 550 l 5
EndSplineSet
Validated: 1
EndChar

StartChar: degree
Encoding: 270 176 112
GlifName: degree
Width: 350
GlyphClass: 2
Flags: MW
HStem: 462 40<151.5 194.5 151.5 206.5> 654 40<154 197>
VStem: 58 40<558.5 600 558.5 610> 250 41<556 597.5>
LayerCount: 2
Fore
SplineSet
58 578 m 0
 58 642 111 694 174 694 c 0
 243 694 291 638 291 579 c 0
 291 514 238 462 175 462 c 0
 106 462 58 518 58 578 c 0
98 578 m 0
 98 539 129 502 174 502 c 0
 215 502 250 534 250 578 c 0
 250 617 220 654 174 654 c 0
 134 654 98 622 98 578 c 0
EndSplineSet
Validated: 1
EndChar

StartChar: plusminus
Encoding: 271 177 113
GlifName: plusminus
Width: 642
GlyphClass: 2
Flags: MW
HStem: 89 40<77 96 96 96 96 301 341 513> 331 40<87 90 90 301 341 509 509 551 551 554> 593 20G<306.5 335.5>
VStem: 301 40<129 331 129 331 371 539>
LayerCount: 2
Fore
SplineSet
59 129 m 1
 301 129 l 1
 301 331 l 1
 59 331 l 1
 59 371 l 1
 301 371 l 1
 301 613 l 1
 341 613 l 1
 341 371 l 1
 582 371 l 1
 582 331 l 1
 341 331 l 1
 341 129 l 1
 582 129 l 1
 582 89 l 1
 59 89 l 1
 59 129 l 1
EndSplineSet
Validated: 1
EndChar

StartChar: uni00B2
Encoding: 272 178 114
GlifName: uni00B_2
Width: 467
GlyphClass: 2
Flags: MW
HStem: 347 56<107 229 229 291 291 413 52 52> 714 53<165.5 234.5>
VStem: 347 66<592 659.5>
LayerCount: 2
Fore
SplineSet
43 677 m 1
 70 713 113 767 218 767 c 0
 333 767 413 710 413 625 c 0
 413 559 357 531 297 505 c 0
 226 474 324 528 107 403 c 1
 229 403 l 1
 291 403 l 1
 413 403 l 1
 413 347 l 1
 52 347 l 1
 52 403 l 1
 155 465 168 472 182 480 c 0
 255 519 347 543 347 623 c 0
 347 696 263 714 206 714 c 0
 111 714 91 654 76 629 c 1
 70 637 64 645 59 653 c 0
 53 661 48 669 43 677 c 1
EndSplineSet
Validated: 1
EndChar

StartChar: uni00B3
Encoding: 273 179 115
GlifName: uni00B_3
Width: 467
GlyphClass: 2
Flags: MW
HStem: 339 52<199.5 283 199.5 285> 716 51<202.5 275.5>
VStem: 326 67<629 673.5> 352 41 352 70<449.5 464.5 426.5 493>
LayerCount: 2
Fore
SplineSet
43 382 m 1xc8
 51 434 l 1
 108 409 163 391 236 391 c 0
 330 391 352 436 352 463 c 0xd0
 352 523 276 536 224 536 c 2
 174 536 l 1
 174 586 l 1
 219 590 326 594 326 664 c 0
 326 683 312 716 239 716 c 0
 166 716 121 685 86 655 c 1
 58 702 l 1
 107 741 165 767 236 767 c 0
 319 767 393 725 393 664 c 0xe0
 393 593 312 562 312 561 c 0
 386 540 411 506 419 482 c 0
 422 474 422 467 422 462 c 0
 422 391 336 339 234 339 c 0
 158 339 98 358 43 382 c 1xc8
EndSplineSet
Validated: 1
EndChar

StartChar: acute
Encoding: 274 180 116
GlifName: acute
Width: 525
GlyphClass: 2
Flags: MW
HStem: 538 21G<207 207 207 245> 647 20G<357 422 422 422>
LayerCount: 2
Fore
SplineSet
163 550 m 5
 253 708 l 1
 346 708 l 1
 203 550 l 1
 163 550 l 5
EndSplineSet
Validated: 1
EndChar

StartChar: mu
Encoding: 275 181 117
GlifName: mu
Width: 517
GlyphClass: 2
Flags: MW
HStem: -167 21G<80 80 80 145> -8 21G<186.5 232.5> 0 39 452 20G<80 145 145 145 371 435 435 435>
VStem: 80 65<-167 0 108.5 124 124 472> 371 64<175 472 0 472>
LayerCount: 2
Fore
SplineSet
80 -167 m 1xbc
 80 472 l 1
 145 472 l 1
 145 124 l 2
 145 61.2800408524 165.52804711 39 237 39 c 0
 315 39 371 92 371 175 c 2
 371 472 l 1
 435 472 l 1
 435 0 l 1
 372 0 l 1xbc
 372 86 l 1
 337 28 269 -8 196 -8 c 0xdc
 177 -8 165 -6 145 0 c 1
 145 -167 l 1
 80 -167 l 1xbc
EndSplineSet
Validated: 1
EndChar

StartChar: paragraph
Encoding: 276 182 118
GlifName: paragraph
Width: 642
GlyphClass: 2
Flags: MW
HStem: -166 21G<381 396 495.5 513> 655 40<412 485 412 412 525 581 581 585 525 525>
VStem: 372 40<-138 -135 -135 244 244 244> 485 40<-136 655>
LayerCount: 2
Fore
SplineSet
58 470 m 0
 58 567 138 695 333 695 c 2
 611 695 l 5
 611 655 l 5
 525 655 l 1
 525 -166 l 1
 485 -166 l 1
 485 655 l 1
 412 655 l 1
 412 -166 l 1
 372 -166 l 25
 372 244 l 1
 241 247 58 307 58 470 c 0
EndSplineSet
Validated: 1
EndChar

StartChar: periodcentered
Encoding: 277 183 119
GlifName: periodcentered
Width: 258
GlyphClass: 2
Flags: MW
HStem: 218 21G<97 97 97 160> 261 20G<97 160 160 160>
LayerCount: 2
Fore
SplineSet
97 218 m 1
 97 281 l 1
 160 281 l 1
 160 218 l 1
 97 218 l 1
EndSplineSet
Validated: 1
EndChar

StartChar: cedilla
Encoding: 278 184 120
GlifName: cedilla
Width: 467
GlyphClass: 2
Flags: MW
HStem: -163 21G<131 131 131 189> -38 20G<208 258 258 258>
AnchorPoint: "bottom_0" 224 -20 mark 0
LayerCount: 2
Fore
SplineSet
131 -163 m 1
 208 -18 l 1
 258 -18 l 1
 189 -163 l 1
 131 -163 l 1
EndSplineSet
Validated: 1
EndChar

StartChar: uni00B9
Encoding: 279 185 121
GlifName: uni00B_9
Width: 467
GlyphClass: 2
Flags: MW
HStem: 347 51<86 213 278 393 86 213> 641 51<76 76> 747 20G<262 278 278 278>
VStem: 76 202<641 692 692 692> 213 65<398 675 675 675>
LayerCount: 2
Fore
SplineSet
76 641 m 1xf0
 76 692 l 1xf0
 188 693 238 740 262 767 c 1
 278 767 l 1
 278 398 l 1
 393 398 l 1
 393 347 l 1
 86 347 l 1
 86 398 l 1
 213 398 l 1
 213 675 l 1xe8
 177 655 139 642 76 641 c 1xf0
EndSplineSet
Validated: 1
EndChar

StartChar: ordmasculine
Encoding: 280 186 122
GlifName: ordmasculine
Width: 467
GlyphClass: 2
Flags: MW
HStem: 285 21G<50 64 64 392> 285 50<50 398 70 392> 367 52<209 257.5 209 288> 712 50<205 260.5>
VStem: 40 65<505.5 614.5> 361 65<509.5 619.5 509.5 626.5>
LayerCount: 2
Fore
SplineSet
40 561 m 0x3c
 40 668 122 762 233 762 c 0
 335 762 426 677 426 562 c 0
 426 457 343 367 233 367 c 0
 132 367 40 448 40 561 c 0x3c
42 285 m 1x7c
 42 335 l 1
 425 335 l 1
 425 285 l 1
 42 285 l 1x7c
105 569 m 0
 105 442 185 419 233 419 c 0
 282 419 361 441 361 570 c 0
 361 683 288 712 233 712 c 0
 177 712 105 684 105 569 c 0
EndSplineSet
Validated: 1
EndChar

StartChar: guillemotright
Encoding: 281 187 123
GlifName: guillemotright
Width: 700
GlyphClass: 2
Flags: MW
HStem: 0 21G<105 105 105 161 280 336 280 280> 452 20G<105 161 161 161 280 336 336 336>
LayerCount: 2
Fore
SplineSet
105 0 m 1
 348 236 l 1
 105 472 l 1
 161 472 l 1
 408 236 l 1
 161 0 l 1
 105 0 l 1
280 0 m 1
 523 236 l 1
 280 472 l 1
 336 472 l 1
 583 236 l 1
 336 0 l 1
 280 0 l 1
EndSplineSet
Validated: 1
EndChar

StartChar: onequarter
Encoding: 282 188 124
GlifName: onequarter
Width: 467
GlyphClass: 3
Flags: MW
HStem: -167 21G<260 323 260 260> -76 53<100 260 323 437> 272 40<82 429> 352 50<87 214 279 394 87 214> 676 51<77 108.5> 747 20G<255.5 279>
VStem: 214 65<402 693 693 693> 263 60<-23 184 184 184>
LayerCount: 2
Fore
SplineSet
24 272 m 1xfc
 24 312 l 1
 442 312 l 1
 442 272 l 1
 24 272 l 1xfc
49 -22 m 5
 261 240 l 5
 343 240 l 5
 343 -23 l 5
 417 -23 l 5
 417 -76 l 5
 343 -76 l 5
 343 -167 l 5
 280 -167 l 5
 280 -76 l 5
 49 -76 l 5
 49 -22 l 5
77 676 m 1
 77 727 l 1
 249 730 232 767 279 767 c 1
 279 402 l 1
 394 402 l 1
 394 352 l 1
 87 352 l 1
 87 402 l 1
 214 402 l 1
 214 693 l 1xfe
 174 681 140 676 77 676 c 1
120 -23 m 5
 283 -23 l 5
 283 184 l 5
 120 -23 l 5
EndSplineSet
Validated: 1
LCarets2: 2 0 0
EndChar

StartChar: onehalf
Encoding: 283 189 125
GlifName: onehalf
Width: 467
GlyphClass: 3
Flags: HMW
HStem: -167 53<111 212 212 313 313 414> 198 51<180.5 212.5> 272 40<82 429> 352 50<87 214 279 394 87 214> 676 51<77 108.5> 747 20G<255.5 279>
VStem: 214 65<402 693 693 693> 347 67<77 127.5>
LayerCount: 2
Fore
SplineSet
24 272 m 5
 24 312 l 5
 442 312 l 5
 442 272 l 5
 24 272 l 5
44 172 m 1
 95 227 142 249 219 249 c 0
 339 249 414 197 414 120 c 0
 414 26 304.887640449 7.1797752809 223 -44 c 2
 111 -114 l 1
 414 -114 l 1
 414 -167 l 1
 52 -167 l 1
 52 -116 l 1
 179 -35 l 2
 255.754120758 13.9534156016 347 35 347 119 c 0
 347 179.998867551 280.689034187 198 226 198 c 0
 142.736434109 198 93.1705426357 143 77 124 c 1
 44 172 l 1
77 676 m 1
 77 727 l 1
 249 730 232 767 279 767 c 1
 279 402 l 1
 394 402 l 1
 394 352 l 1
 87 352 l 1
 87 402 l 1
 214 402 l 1
 214 693 l 1
 174 681 140 676 77 676 c 1
EndSplineSet
Validated: 1
LCarets2: 2 0 0
EndChar

StartChar: threequarters
Encoding: 284 190 126
GlifName: threequarters
Width: 467
GlyphClass: 3
Flags: MW
HStem: -167 21G<260 323 260 260> -76 53<100 260 323 437> 272 40<82 429> 335 52<200 282 200 285> 534 51<175 224 175 175> 716 51<205 275>
VStem: 263 60<-23 184 184 184> 327 66<629 674.5> 352 70<445 465 423 470>
LayerCount: 2
Fore
SplineSet
24 272 m 1xfe
 24 312 l 1
 442 312 l 1
 442 272 l 1
 24 272 l 1xfe
44 370 m 1
 51 422 l 1
 108 401 163 387 237 387 c 0
 327 387 352 430 352 460 c 0xfe80
 352 480 341 534 224 534 c 2
 175 534 l 1
 175 585 l 1
 221 587 327 594 327 664 c 0
 327 685 312 716 238 716 c 0
 172 716 130 694 87 663 c 1
 58 710 l 1
 108 744 166 767 237 767 c 0
 328 767 393 721 393 663 c 0xff
 393 594 320 564 312 559 c 1
 373.557905143 542.211480415 422 514.014379772 422 460 c 0xfe80
 422 386 335 335 235 335 c 0
 158 335 97 351 44 370 c 1
49 -22 m 1
 261 240 l 1
 343 240 l 1
 343 -23 l 1
 417 -23 l 1
 417 -76 l 1
 343 -76 l 1
 343 -167 l 1
 280 -167 l 1
 280 -76 l 1
 49 -76 l 1
 49 -22 l 1
120 -23 m 1
 283 -23 l 1
 283 184 l 1
 120 -23 l 1
EndSplineSet
Validated: 1
LCarets2: 2 0 0
EndChar

StartChar: questiondown
Encoding: 285 191 127
GlifName: questiondown
Width: 496
GlyphClass: 2
Flags: MW
HStem: -175 50<223.5 267.5 223.5 274.5> 450 78<194 272 194 272>
VStem: 58 65<-54 -17.5 -56.5 14.5> 194 78<450 528 450 528>
LayerCount: 2
Fore
SplineSet
58 -25 m 0
 58 54 100 81 121 102 c 1
 121 102 l 1
 182 165 202 236 202 315 c 2
 202 350 l 1
 264 350 l 1
 264 339 265 327 265 315 c 0
 265 136 166 70 142 38 c 1
 142 38 l 1
 127 18 123 -8 123 -27 c 0
 123 -86 147 -112 187 -121 c 0
 200 -124 215 -125 232 -125 c 0
 303 -125 355 -106 418 -69 c 1
 437 -122 l 1
 383 -151 315 -175 234 -175 c 0
 86 -175 58 -83 58 -25 c 0
194 450 m 1
 194 528 l 1
 272 528 l 1
 272 450 l 1
 194 450 l 1
EndSplineSet
Validated: 1
EndChar

StartChar: Aring
Encoding: 291 197 133
GlifName: A_ring
Width: 675
GlyphClass: 2
Flags: MW
HStem: 0 21G<29 29 29 94 572 572 572 645> 210 53<195 471 195 491 174 471> 683 20G<304.5 357.5> 844 50<305.5 359>
VStem: 215 58<759 791 758.5 803> 390 58<756 789>
LayerCount: 2
Fore
SplineSet
29 0 m 1
 284 663 l 1
 224 694 215 745 215 773 c 0
 215 833 260 894 329 894 c 0
 399 894 448 837 448 773 c 0
 448 736 433 710 418 693 c 0
 403 676 389 668 389 668 c 1
 645 0 l 1
 572 0 l 1
 491 210 l 1
 174 210 l 1
 94 0 l 1
 29 0 l 1
195 263 m 1
 471 263 l 1
 430 370 390 478 349 585 c 2
 341 607 l 2
 338 614 335 622 333 630 c 1
 286 508 240 384 195 263 c 1
273 775 m 0
 273 742 278 703 331 703 c 0
 384 703 390 740 390 772 c 0
 390 806 386 844 332 844 c 0
 279 844 273 807 273 775 c 0
EndSplineSet
Validated: 1
EndChar

StartChar: AE
Encoding: 292 198 134
GlifName: A_E_
Width: 892
GlyphClass: 2
Flags: MW
HStem: 0 56<497 760 760 848> 225 53<213 428 213 428 190 428> 335 53<497 804 497 804> 641 54<368 428 368 368 497 833 497 497>
VStem: 428 69<56 225 225 225 278 335 388 641>
LayerCount: 2
Fore
SplineSet
29 0 m 1
 325 695 l 1
 833 695 l 1
 833 641 l 1
 497 641 l 1
 497 388 l 1
 804 388 l 1
 804 335 l 1
 497 335 l 1
 497 56 l 1
 760 56 l 1
 848 56 l 1
 848 0 l 1
 428 0 l 1
 428 225 l 1
 190 225 l 1
 95 0 l 1
 29 0 l 1
213 278 m 1
 428 278 l 1
 428 641 l 1
 368 641 l 1
 316 520 265 399 213 278 c 1
EndSplineSet
Validated: 1
EndChar

StartChar: Eth
Encoding: 302 208 144
GlifName: E_th
Width: 746
GlyphClass: 2
Flags: MW
HStem: 0 53<168 336 336 349> 315 51<-12 99 -12 99 168 367> 641 54<168 336 168 168>
VStem: 99 69<53 53 53 315 366 641> 619 69<342 342 342 402.5 342 342>
LayerCount: 2
Fore
SplineSet
-12 315 m 1
 -12 366 l 1
 99 366 l 1
 99 695 l 1
 348 695 l 1
 375 695 l 2
 544 695 688 533 688 342 c 0
 688 139 536 0 349 0 c 2
 99 0 l 1
 99 315 l 1
 -12 315 l 1
168 53 m 1
 336 53 l 2
 562 53 619 223 619 342 c 1
 619 342 l 1
 619 342 l 1
 619 463 564 641 336 641 c 2
 168 641 l 1
 168 366 l 1
 367 366 l 1
 367 315 l 1
 168 315 l 1
 168 53 l 1
EndSplineSet
Validated: 5
EndChar

StartChar: multiply
Encoding: 309 215 151
GlifName: multiply
Width: 642
GlyphClass: 2
Flags: MW
HStem: 74 21G<147 154 484 491 491 493> 434 20G<488 511> 435 20G<145 156>
LayerCount: 2
Fore
SplineSet
130 93 m 0xc0
 130 96 132 100 133 103 c 0
 186 156 241 211 292 265 c 1
 210 346 l 2
 157 398 139 417 133 426 c 0
 131 430 130 432 130 434 c 0xc0
 130 448 141 455 149 455 c 0xa0
 163 455 158 452 321 292 c 1
 462 433 478 453 488 454 c 0
 507 454 511 440 511 437 c 2
 511 434 l 2
 511 422 402 324 349 264 c 1
 431 183 l 2
 505 109 511 103 511 94 c 0
 511 78 497 74 493 74 c 2
 491 74 l 2
 477 74 475 84 320 236 c 1
 244 160 l 2
 218 134 180 86 154 74 c 1
 140 74 131 79 130 93 c 0xc0
EndSplineSet
Validated: 1
EndChar

StartChar: Oslash
Encoding: 310 216 152
GlifName: O_slash
Width: 817
GlyphClass: 2
Flags: MW
HStem: -56 21G<163 163> -17 51<377.5 492.5 377.5 499> 661 50<323.5 439> 730 20G<653 653>
VStem: 58 66<282 438 276 451> 692 66<255.5 397 240 417.5>
LayerCount: 2
Fore
SplineSet
58 346 m 0
 58 556 223 711 408 711 c 0
 484 711 544 686 590 658 c 1
 653 750 l 1
 696 721 l 1
 632 628 l 1
 715 555 758 448 758 346 c 0
 758 134 590 -17 408 -17 c 0
 317 -17 253 19 226 36 c 1
 205 5 184 -25 163 -56 c 1
 120 -27 l 1
 184 67 l 1
 121 119 58 218 58 346 c 0
124 347 m 0
 124 205 190 133 214 110 c 1
 330 279 445 448 561 617 c 1
 515 645 470 661 408 661 c 0
 239 661 124 529 124 347 c 0
255 77 m 1
 301 50 347 34 408 34 c 0
 577 34 692 165 692 346 c 0
 692 489 626 559 602 584 c 1
 486 415 371 246 255 77 c 1
EndSplineSet
Validated: 1
EndChar

StartChar: Thorn
Encoding: 316 222 158
GlifName: T_horn
Width: 600
GlyphClass: 2
Flags: MW
HStem: 0 21G<99 99 99 166> 180 54<166 281 281 308 166 281> 516 54<167 272 167 167> 675 20G<99 166 166 166>
VStem: 99 68<509.5 516 509.5 695> 475 66<347 403.5>
LayerCount: 2
Fore
SplineSet
99 0 m 1
 99 695 l 1
 166 695 l 1
 166 570 l 1
 314 570 l 2
 355 568 379 567 417 551 c 0
 475 526 541 463 541 375 c 0
 541 303 486 180 308 180 c 2
 166 180 l 1
 166 0 l 1
 99 0 l 1
166 234 m 1
 281 234 l 2
 427 234 475 319 475 375 c 0
 475 432 418 516 272 516 c 2
 167 516 l 1
 167 503 166 491 166 478 c 2
 166 234 l 1
EndSplineSet
Validated: 1
EndChar

StartChar: germandbls
Encoding: 317 223 159
GlifName: germandbls
Width: 492
GlyphClass: 2
Flags: MW
HStem: -8 50<256.5 309 255.5 328> 0 21G<80 80 80 143> 422 50<201 201> 652 51<210 279>
VStem: 80 63<0 560 0 562 0 605> 368 64<554 581.5> 397 64<145 243 138 248>
LayerCount: 2
Fore
SplineSet
80 0 m 1x7c
 80 562 l 2
 80 648 158 703 255 703 c 0
 354 703 432 646 432 575 c 0x7c
 432 522 389 470 318 443 c 1
 404 394 461 295 461 191 c 0
 461 85 385 -8 271 -8 c 0
 242 -8 211 -4 173 7 c 1
 190 55 l 1
 206 50 239 42 272 42 c 0
 346 42 397 99 397 191 c 0xba
 397 305 329 418 201 422 c 1
 201 472 l 1
 329 473 368 534 368 574 c 0
 368 589 363 603 354 615 c 0
 336 638 302 652 256 652 c 0
 164 652 143 606 143 560 c 2
 143 0 l 1
 80 0 l 1x7c
EndSplineSet
Validated: 1
EndChar

StartChar: ae
Encoding: 324 230 166
GlifName: ae
Width: 758
GlyphClass: 2
Flags: MW
HStem: -8 50<191.5 214 571 602.5> 230 40<346 346> 250 40<416 671 416 726 411 671> 434 50<527 565.5>
VStem: 56 62<95.5 148.5> 351 60<143 250>
LayerCount: 2
Fore
SplineSet
56 116 m 0xbc
 56 181 116 264 346 270 c 1xdc
 346 336 l 1
 342 374 324 406 295 424 c 0
 281 433 264 438 245 438 c 0
 163 438 117 405 87 386 c 1
 82 442 l 1
 137 471 181 485 247 485 c 0
 357 485 392 396 395 395 c 0
 432 449 491 484 555 484 c 0
 623 484 726 447 726 250 c 1
 411 250 l 1
 411 158 446 101 487 71 c 0
 515 51 545 42 571 42 c 1
 571 42 l 1
 655 42 704 96 718 111 c 1
 722 56 l 1
 684 19 635 -8 570 -8 c 0
 552 -8 536 -6 519 -2 c 0
 469 11 425 41 395 85 c 1
 355 18 263 -8 165 -8 c 0
 86 -8 56 67 56 116 c 0xbc
118 118 m 0
 118 73 163 42 220 42 c 0
 257 42 319 56 342 102 c 0
 348 114 351 127 351 143 c 1
 351 143 l 1
 351 161 348 204 346 230 c 1
 223 229 118 191 118 118 c 0
416 290 m 1xbc
 671 290 l 1
 656 424 576 434 555 434 c 0
 499 434 434 385 416 290 c 1xbc
EndSplineSet
Validated: 5
EndChar

StartChar: eth
Encoding: 334 240 176
GlifName: eth
Width: 525
GlyphClass: 2
Flags: MW
HStem: -8 52<230.5 309 230.5 321.5> 434 50<230 283.5 199 308.5> 673 20G<116 143> 675 20G<329 329>
VStem: 40 65<164.5 302> 419 65<246.5 258 258 266 246.5 299>
LayerCount: 2
Fore
SplineSet
40 236 m 0xdc
 40 368 136 484 262 484 c 0
 305 484 337 472 370 453 c 1
 340 505 301 548 254 584 c 1
 175 540 l 1
 147 590 l 1
 164 599 180 609 197 618 c 1
 149 641 118 652 72 657 c 1
 102 683 109 693 123 693 c 0xec
 163 693 251 649 251 649 c 1
 277 664 303 680 329 695 c 1
 358 645 l 1
 340 635 322 624 304 614 c 1
 307 612 312 608 317 604 c 0
 366 565 484 454 484 266 c 2
 484 258 l 2
 484 235 484 213 480 191 c 0
 463 91 381 -8 262 -8 c 0
 147 -8 40 92 40 236 c 0xdc
105 244 m 0
 105 85 199 44 262 44 c 0
 356 44 419 120 419 240 c 0
 419 358 356 434 261 434 c 0
 199 434 105 396 105 244 c 0
EndSplineSet
Validated: 1
EndChar

StartChar: divide
Encoding: 341 247 183
GlifName: divide
Width: 642
GlyphClass: 2
Flags: HMW
HStem: -10 118<276 349 290 349 349 352> 244 40<85 86 86 501 501 508> 420 118<290 349 349 352 290 290>
VStem: 261 118<76 79 12.5 95>
CounterMasks: 1 e0
LayerCount: 2
Fore
SplineSet
60 284 m 1
 582 284 l 1
 582 244 l 1
 60 244 l 1
 60 284 l 1
285.400390625 84.400390625 m 5
 355.599609375 84.400390625 l 5
 355.599609375 13.599609375 l 5
 285.400390625 13.599609375 l 5
 285.400390625 84.400390625 l 5
285.400390625 514.400390625 m 1
 355.599609375 514.400390625 l 1
 355.599609375 443.599609375 l 1
 285.400390625 443.599609375 l 1
 285.400390625 514.400390625 l 1
EndSplineSet
Validated: 1
EndChar

StartChar: oslash
Encoding: 342 248 184
GlifName: oslash
Width: 525
GlyphClass: 2
Flags: MW
HStem: -96 21G<95 95> -8 50<244 294.5 244 323.5> 434 50<229.5 269.5> 548 20G<429 430 430 430>
VStem: 42 61<195.5 302> 421 61<168.5 269 168.5 282.5>
LayerCount: 2
Fore
SplineSet
42 236 m 0
 42 368 136 484 262 484 c 0
 304 484 337 471 363 456 c 1
 429 568 l 1
 430 568 l 1
 473 543 l 1
 404 426 l 1
 457 373 482 302 482 236 c 0
 482 101 385 -8 262 -8 c 0
 202 -8 167 18 162 18 c 1
 95 -96 l 1
 51 -70 l 1
 121 49 l 1
 76 89 42 155 42 236 c 0
103 235 m 0
 103 139 141 103 148 93 c 1
 211 200 275 307 338 414 c 1
 304 432 277 434 262 434 c 0
 197 434 103 392 103 235 c 0
187 60 m 1
 208 52 226 42 262 42 c 0
 327 42 421 83 421 234 c 0
 421 331 389 362 377 381 c 1
 187 60 l 1
EndSplineSet
Validated: 1
EndChar

StartChar: thorn
Encoding: 348 254 190
GlifName: thorn
Width: 517
GlyphClass: 2
Flags: MW
HStem: -167 21G<80 80 80 145> -8 50<230.5 282.5 214 326> 429 51<282.5 287.5> 675 20G<80 143 143 143>
VStem: 80 65<-167 66 111 130 130 342> 405 64<177 246>
LayerCount: 2
Fore
SplineSet
80 -167 m 1
 80 695 l 1
 143 695 l 1
 143 404 l 1
 203 476 270 480 295 480 c 0
 393 480 469 372 469 238 c 0
 469 96 378 -8 274 -8 c 0
 187 -8 149 63 145 66 c 1
 145 -167 l 1
 80 -167 l 1
144 349 m 0
 144 347 145 344 145 342 c 2
 145 130 l 2
 145 92 185 42 243 42 c 0
 322 42 405 117 405 237 c 0
 405 255 404 272 400 288 c 0
 382 369 322 429 253 429 c 0
 196 429 144 382 144 349 c 0
EndSplineSet
Validated: 1
EndChar

StartChar: dcaron
Encoding: 365 271 207
GlifName: dcaron
Width: 642
GlyphClass: 2
Flags: MW
HStem: -8 21G<181.5 256.5> 0 42<371 371> 430 50<238 265 235 301> 675 20G<372 435 435 435> 714 20G<493 571 571 571>
VStem: 46 65<162.5 302.5> 371 64<0 42 42 47 141 352 352 368> 493 78<669 734 669 734 669 734>
LayerCount: 2
Fore
SplineSet
46 236 m 0xbf
 46 369 129 480 235 480 c 1
 235 480 l 1
 235 480 l 1
 295 480 338 451 372 410 c 1
 372 695 l 1
 435 695 l 1
 435 0 l 1
 371 0 l 1
 371 42 l 2x7f
 371 52 370 63 370 73 c 1
 336 23 285 -8 228 -8 c 0
 135 -8 46 89 46 236 c 0xbf
111 236 m 0
 111 73 207 42 260 42 c 0
 331 42 365 105 369 121 c 0
 371 127 371 134 371 141 c 2
 371 352 l 2
 371 384 331 430 271 430 c 0
 205 430 111 391 111 236 c 0
493 581 m 1
 517 655 l 1
 493 655 l 1
 493 734 l 1
 571 734 l 1
 571 669 l 2
 569 643 562 641 532 581 c 1
 493 581 l 1
EndSplineSet
Validated: 5
EndChar

StartChar: Dcroat
Encoding: 366 272 208
GlifName: D_croat
Width: 746
GlyphClass: 2
Flags: MW
HStem: 0 53<168 336 336 349> 315 51<-12 99 -12 99 168 367> 641 54<168 336 168 168>
VStem: 99 69<53 53 53 315 366 641> 619 69<342 342 342 402.5 342 342>
LayerCount: 2
Fore
SplineSet
-12 315 m 1
 -12 366 l 1
 99 366 l 1
 99 695 l 1
 348 695 l 1
 375 695 l 2
 544 695 688 533 688 342 c 0
 688 139 536 0 349 0 c 2
 99 0 l 1
 99 315 l 1
 -12 315 l 1
168 53 m 1
 336 53 l 2
 562 53 619 223 619 342 c 1
 619 342 l 1
 619 342 l 1
 619 463 564 641 336 641 c 2
 168 641 l 1
 168 366 l 1
 367 366 l 1
 367 315 l 1
 168 315 l 1
 168 53 l 1
EndSplineSet
Validated: 5
EndChar

StartChar: dcroat
Encoding: 367 273 209
GlifName: dcroat
Width: 517
GlyphClass: 2
Flags: MW
HStem: -8 21G<182 256.5> 0 42<371 371> 430 50<240 265 235 299.5> 558 51<176 372 176 372 435 549> 675 20G<372 435 435 435>
VStem: 46 65<219.5 302.5> 371 64<0 42 42 47 134 352 352 369.5>
LayerCount: 2
Fore
SplineSet
46 236 m 0xbe
 46 369 129 480 235 480 c 1
 235 480 l 1
 235 480 l 1
 295 480 338 451 372 410 c 1
 372 558 l 1
 176 558 l 1
 176 609 l 1
 372 609 l 1
 372 695 l 1
 435 695 l 1
 435 609 l 1
 549 609 l 1
 549 558 l 1
 435 558 l 1
 435 0 l 1
 371 0 l 1
 371 42 l 2x7e
 371 52 370 63 370 73 c 1
 336 23 285 -8 228 -8 c 0
 136 -8 46 89 46 236 c 0xbe
111 236 m 0
 111 203 114 176 121 153 c 0
 147 62 218 42 260 42 c 0
 330 42 371 105 371 134 c 2
 371 352 l 2
 371 387 327 430 272 430 c 0
 208 430 111 393 111 236 c 0
EndSplineSet
Validated: 5
EndChar

StartChar: hbar
Encoding: 388 295 230
GlifName: hbar
Width: 579
GlyphClass: 2
Flags: MW
HStem: 0 21G<142 207 142 142 433 498 433 433> 430 50<310.5 365.5> 533 51<26 142 26 142 206 353> 675 20G<142 206 206 206>
VStem: 142 64<378 533 378 533 378 533 584 695> 433 65<0 311 311 315 0 347>
LayerCount: 2
Fore
SplineSet
26 533 m 1
 26 584 l 1
 142 584 l 1
 142 695 l 1
 206 695 l 1
 206 584 l 1
 353 584 l 1
 353 533 l 1
 206 533 l 1
 206 378 l 1
 221 413 266 480 355 480 c 0
 495 480 498 374 498 315 c 1
 498 315 l 1
 498 0 l 1
 433 0 l 1
 433 311 l 2
 433 383 410 430 321 430 c 0
 231 430 212 334 208 300 c 0
 207 288 207 275 207 262 c 2
 207 0 l 1
 142 0 l 1
 142 533 l 1
 26 533 l 1
EndSplineSet
Validated: 5
EndChar

StartChar: dotlessi
Encoding: 398 305 240
GlifName: dotlessi
Width: 225
GlyphClass: 2
Flags: HMW
HStem: 0 21G<80 80 80 143> 452 20G<80 143 143 143>
VStem: 80 63<0 472 0 472>
AnchorPoint: "top_550" 110 550 basechar 0
LayerCount: 2
Fore
SplineSet
80 0 m 1
 80 472 l 1
 145 472 l 1
 145 0 l 1
 80 0 l 1
EndSplineSet
Validated: 1
Colour: ffff00
EndChar

StartChar: kgreenlandic
Encoding: 405 312 247
GlifName: kgreenlandic
Width: 487
GlyphClass: 2
Flags: MW
HStem: 0 21G<80 144 389.349 472> 452 20G<350.176 449> 675 20G<80 145>
VStem: 80 65<0 165 245 695>
LayerCount: 2
Fore
SplineSet
80 0 m 1
 80 432 l 5
 145 472 l 1
 145 245 l 1
 370 472 l 1
 449 472 l 1
 272 294 l 1
 472 0 l 1
 403 0 l 1
 231 252 l 1
 144 165 l 1
 144 0 l 1
 80 0 l 1
EndSplineSet
Validated: 1
EndChar

StartChar: Lslash
Encoding: 414 321 256
GlifName: L_slash
Width: 654
GlyphClass: 2
Flags: MW
HStem: 0 53<255 609 255 609> 675 20G<185 255 255 255>
VStem: 185 70<53 297 297 297 425 695>
LayerCount: 2
Fore
SplineSet
80 279 m 1
 185 366 l 1
 185 695 l 1
 255 695 l 1
 255 425 l 1
 396 544 l 1
 430 503 l 1
 255 356 l 1
 255 53 l 1
 609 53 l 1
 609 0 l 1
 185 0 l 1
 185 297 l 1
 114 238 l 1
 80 279 l 1
EndSplineSet
Validated: 1
EndChar

StartChar: lslash
Encoding: 415 322 257
GlifName: lslash
Width: 314
GlyphClass: 2
Flags: MW
HStem: 0 21G<124 187 124 124> 675 20G<124 187 187 187>
VStem: 124 63<0 302 302 302 421 695>
LayerCount: 2
Fore
SplineSet
24 284 m 1
 124 368 l 1
 124 695 l 1
 187 695 l 1
 187 421 l 1
 267 488 l 1
 299 450 l 1
 187 355 l 1
 187 0 l 1
 124 0 l 1
 124 302 l 1
 56 245 l 1
 24 284 l 1
EndSplineSet
Validated: 1
EndChar

StartChar: Eng
Encoding: 423 330 265
GlifName: E_ng
Width: 775
GlyphClass: 2
Flags: MW
HStem: -17 52<530.5 586 501.5 597> 0 21G<98 98 98 168> 675 20G<98 168 168 168> 679 65<352.5 471.5>
VStem: 98 70<0 479 639 695> 647 69<137 155 155 156.5>
LayerCount: 2
Fore
SplineSet
98 0 m 1x5c
 98 695 l 1
 168 695 l 1x6c
 168 639 l 1
 221 695 297 744 408 744 c 0
 576 744 716 627 716 451 c 2
 716 155 l 2
 716 18 633 -17 561 -17 c 0
 500 -17 450 3 410 25 c 1
 421 88 l 1
 431 78 468 35 535 35 c 0x9c
 637 35 647 121 647 153 c 0
 647 160 646 165 646 165 c 1
 646 448 l 2
 646 588 537 679 406 679 c 0
 273 679 168 581 168 479 c 2
 168 0 l 1
 98 0 l 1x5c
EndSplineSet
Validated: 1
EndChar

StartChar: eng
Encoding: 424 331 266
GlifName: eng
Width: 517
GlyphClass: 2
Flags: MW
HStem: -175 53<279.5 306 269.5 343> 0 21G<80 80 80 145 435 435> 430 42 460 20G<252 362.5>
VStem: 80 62<375 472 375 472 375 472> 372 63<-47 -13.5>
LayerCount: 2
Fore
SplineSet
80 0 m 1xec
 80 472 l 1
 142 472 l 1xec
 142 375 l 1
 165 426 212 480 292 480 c 0xdc
 433 480 435 372 435 315 c 1
 435 315 l 1
 435 262 l 1
 435 0 l 2
 435 -94 380 -175 306 -175 c 0
 253 -175 208 -157 185 -146 c 1
 208 -95 l 1
 232 -109 252 -122 287 -122 c 0
 325 -122 372 -94 372 -20 c 0
 372 -7 371 40 371 47 c 2
 371 310 l 1
 371 310 371 372 348 398 c 0
 331 418 296 430 262 430 c 0
 167 430 145 339 145 257 c 2
 145 0 l 1
 80 0 l 1xec
EndSplineSet
Validated: 5
EndChar

StartChar: OE
Encoding: 431 338 273
GlifName: O_E_
Width: 1008
GlyphClass: 2
Flags: MW
HStem: -17 51<283 402> 0 34 0 56<552 565 565 964> 335 53<552 920 552 920> 641 54<552 949 552 552> 661 50<285 389 269 420>
VStem: 16 69<276.5 439 276.5 447> 483 69<240 335 388 450 450 532>
LayerCount: 2
Fore
SplineSet
16 346 m 0x9b
 16 548 156.671469741 711 323 711 c 0x97
 396.333333333 711 451 688 483 667 c 1
 483 695 l 1
 949 695 l 1
 949 641 l 1
 552 641 l 1
 552 388 l 1
 920 388 l 1
 920 335 l 1
 552 335 l 1
 552 56 l 1
 964 56 l 1x3b
 964 0 l 1
 483 0 l 1
 483 26 l 1
 444.25210084 4 402.875946471 -17 324 -17 c 0
 145.553424967 -17 16 152.184816709 16 346 c 0x9b
85 360 m 0
 85 193 182.028268551 34 328 34 c 0
 416 34 452 56 483 76 c 1
 483 613 l 1
 452 633 403 661 327 661 c 0
 186.262411348 661 85 518 85 360 c 0
EndSplineSet
Validated: 1
EndChar

StartChar: oe
Encoding: 432 339 274
GlifName: oe
Width: 817
GlyphClass: 2
Flags: MW
HStem: -8 50<223.5 275.5 629 667.5> 250 40<474 730 474 785 469 730> 434 50<224 284 583.5 620.5>
VStem: 40 62<167.5 303.5> 405 64<173 250 173 320>
LayerCount: 2
Fore
SplineSet
40 238 m 0
 40 369 132 484 254 484 c 0
 346 484 408 421 436 370 c 1
 463 419 524 484 613 484 c 0
 681 484 785 446 785 250 c 1
 469 250 l 1
 469 96 565 42 629 42 c 1
 629 42 l 1
 629 42 l 1
 707 42 753 86 776 111 c 1
 781 56 l 1
 752 30 707 -8 628 -8 c 0
 584 -8 500 6 437 109 c 1
 382 9 297 -8 254 -8 c 0
 141 -8 40 97 40 238 c 0
102 244 m 0
 102 84 193 42 254 42 c 0
 314 42 405 83 405 244 c 0
 405 396 314 434 254 434 c 0
 194 434 102 396 102 244 c 0
474 290 m 1
 730 290 l 1
 728 301 727 311 725 322 c 0
 704 426 628 434 613 434 c 0
 554 434 491 380 474 290 c 1
EndSplineSet
Validated: 5
EndChar

StartChar: longs
Encoding: 474 383 316
GlifName: longs
Width: 321
GlyphClass: 2
Flags: MW
HStem: 0 21G<113 113 113 177> 652 51<257.5 295>
VStem: 113 64<0 536 536 536>
LayerCount: 2
Fore
SplineSet
113 0 m 1
 113 536 l 2
 114 567 110 618 167 665 c 0
 195 688 231 703 279 703 c 0
 315 703 345 698 363 695 c 1
 363 638 l 1
 334 647 312 652 278 652 c 0
 237 652 177 638 177 580 c 2
 177 0 l 1
 113 0 l 1
EndSplineSet
Validated: 1
EndChar

StartChar: uni0180
Encoding: 475 384 317
GlifName: uni0180
Width: 517
GlyphClass: 2
Flags: MW
HStem: -8 50<235.5 276 215 327> 0 21G<80 145 80 80> 430 50<222.5 343> 533 51<9 80 9 80 144 291> 675 20G<80 144 144 144>
VStem: 80 66 405 64<167.5 305 167.5 319>
LayerCount: 2
Fore
SplineSet
9 533 m 1x7e
 9 584 l 1
 80 584 l 1
 80 695 l 1
 144 695 l 1
 144 584 l 1
 291 584 l 1
 291 533 l 1
 144 533 l 1
 144 405 l 1
 203 476 268 480 294 480 c 0
 392 480 469 372 469 238 c 0
 469 97 380 -8 274 -8 c 0xbe
 197 -8 157 50 145 66 c 1
 145 0 l 1
 80 0 l 1
 80 533 l 1
 9 533 l 1x7e
145 131 m 2
 145 90 186 42 244 42 c 0
 308 42 405 80 405 236 c 0
 405 402 307 430 255 430 c 0
 190 430 152 378 146 362 c 0
 144 356 145 349 145 343 c 2
 145 131 l 2
EndSplineSet
Validated: 1
EndChar

StartChar: uni0182
Encoding: 476 386 318
GlifName: uni0182
Width: 871
GlyphClass: 2
Flags: MW
HStem: -17 51<579 641 579 673> 0 21G<327 397 327 327 470 470> 439 50<554 648> 641 54<37 686 37 327 397 397 397 686>
VStem: 327 70<0 264 369 641> 768 64<215.5 229.5>
LayerCount: 2
Fore
SplineSet
37 641 m 1x7c
 37 695 l 1
 686 695 l 1
 686 641 l 1
 397 641 l 1
 397 369 l 1
 421 413 487 489 621 489 c 0
 820 489 832 384 832 312 c 2
 832 231 l 2
 832 200 832 183 825 153 c 0
 806 77 738 -17 608 -17 c 0xbc
 537 -17 501 -7 470 0 c 1x7c
 485 57 l 1
 521 44 549 34 609 34 c 0xbc
 673 34 768 58 768 224 c 0
 768 235 767 246 767 257 c 2
 767 302 l 2
 767 307 768 311 768 316 c 0
 768 390 724 439 572 439 c 0
 459 439 407 362 398 300 c 0
 397 288 397 276 397 264 c 2
 397 0 l 1
 327 0 l 1
 327 641 l 1
 37 641 l 1x7c
EndSplineSet
Validated: 1
EndChar

StartChar: uni0186
Encoding: 477 390 319
GlifName: uni0186
Width: 671
GlyphClass: 2
Flags: MW
HStem: -16 53<244.5 358 244.5 384.5> 659 53<232.5 363.5>
VStem: 547 70<259.5 429>
LayerCount: 2
Fore
SplineSet
617 348 m 0
 617 159 484 -16 285 -16 c 0
 198 -16 139 2 92 18 c 1
 105 87 l 1
 161 57 203 37 286 37 c 0
 430 37 547 171 547 348 c 0
 547 510 442 659 285 659 c 0
 178 659 140 631 86 598 c 1
 81 656 l 1
 139 689 180 712 285 712 c 0
 484 712 617 537 617 348 c 0
EndSplineSet
Validated: 1
EndChar

StartChar: uni0188
Encoding: 478 392 320
GlifName: uni0188
Width: 525
GlyphClass: 2
Flags: MW
HStem: -8 52<218.5 303> 433 52<219.5 267> 616 51<498.5 526>
VStem: 46 65<180 297.5 180 297.5> 381 50<466 524 524 525>
LayerCount: 2
Fore
SplineSet
46 237 m 0
 46 358 127 485 269 485 c 0
 309 485 339 482 381 466 c 1
 381 524 l 2
 381 526 380 528 380 531 c 0
 380 610 426 667 504 667 c 0
 548 667 572 651 597 630 c 1
 579 577 l 1
 568 589 549 616 503 616 c 0
 494 616 483 614 472 610 c 0
 451 601 431 580 431 531 c 2
 431 441 l 1
 427 423 423 405 421 387 c 1
 388 406 l 2
 356 424 324 432 267 433 c 0
 172 433 111 357 111 238 c 0
 111 122 172 44 265 44 c 0
 355 44 403 87 432 111 c 1
 437 55 l 1
 393 20 341 -8 265 -8 c 0
 135 -8 46 108 46 237 c 0
EndSplineSet
Validated: 1
EndChar

StartChar: uni0189
Encoding: 479 393 321
GlifName: uni0189
Width: 746
GlyphClass: 2
Flags: MW
HStem: 0 53<168 336 336 349> 315 51<-12 99 -12 99 168 367> 641 54<168 336 168 168>
VStem: 99 69<53 53 53 315 366 641> 619 69<342 342 342 402.5 342 342>
LayerCount: 2
Fore
SplineSet
-12 315 m 1
 -12 366 l 1
 99 366 l 1
 99 695 l 1
 348 695 l 1
 375 695 l 2
 544 695 688 533 688 342 c 0
 688 139 536 0 349 0 c 2
 99 0 l 1
 99 315 l 1
 -12 315 l 1
168 53 m 1
 336 53 l 2
 562 53 619 223 619 342 c 1
 619 342 l 1
 619 342 l 1
 619 463 564 641 336 641 c 2
 168 641 l 1
 168 366 l 1
 367 366 l 1
 367 315 l 1
 168 315 l 1
 168 53 l 1
EndSplineSet
Validated: 5
EndChar

StartChar: uni018E
Encoding: 480 398 322
GlifName: uni018E_
Width: 625
GlyphClass: 2
Flags: MW
HStem: 0 56<98 511 98 511 98 581> 334 53<142 511 142 511> 640 53<113 511 113 581>
VStem: 511 70<56 334 334 334 387 640 640 640>
LayerCount: 2
Fore
SplineSet
98 0 m 1
 98 56 l 1
 511 56 l 1
 511 334 l 1
 142 334 l 1
 142 387 l 1
 511 387 l 1
 511 640 l 1
 113 640 l 1
 113 693 l 1
 581 693 l 1
 581 0 l 1
 98 0 l 1
EndSplineSet
Validated: 1
EndChar

StartChar: uni018F
Encoding: 481 399 323
GlifName: uni018F_
Width: 700
GlyphClass: 2
Flags: MW
HStem: -17 52<288 366 238.5 427.5> 285 48<95 95 95 574> 658 53
VStem: 29 66<248 333> 578 68<333 412.5>
LayerCount: 2
Fore
SplineSet
29 333 m 1
 578 333 l 1
 578 492 495 658 326 658 c 0
 209 658 185 645 99 608 c 1
 87 677 l 1
 197 708 214 710 340 711 c 0
 489 708 646 572 646 343 c 0
 646 122 521 -17 334 -17 c 0
 242 -17 137 16 77 120 c 0
 47 172 29 241 29 333 c 1
95 285 m 1
 95 211 144 35 333 35 c 0
 399 35 546 65 574 285 c 1
 95 285 l 1
EndSplineSet
Validated: 1
EndChar

StartChar: uni0190
Encoding: 482 400 324
GlifName: uni0190
Width: 583
GlyphClass: 2
Flags: MW
HStem: -17 53<214 349.5> 336 50<214 378 306 378 306 378> 658 53<265.5 315>
VStem: 43 66<157 216.5 157 263> 72 37 72 65<496 577.5 496 607.5>
LayerCount: 2
Fore
SplineSet
43 185 m 0xe8
 43 341 201 359 220 363 c 1
 140 377 72 429 72 524 c 0
 72 691 205 711 316 711 c 0
 397 711 451 700 518 677 c 1
 506 608 l 1
 468 627 l 2
 429 646 384 657 315 658 c 0
 216 658 137 631 137 524 c 0xe4
 137 468 159 386 306 386 c 2
 378 386 l 1
 378 336 l 1
 293 336 l 2
 135 336 109 246 109 187 c 0
 109 127 135 36 293 36 c 0
 417 36 451 61 525 97 c 1
 530 39 l 1
 452 2 410 -17 289 -17 c 0
 81 -17 43 106 43 185 c 0xe8
EndSplineSet
Validated: 1
EndChar

StartChar: florin
Encoding: 483 402 325
GlifName: florin
Width: 650
GlyphClass: 2
Flags: MW
HStem: -175 53<110 149.5 108 173> 422 50<250 324 238 334 396 510> 652 51<527 555>
LayerCount: 2
Fore
SplineSet
18 -146 m 1
 46 -95 l 1
 70 -113 92 -122 124 -122 c 0
 175 -122 214 -98 224 -52 c 2
 324 422 l 1
 238 422 l 1
 250 472 l 1
 334 472 l 1
 350 542 l 2
 357 574 359 582 368 598 c 0
 387 631 439 703 550 703 c 0
 586 703 616 697 632 695 c 1
 620 638 l 1
 594 647 572 652 538 652 c 0
 516 652 498 649 483 644 c 0
 434 628 424 606 418 576 c 2
 396 472 l 1
 522 472 l 1
 510 422 l 1
 388 422 l 1
 359 289 330 156 302 23 c 0
 294 -12 292 -58 272 -91 c 0
 260 -116 212 -175 134 -175 c 0
 86 -175 51 -164 18 -146 c 1
EndSplineSet
Validated: 1
EndChar

StartChar: uni0195
Encoding: 484 405 326
GlifName: uni0195
Width: 738
GlyphClass: 2
Flags: MW
HStem: -8 50<531.5 606.5> 0 21G<80 80 80 145> 430 50<248 272> 675 20G<80 143 143 143>
VStem: 80 64<266 327.5 378 385 266 695> 372 64<283 289 289 301 301 311 278.5 325> 648 82<183 457.5> 666 64<225.5 345.5>
LayerCount: 2
Fore
SplineSet
80 0 m 1x7e
 80 695 l 1
 144 695 l 1
 144 378 l 1
 160 413 203 480 293 480 c 0
 435 480 436 373.494252874 436 316 c 2
 436 187 l 2
 436 97 458 42 548 42 c 0
 638 42 664 97 664 187 c 2xbd
 664 464 l 1
 728 464 l 1
 728 187 l 2
 728 37 656.791208791 -8 548 -8 c 0xbe
 436.735632184 -8 372 37 372 187 c 2
 372 316 l 2
 372 386.047768934 343.799986861 430 259 430 c 0
 203 430 144 386 144 269 c 2
 144 0 l 1
 80 0 l 1x7e
EndSplineSet
Validated: 1
EndChar

StartChar: uni0199
Encoding: 485 409 327
GlifName: uni0199
Width: 487
GlyphClass: 2
Flags: MW
HStem: 0 21G<82 82 82 141 400 400 400 469> 452 20G<367 446 446 446> 661 50<272.5 327.5 272.5 331>
VStem: 82 60<245 548 548 548>
LayerCount: 2
Fore
SplineSet
82 0 m 1
 82 548 l 2
 83 580 83 632 160 677 c 0
 201 701 249 711 296 711 c 0
 359 711 398 696 446 661 c 1
 427 609 l 1
 396 634 367 661 295 661 c 0
 239 661 142 639 142 551 c 2
 142 245 l 1
 367 472 l 1
 446 472 l 1
 269 294 l 1
 469 0 l 1
 400 0 l 1
 228 252 l 1
 141 165 l 1
 141 0 l 1
 82 0 l 1
EndSplineSet
Validated: 1
EndChar

StartChar: uni019A
Encoding: 486 410 328
GlifName: uni019A_
Width: 408
GlyphClass: 2
Flags: MW
HStem: 0 21G<171 235 171 171> 362 50<55 171 55 171 235 351> 675 20G<171 235 235 235>
VStem: 171 64<0 362 0 362 412 695>
LayerCount: 2
Fore
SplineSet
55 362 m 1
 55 412 l 1
 171 412 l 1
 171 695 l 1
 235 695 l 1
 235 412 l 1
 351 412 l 1
 351 362 l 1
 235 362 l 1
 235 0 l 1
 171 0 l 1
 171 362 l 1
 55 362 l 1
EndSplineSet
Validated: 1
EndChar

StartChar: uni019B
Encoding: 487 411 329
GlifName: uni019B_
Width: 554
GlyphClass: 2
Flags: MW
HStem: -8 21G<74.5 90.5 456.5 465 465 515> 675 20G<10.5 79>
LayerCount: 2
Fore
SplineSet
-18 669 m 0
 -18 693 3 695 18 695 c 0
 140 695 143 652 169 611 c 2
 185 581 l 1
 233 491 l 1
 273 513 314 534 354 556 c 1
 381 505 l 1
 262 440 l 1
 464 67 l 2
 481 35 489 17 515 -8 c 1
 465 -8 l 2
 448 -8 429 -6 402 45 c 2
 266 298 l 1
 217 205 168 112 121 19 c 0
 109 -5 100 -5 97 -7 c 0
 93 -8 91 -8 90 -8 c 0
 59 -8 55 21 55 22 c 0
 55 36 62 44 88 93 c 1
 88 93 l 1
 137 180 185 268 234 355 c 1
 205 409 l 1
 165 387 125 366 85 344 c 1
 57 396 l 1
 177 460 l 1
 106 591 94 617 81 627 c 0
 43 657 -18 627 -18 669 c 0
EndSplineSet
Validated: 1
EndChar

StartChar: uni019E
Encoding: 488 414 330
GlifName: uni019E_
Width: 487
GlyphClass: 2
Flags: MW
HStem: -167 21G<371 436 371 371> 0 21G<80 80 80 145> 430 42 460 20G<248.5 364>
VStem: 80 62<375 472 375 472 375 472> 371 65<-167 309 309 313 -167 341.5>
LayerCount: 2
Fore
SplineSet
80 0 m 1xec
 80 472 l 1
 142 472 l 1xec
 142 375 l 1
 159 414 203 480 294 480 c 0xdc
 434 480 436 371 436 313 c 2
 436 -167 l 1
 371 -167 l 1
 371 309 l 2
 371 374 358 430 259 430 c 0
 186 430 144 364 144 270 c 0
 144 268 144 265 145 262 c 2
 145 0 l 1
 80 0 l 1xec
EndSplineSet
Validated: 1
EndChar

StartChar: uni019F
Encoding: 489 415 331
GlifName: uni019F_
Width: 817
GlyphClass: 2
Flags: W
HStem: -17 52<301.881 513.662> 325 46<184 632> 661 50<305.109 512.528>
VStem: 58 67<226.598 465.247> 691 67<226.687 467.526>
LayerCount: 2
Fore
SplineSet
58 346 m 0
 58 531 198 711 408 711 c 0
 596 711 758 553 758 346 c 0
 758 145 601 -17 408 -17 c 0
 223 -17 58 138 58 346 c 0
125 346 m 0
 125 178 237 35 408 35 c 1
 573 35 691 172 691 346 c 1
 691 523 572 661 408 661 c 0
 251 661 125 530 125 346 c 0
184 325 m 1
 184 371 l 1
 632 371 l 1
 632 325 l 1
 184 325 l 1
EndSplineSet
Validated: 1
EndChar

StartChar: Ohorn
Encoding: 490 416 332
GlifName: O_horn
Width: 783
GlyphClass: 2
Flags: MW
HStem: -17 53<354 456.5 354 482.5> 659 52<325 391 391 391 391 391> 659 113 674 20G<565 588 565 565 643 643>
VStem: 58 70<312 446.5> 565 78<694 772 694 772> 654 70<256.5 437 245 451>
LayerCount: 2
Fore
SplineSet
58 346 m 0x9e
 58 547 207 711 391 711 c 0xce
 436 711 500 699 555 664 c 1
 588 694 l 1
 565 694 l 1x9e
 565 772 l 1
 643 772 l 1xae
 643 694 l 1
 581 646 l 1
 615 618 724 528 724 346 c 0
 724 144 574 -17 391 -17 c 0
 215 -17 58 136 58 346 c 0x9e
128 359 m 0
 128 265 156 185 204 127 c 1
 204 127 l 1
 251 70 317 36 391 36 c 0
 522 36 654 154 654 359 c 0
 654 543 534 659 391 659 c 1
 391 659 l 1
 391 659 l 1
 259 659 128 554 128 359 c 0
EndSplineSet
Validated: 5
EndChar

StartChar: ohorn
Encoding: 491 417 333
GlifName: ohorn
Width: 525
GlyphClass: 2
Flags: MW
HStem: -8 52<230.5 293.5 230.5 324.5> 434 50<254 287 254 293.5> 434 116<230.5 477> 452 20G<399 422 399 399 477 477>
VStem: 40 65<164.5 293.5> 399 78<472 550 472 550> 419 58
LayerCount: 2
Fore
SplineSet
40 236 m 0x9c
 40 351 113 455 216 479 c 0
 231 482 246 484 262 484 c 0xca
 312 484 355 466 387 440 c 1
 422 472 l 1
 399 472 l 1x9c
 399 550 l 1
 477 550 l 1xac
 477 472 l 1
 411 420 l 1
 462 367 484 300 484 236 c 0
 484 103 388 -8 261 -8 c 0
 147 -8 40 92 40 236 c 0x9c
105 245 m 0
 105 84 199 44 262 44 c 0
 325 44 419 84 419 245 c 0
 419 396 325 434 262 434 c 0
 199 434 105 397 105 245 c 0
EndSplineSet
Validated: 1
EndChar

StartChar: uni01A5
Encoding: 492 421 334
GlifName: uni01A_5
Width: 487
GlyphClass: 2
Flags: MW
HStem: -167 21G<51 51 51 116> -8 50<206 246 185.5 298.5> 430 50<192.5 313.5> 661 50<239 311>
VStem: 51 65<-167 66 142.5 145 145 343> 375 65<168 305 168 318.5>
LayerCount: 2
Fore
SplineSet
51 -167 m 1
 51 489 l 1
 51 554 l 2
 51 650 156 711 279 711 c 0
 375 711 414 675 440 661 c 1
 421 609 l 1
 375 644 343 661 279 661 c 0
 199 661 114 626 114 548 c 0
 114 500 115 453 115 405 c 1
 170 477 246 480 264 480 c 0
 363 480 440 372 440 238 c 0
 440 98 352 -8 245 -8 c 0
 167 -8 128 49 116 66 c 1
 116 -167 l 1
 51 -167 l 1
115 130 m 0
 115 90 157 42 214 42 c 0
 278 42 375 81 375 236 c 0
 375 401 277 430 225 430 c 0
 160 430 122 378 117 362 c 0
 115 356 116 349 116 343 c 2
 116 145 l 2
 116 140 115 135 115 130 c 0
EndSplineSet
Validated: 1
EndChar

StartChar: uni01A7
Encoding: 493 423 335
GlifName: uni01A_7
Width: 583
GlyphClass: 2
Flags: MW
HStem: -17 57<227.5 326 227.5 330.5> 656 55<235 276 276 276>
VStem: 46 63<146 205 146 221> 449 63<498 557.5>
LayerCount: 2
Fore
SplineSet
46 177 m 0
 46 274 84.6624635573 347.948520225 188 374 c 2
 307 404 l 2
 395.659385167 426.351105504 449 466 449 530 c 0
 449 604.260139809 372.823528942 656 286 656 c 1
 188.888888889 656 121.333333333 611 96 594 c 1
 84 663 l 1
 147.125 694 199.729166667 711 286 711 c 0
 422.940677966 711 512 623.867724868 512 532 c 0
 512 462 495.461317494 387.422749351 372 359 c 2
 233 327 l 2
 144.995652796 306.740006399 109 255.661764706 109 180 c 0
 109 94 173 40 282 40 c 0
 391.731993765 40 458.075713052 82.3067847887 511 122 c 1
 524 53 l 1
 460 14 379 -17 282 -17 c 0
 141 -17 46 57.1470588235 46 177 c 0
EndSplineSet
Validated: 1
EndChar

StartChar: uni01A8
Encoding: 494 424 336
GlifName: uni01A_8
Width: 402
GlyphClass: 2
Flags: MW
HStem: -8 52<154.5 240.5 154.5 244> 435 50<178.5 252>
VStem: 29 58<109.5 130.5 109.5 167> 314 58<319.5 375>
LayerCount: 2
Fore
SplineSet
29 120 m 0
 29 220.136479297 96.4158764364 248.863123997 151 266 c 2
 237 293 l 2
 272.292893369 304.080326988 314 324.688676191 314 360 c 0
 314 390 295 435 209 435 c 0
 148 435 112 424 57 396 c 1
 47 451 l 1
 104 476 141 485 200 485 c 0
 342 485 372 411.015037594 372 362 c 0
 372 283.755966387 314.892712637 256.942200047 271 242 c 2
 177 210 l 2
 135.356456928 195.823474699 87 178.387492163 87 119 c 0
 87 88.8170731707 109 44 200 44 c 0
 281 44 334 74 368 97 c 1
 378 39 l 1
 351 24 289 -8 199 -8 c 0
 60 -8 29 58.8 29 120 c 0
EndSplineSet
Validated: 1
EndChar

StartChar: uni01A9
Encoding: 495 425 337
GlifName: uni01A_9
Width: 758
GlyphClass: 2
Flags: MW
HStem: 0 56<177 699 177 699> 641 54<58 699 148 148 148 699>
LayerCount: 2
Fore
SplineSet
58 0 m 1
 297 340 l 1
 58 641 l 1
 58 695 l 1
 699 695 l 1
 699 641 l 1
 148 641 l 1
 380 348 l 1
 177 56 l 1
 699 56 l 1
 699 0 l 1
 58 0 l 1
EndSplineSet
Validated: 1
EndChar

StartChar: uni01AA
Encoding: 496 426 338
GlifName: uni01A_A_
Width: 367
GlyphClass: 2
Flags: MW
HStem: -184 51<270.5 321 270.5 325.5> 511 50<93.5 117.5> 661 50<90 112 79 121.5>
VStem: -8 55<594.5 625 594.5 642> 157 67
LayerCount: 2
Fore
SplineSet
-8 611 m 0
 -8 673 51 711 107 711 c 0
 117 711 130 709 143 705 c 0
 182 692 224 655 224 572 c 2
 224 509 l 1
 224 -62 l 2
 226 -86 244 -133 297 -133 c 0
 345 -133 365 -103 377 -87 c 1
 396 -139 l 1
 381 -154 356 -184 295 -184 c 0
 244 -184 161 -155 161 -42 c 2
 161 525 l 1
 145 517 129 511 106 511 c 0
 53 511 -8 548 -8 611 c 0
47 611 m 0
 47 578 81 561 106 561 c 0
 139 561 157 594 157 609 c 0
 157 625 137 661 106 661 c 0
 74 661 47 639 47 611 c 0
EndSplineSet
Validated: 1
EndChar

StartChar: uni01AB
Encoding: 497 427 339
GlifName: uni01A_B_
Width: 408
GlyphClass: 2
Flags: MW
HStem: -184 51<202.5 236.5 202.5 239> -8 52<205.5 212> 422 50<19 115 19 114 176 331> 587 20G<115 176 176 176>
VStem: 115 61<472 607> 297 52<-48.5 -35 -35 10 10 10>
LayerCount: 2
Fore
SplineSet
19 422 m 1
 19 472 l 1
 115 472 l 1
 115 607 l 1
 176 607 l 1
 176 472 l 1
 331 472 l 1
 331 422 l 1
 176 422 l 1
 176 115 l 2
 176 93.1538461538 182.805194805 44 233 44 c 0
 286.203883495 44 341.116504854 67.4390243902 349 75 c 1
 349 -35 l 0
 349 -131.717424417 291.993455186 -184 227 -184 c 0
 168 -184 143 -154 129 -139 c 1
 149 -87 l 1
 161 -107 179 -133 226 -133 c 0
 277.715108322 -133 297 -89.8448616594 297 -52 c 2
 297 5 l 1
 268.793814433 -4.38888888889 242.81443299 -8 225 -8 c 0
 123.018235728 -8 114 66.8332905421 114 145 c 2
 114 422 l 1
 19 422 l 1
EndSplineSet
Validated: 1
EndChar

StartChar: uni01AD
Encoding: 498 429 340
GlifName: uni01A_D_
Width: 408
GlyphClass: 2
Flags: MW
HStem: -8 52<205.5 227.5> 422 50<19 115 19 114 176 331> 591 51<256.5 286>
VStem: 115 61<472 491>
LayerCount: 2
Fore
SplineSet
19 422 m 1
 19 472 l 1
 115 472 l 1
 115 491 l 2
 115 593 191 642 264 642 c 0
 312 642 342 629 378 606 c 1
 359 554 l 1
 329 578 307 591 265 591 c 0
 248 591 226 586 208 571 c 0
 190 556 176 531 176 491 c 2
 176 472 l 1
 331 472 l 1
 331 422 l 1
 176 422 l 1
 176 138 l 2
 176 110 178 44 233 44 c 0
 298 44 333 85 336 85 c 2
 349 36 l 1
 307 10 258 -8 197 -8 c 0
 117 -8 114 88 114 131 c 2
 114 173 l 1
 114 422 l 1
 19 422 l 1
EndSplineSet
Validated: 1
EndChar

StartChar: Uhorn
Encoding: 499 431 341
GlifName: U_horn
Width: 736
GlyphClass: 2
Flags: MW
HStem: -17 53<309.5 379.5 309.5 404.5> 675 20G<98 168 168 168 528 593 593 593> 690 20G<635 635 635 659> 768 20G<635 714 714 714>
VStem: 98 70<247 695> 528 65<240 242 242 695> 635 79<734 739 739 788 734 788>
LayerCount: 2
Fore
SplineSet
98 247 m 2xde
 98 695 l 1
 168 695 l 1
 168 237 l 2
 168 77 272 36 347 36 c 0
 412 36 528 66 528 240 c 2
 528 695 l 1
 593 695 l 1
 593 242 l 2
 593 70 462 -17 347 -17 c 0
 202 -17 98 98 98 247 c 2xde
635 710 m 1xbe
 635 788 l 1
 714 788 l 1
 714 739 l 2
 714 729 713 720 713 710 c 0
 700 673 688 636 675 599 c 1
 635 599 l 1
 659 710 l 1
 635 710 l 1xbe
EndSplineSet
Validated: 1
EndChar

StartChar: uhorn
Encoding: 500 432 342
GlifName: uhorn
Width: 555
GlyphClass: 2
Flags: MW
HStem: -8 21G<139.5 232> 0 39 0 55 428 21G<462 502 462 462> 442 20G 452 20G<80 145 145 145 371 435 435 435> 597 20G<462 541 541 541>
VStem: 64 131 80 65<133 472> 356 131 371 64<175 472 0 472> 462 79<563 568 568 617 563 617> 504 126
LayerCount: 2
Fore
SplineSet
80 133 m 2x84a0
 80 472 l 1
 145 472 l 1
 145 124 l 2
 145 78 145 39 237 39 c 0
 315 39 371 92 371 175 c 2
 371 472 l 1
 435 472 l 1
 435 0 l 1
 372 0 l 1x44a0
 372 86 l 1
 337 28 268 -8 196 -8 c 0
 83 -8 80 79 80 133 c 2x84a0
462 539 m 1x1210
 462 617 l 1
 541 617 l 1
 541 568 l 2
 541 558 540 549 540 539 c 0
 527 502 515 465 502 428 c 1
 462 428 l 1
 486 539 l 1
 462 539 l 1x1210
EndSplineSet
Validated: 1
EndChar

StartChar: uni01B7
Encoding: 501 439 343
GlifName: uni01B_7
Width: 567
GlyphClass: 2
Flags: MW
HStem: -17 52<215 336.5 194 362> 337 48<267.5 355> 630 65<43 456 43 536 43 536>
VStem: 469 67
LayerCount: 2
Fore
SplineSet
43 157 m 1
 107 163 l 2
 110 160 106 35 282 35 c 0
 391 35 469 88 469 185 c 0
 469 308 359 332 269 337 c 0
 266 337 264 336 261 336 c 2
 181 336 l 1
 181 386 l 1
 456 630 l 1
 43 630 l 1
 43 695 l 1
 536 695 l 1
 536 630 l 1
 261 386 l 1
 261 383 l 1
 270 385 279 385 288 385 c 0
 422 385 539 296 539 184 c 0
 539 89 444 -17 280 -17 c 0
 150 -17 56 35 43 157 c 1
EndSplineSet
Validated: 1
EndChar

StartChar: uni01B9
Encoding: 502 441 344
GlifName: uni01B_9
Width: 450
GlyphClass: 2
Flags: MW
HStem: -175 50<195.5 288.5> 416 56<133 249 133 133 249 364 249 249 364 422>
VStem: 43 65<-29 22.5 -29 50>
LayerCount: 2
Fore
SplineSet
43 11 m 0
 43 89 95 191 209 195 c 1
 166 259 123 323 79 387 c 2
 46 435 l 1
 46 453 l 1
 46 453 l 1
 46 472 l 1
 422 472 l 1
 422 416 l 1
 364 416 l 1
 249 416 l 1
 249 416 l 1
 133 416 l 1
 319 142 l 1
 260 142 l 2
 221 142 157 132 125 78 c 0
 114 60 108 37 108 8 c 0
 108 -66 148 -125 243 -125 c 0
 348 -125 408 -53 413 -50 c 1
 422 -105 l 1
 389 -132 333 -175 244 -175 c 0
 134 -175 43 -97 43 11 c 0
EndSplineSet
Validated: 1
EndChar

StartChar: uni01BA
Encoding: 503 442 345
GlifName: uni01B_A_
Width: 450
GlyphClass: 2
Flags: MW
HStem: -175 50<238.5 295.5 238.5 309> 416 56<43 419 43 90 90 184 184 326>
VStem: 126 60<-103.5 -63.5 -103.5 -19.5>
LayerCount: 2
Fore
SplineSet
43 416 m 1
 43 472 l 1
 419 472 l 1
 419 451 l 1
 417 436 l 1
 403 407 371 376 350 349 c 2
 261 236 l 1
 308 232 375 219 406 178 c 0
 416 164 422 148 422 128 c 0
 422 78 376 50 324 25 c 0
 270 -1 186 -38 186 -89 c 0
 186 -118 210 -125 267 -125 c 0
 324 -125 359 -109 399 -80 c 1
 445 -126 l 1
 395 -155 343 -175 275 -175 c 0
 191 -175 126 -134 126 -73 c 0
 126 34 350 37 362 148 c 1
 355 167 346 189 146 189 c 1
 326 416 l 1
 184 416 l 1
 90 416 l 1
 43 416 l 1
EndSplineSet
Validated: 1
EndChar

StartChar: uni01BF
Encoding: 504 447 346
GlifName: uni01B_F_
Width: 458
GlyphClass: 2
Flags: MW
HStem: -175 21G<81 81> 425 47 457 20G<257.5 306>
VStem: 80 65<352.5 388 352.5 472> 346 64<275 279 279 279>
LayerCount: 2
Fore
SplineSet
80 59 m 2xb8
 80 214 l 1
 80 265 l 1
 80 472 l 1
 143 472 l 1xd8
 143 437 l 1
 212 464 l 2
 243 476 249 477 266 477 c 0
 346 477 410 390 410 280 c 0
 410 161 352 73 252 36 c 1
 144 2 l 1
 144 -105 l 1
 144 -159 l 1
 81 -175 l 1
 81 30 l 2
 81 40 80 49 80 59 c 2xb8
144 52 m 1
 287 91 299 106 316 133 c 1
 316 133 l 1
 345 177 346 253 346 275 c 2
 346 279 l 2
 343 391 290 425 253 425 c 0
 234 425 220 417 145 388 c 1
 145 317 144 247 144 176 c 2
 144 93 l 1
 144 52 l 1
EndSplineSet
Validated: 1
EndChar

StartChar: uni01C0
Encoding: 505 448 347
GlifName: uni01C_0
Width: 292
GlyphClass: 2
Flags: MW
HStem: -167 21G<113 113 113 178> 675 20G<113 178 178 178>
VStem: 113 65<-167 695 -167 695>
LayerCount: 2
Fore
SplineSet
113 -167 m 1
 113 695 l 1
 178 695 l 1
 178 -167 l 1
 113 -167 l 1
EndSplineSet
Validated: 1
EndChar

StartChar: uni01C1
Encoding: 506 449 348
GlifName: uni01C_1
Width: 467
GlyphClass: 2
Flags: MW
HStem: -167 21G<109 109 109 171 295 357 295 295> 675 20G<109 171 171 171 295 357 357 357>
VStem: 109 62<-167 695 -167 695> 295 62<-167 695 -167 695>
LayerCount: 2
Fore
SplineSet
109 -167 m 1
 109 695 l 1
 171 695 l 1
 171 -167 l 1
 109 -167 l 1
295 -167 m 1
 295 695 l 1
 357 695 l 1
 357 -167 l 1
 295 -167 l 1
EndSplineSet
Validated: 1
EndChar

StartChar: uni01C2
Encoding: 507 450 349
GlifName: uni01C_2
Width: 583
GlyphClass: 2
Flags: MW
HStem: -167 21G<259 323 259 259> 151 53<58 259 58 259 323 524> 297 53<58 259 58 259 323 524> 675 20G<259 323 323 323>
VStem: 259 64<-167 151 -167 151 204 297 350 695>
LayerCount: 2
Fore
SplineSet
58 151 m 1
 58 204 l 1
 259 204 l 1
 259 297 l 1
 58 297 l 1
 58 350 l 1
 259 350 l 1
 259 695 l 1
 323 695 l 1
 323 350 l 1
 524 350 l 1
 524 297 l 1
 323 297 l 1
 323 204 l 1
 524 204 l 1
 524 151 l 1
 323 151 l 1
 323 -167 l 1
 259 -167 l 1
 259 151 l 1
 58 151 l 1
EndSplineSet
Validated: 1
EndChar

StartChar: uni01C3
Encoding: 508 451 350
GlifName: uni01C_3
Width: 325
GlyphClass: 2
Flags: MW
HStem: 0 78<123 201 123 201> 675 20G<123 201 201 201>
VStem: 123 78<0 78 0 78>
LayerCount: 2
Fore
SplineSet
123 695 m 1
 201 695 l 1
 193 177 l 1
 131 177 l 1
 123 695 l 1
123 0 m 1
 123 78 l 1
 201 78 l 1
 201 0 l 1
 123 0 l 1
EndSplineSet
Validated: 1
EndChar

StartChar: uni01DD
Encoding: 534 477 376
GlifName: uni01D_D_
Width: 467
GlyphClass: 2
Flags: MW
HStem: -8 50<180 264 165 277> 187 39<87 87 87 358> 434 51<168.5 246.5>
VStem: 39 48 363 60<226 288>
LayerCount: 2
Fore
SplineSet
32 226 m 1
 363 226 l 1
 363 350 291 434 202 434 c 0
 125 434 75 398 39 365 c 1
 35 420 l 1
 80 458 135 485 202 485 c 0
 321 485 423 380 423 237 c 0
 423 109 337 -8 217 -8 c 0
 143 -8 33 31 32 226 c 1
87 187 m 1
 88 149 113 42 217 42 c 0
 311 42 344 137 358 187 c 1
 87 187 l 1
EndSplineSet
Validated: 1
EndChar

StartChar: uni0221
Encoding: 595 545 437
GlifName: uni0221
Width: 575
GlyphClass: 2
Flags: MW
HStem: -125 21G<187 251 187 187> -17 50<493 517.5 493 526.5> -8 21G<179.5 230.5> 129 52<484 498> 430 50<242.5 264.5 183 300> 675 20G<372 435 435 435>
VStem: 46 64<163.5 304> 371 64<165 351 351 369> 552 52<64 85.5>
LayerCount: 2
Fore
SplineSet
46 236 m 0xbf80
 46 372 131 480 235 480 c 0
 294 480 338 451 372 410 c 1
 372 695 l 1
 435 695 l 1
 435 165 l 1
 453 173 472 181 496 181 c 0
 548 181 604 139 604 76 c 0
 604 20 554 -17 499 -17 c 0xdf80
 437 -17 394 27 378 69 c 1
 322 18 277 -76 251 -125 c 1
 187 -125 l 1
 198 -101 231 -40 253 -6 c 1
 244 -7 235 -8 226 -8 c 0
 133 -8 46 91 46 236 c 0xbf80
110 235 m 0
 110 73 206 42 261 42 c 0
 272 42 286 45 289 45 c 0
 321 84 340 104 371 127 c 1
 371 351 l 2
 371 387 328 430 272 430 c 0
 213 430 110 397 110 235 c 0
435 111 m 1
 439 48 482 33 504 33 c 0
 531 33 552 52 552 76 c 0
 552 95 541 111 526 120 c 0
 516 126 504 129 492 129 c 0
 472 129 453 120 435 111 c 1
EndSplineSet
Validated: 1
EndChar

StartChar: uni0225
Encoding: 596 549 438
GlifName: uni0225
Width: 508
GlyphClass: 2
Flags: MW
HStem: -159 51<327.5 377.5 327.5 380> 0 60<125 230> 422 50<44 327 44 420>
LayerCount: 2
Fore
SplineSet
29 0 m 1
 29 29.2857142857 l 0
 29 38.5918367347 29.7142857143 41.2857142857 40 55 c 2
 327 422 l 1
 44 422 l 1
 44 472 l 1
 420 472 l 1
 420 438 l 1
 125 60 l 1
 314 60 l 2
 452.288102054 60 469 1.42129238819 469 -65 c 0
 469 -121 416 -159 344 -159 c 0
 296 -159 268 -149 249 -142 c 1
 258 -92 l 1
 292 -103 311 -108 344 -108 c 0
 405.493150685 -108 408.020266467 -72.620379058 408.020266467 -66.0314150795 c 0
 408.020266467 -3.83752601583 361.476392891 0 290 0 c 2
 29 0 l 1
EndSplineSet
Validated: 1
EndChar

StartChar: uni0235
Encoding: 611 565 453
GlifName: uni0235
Width: 575
GlyphClass: 2
Flags: MW
HStem: -125 21G<196 261 196 196> -17 50<493 515 493 527> 0 21G<80 80 80 145> 129 51<484 507> 430 42 460 20G<247.5 363.5>
VStem: 80 62<375 472 375 472 375 472> 371 64<165 173 173 311 165 314 165 347.5> 552 52<61.5 91.5>
LayerCount: 2
Fore
SplineSet
80 0 m 1xbb80
 80 472 l 1
 142 472 l 1xbb80
 142 375 l 1
 159 412 202 480 293 480 c 0
 434 480 435 373 435 311 c 2
 435 165 l 1
 458 175 473 180 495 180 c 0
 547 180 604 141 604 76 c 0
 604 20 554 -17 500 -17 c 0xd780
 438 -17 396 25 380 65 c 1
 349 34 315 -15 261 -125 c 1
 196 -125 l 1
 237 -44 290 61 371 126 c 1
 371 173 l 1
 371 314 l 2
 371 381 349 430 259 430 c 0
 188 430 144 366 144 270 c 0
 144 268 145 265 145 263 c 2
 145 0 l 1
 80 0 l 1xbb80
435 110 m 1
 440 48 482 33 504 33 c 0xdb80
 526 33 552 48 552 75 c 0
 552 108 522 129 492 129 c 0
 469 129 446 116 435 110 c 1
EndSplineSet
Validated: 1
EndChar

StartChar: uni0236
Encoding: 612 566 454
GlifName: uni0236
Width: 379
GlyphClass: 2
Flags: MW
HStem: -125 21G<-32 -32 -32 33> -17 52<169.5 287.5> 81 48 422 50<20 115 20 116 177 332> 587 20G<116 177 177 177>
VStem: 115 62<103 422 103 422 103 422>
LayerCount: 2
Fore
SplineSet
-32 -125 m 1
 -28 -111 -24 -97 -18 -84 c 0
 10 -18 61 36 115 69 c 1
 115 422 l 1
 20 422 l 1
 20 472 l 1
 116 472 l 1
 116 607 l 1
 177 607 l 1
 177 472 l 1
 332 472 l 1
 332 422 l 1
 177 422 l 1
 177 103 l 1
 224 122 241 126 252 127 c 0
 258 128 262 128 268 129 c 0
 350 128 366 88 366 60 c 0
 366 -15 255 -17 197 -17 c 0
 142 -17 134 11 130 14 c 1
 65 -33 42 -91 33 -125 c 1
 -32 -125 l 1
190 51 m 1
 202 44 218 35 260 35 c 0
 315 35 311 56 313 58 c 2
 313 64 l 2
 312 68 308 81 284 81 c 0
 256 81 207 60 190 51 c 1
EndSplineSet
Validated: 1
EndChar

StartChar: uni0237
Encoding: 613 567 455
GlifName: uni0237
Width: 254
GlyphClass: 2
Flags: MW
HStem: -175 53<28.5 49 9 106> 452 20G<110 174 174 174>
VStem: 110 64<-55 -45 -45 472>
LayerCount: 2
Fore
SplineSet
-76 -146 m 1
 -58 -95 l 1
 -33 -111 -8 -122 26 -122 c 0
 72 -122 110 -101 110 -55 c 2
 110 472 l 1
 174 472 l 1
 174 -45 l 2
 174 -65 165 -175 47 -175 c 0
 10 -175 -32 -167 -76 -146 c 1
EndSplineSet
Validated: 1
EndChar

StartChar: uni0238
Encoding: 614 568 456
GlifName: uni0238
Width: 875
GlyphClass: 2
Flags: MW
HStem: -8 50<246.5 273 563.5 607> 0 21G<406 470 406 406> 430 50<253 279 188 320 585 616.5> 675 20G<406 469 469 469>
VStem: 46 65<167 300> 404 66<0 81 0 81 147 345 345 347> 763 65<169.5 305 169.5 314>
CounterMasks: 1 0e
LayerCount: 2
Fore
SplineSet
46 236 m 0xbe
 46 364 129 480 247 480 c 0
 311 480 361 454 406 403 c 1
 406 695 l 1
 469 695 l 1
 469 405 l 1
 498 442 550 480 620 480 c 0
 733 480 828 373 828 237 c 0
 828 102 725 -8 600 -8 c 0xbe
 521.4 -8 483.107692308 47 469 66 c 1
 469 0 l 1
 406 0 l 1x7e
 406 81 l 1
 367.536585366 27 306.804878049 -8 240 -8 c 0
 134 -8 46 98 46 236 c 0xbe
111 237 m 0
 111 75 217 42 276 42 c 0
 379.59375 42 406 134.00032902 406 147 c 2
 406 345 l 2
 406 382.999039164 352.07826087 430 289 430 c 0
 217 430 111 390 111 237 c 0
469 134 m 2
 469 52.0018073617 556.87 42 570 42 c 0
 644 42 763 81 763 237 c 0
 763 391 652 430 581 430 c 0
 522.477477477 430 469 386.99911836 469 347 c 2
 469 134 l 2
EndSplineSet
Validated: 1
EndChar

StartChar: uni0239
Encoding: 615 569 457
GlifName: uni0239
Width: 875
GlyphClass: 2
Flags: MW
HStem: -167 21G<404 469 404 404> -8 50<230 244 244 244 244 244 561 617> 429 51<243 300 194 328.5 586.5 629>
VStem: 46 65<184 292.5 184 300> 406 63<157 306 306 326 404 480> 763 65<178 290>
LayerCount: 2
Fore
SplineSet
46 235 m 0
 46 405 133 480 255 480 c 0
 345 480 390 408 406 382 c 1
 406 480 l 1
 469 480 l 1
 469 404 l 1
 498 442 551 480 622 480 c 0
 732 480 828 415 828 237 c 0
 828 75 738 -8 601 -8 c 0
 521 -8 483 48 469 68 c 1
 469 -167 l 1
 404 -167 l 1
 404 88 l 1
 352 3 278 -8 244 -8 c 0
 141 -8 46 53 46 235 c 0
111 236 m 0
 111 92 182 42 278 42 c 0
 349 42 406 109 406 157 c 2
 406 306 l 2
 406 346 368 429 289 429 c 0
 197 429 111 389 111 236 c 0
469 147 m 2
 469 101.106296127 496.797700497 42 569 42 c 0
 665 42 763 80 763 236 c 0
 763 384 678 429 580 429 c 0
 519 429 469 379 469 346 c 2
 469 147 l 2
EndSplineSet
Validated: 1
EndChar

StartChar: uni0250
Encoding: 616 592 458
GlifName: uni0250
Width: 492
GlyphClass: 2
Flags: MW
HStem: -12 47<205 275.5 205 279> 207 31<145 145> 430 42 460 20G<289.5 369.5>
VStem: 80 64<324.5 368.5 324.5 472> 374 62<326 377 326 380.5>
LayerCount: 2
Fore
SplineSet
80 137 m 1xdc
 80 472 l 1
 143 472 l 1xec
 143 403 l 1
 187 457 254 480 325 480 c 0
 414 480 436 396 436 358 c 0
 436 294 380 214 145 207 c 1
 145 165 l 2
 145 109 165 35 245 35 c 0
 306 35 349 52 378 70 c 2
 404 86 l 1
 409 30 l 1
 356 3 313 -12 245 -12 c 0
 137 -12 85 71 80 137 c 1xdc
144 327 m 0
 144 322 145 317 145 312 c 2
 145 238 l 1
 279 239 374 285 374 355 c 0
 374 406 319 430 272 430 c 0
 226 430 144 410 144 327 c 0
EndSplineSet
Validated: 1
EndChar

StartChar: uni0251
Encoding: 617 593 459
GlifName: uni0251
Width: 517
GlyphClass: 2
Flags: MW
HStem: -8 21G<182 256.5> 0 42<371 371> 430 50<240 265 235 299.5>
VStem: 46 65<219.5 302.5> 371 64<0 42 42 47 134 352 352 369.5>
LayerCount: 2
Fore
SplineSet
46 236 m 0xb8
 46 369 129 480 235 480 c 1
 235 480 l 1
 235 480 l 1
 295 480 338 451 372 410 c 1
 372 480 l 1
 435 480 l 1
 435 0 l 1
 371 0 l 1
 371 42 l 2x78
 371 52 370 63 370 73 c 1
 336 23 285 -8 228 -8 c 0
 136 -8 46 89 46 236 c 0xb8
111 236 m 0
 111 203 114 176 121 153 c 0
 147 62 218 42 260 42 c 0
 330 42 371 105 371 134 c 2
 371 352 l 2
 371 387 327 430 272 430 c 0
 208 430 111 393 111 236 c 0
EndSplineSet
Validated: 5
EndChar

StartChar: uni0252
Encoding: 618 594 460
GlifName: uni0252
Width: 517
GlyphClass: 2
Flags: MW
HStem: -8 50<235 275 214.5 326.5> 0 21G<80 80 80 145> 430 42 460 20G<280.5 342.5>
VStem: 80 65<0 66 142.5 145 145 343> 405 64<167.5 305 167.5 319>
LayerCount: 2
Fore
SplineSet
80 0 m 1x6c
 80 472 l 1
 143 472 l 1x6c
 143 405 l 1
 203 476 268 480 293 480 c 0
 392 480 469 372 469 238 c 0
 469 97 379 -8 274 -8 c 0x9c
 196 -8 156 50 145 66 c 1
 145 0 l 1
 80 0 l 1x6c
144 131 m 0
 144 90 186 42 243 42 c 0xac
 307 42 405 81 405 236 c 0
 405 402 306 430 255 430 c 0
 189 430 151 378 146 362 c 0
 144 356 145 349 145 343 c 2
 145 145 l 2
 145 140 144 135 144 131 c 0
EndSplineSet
Validated: 1
EndChar

StartChar: uni0253
Encoding: 619 595 461
GlifName: uni0253
Width: 583
GlyphClass: 2
Flags: MW
HStem: -8 50<314 329 257 385.5> 0 21G<114 114 114 179> 430 50<309 335.5> 661 50<312.5 392.5 288.5 396.5>
VStem: 114 65<0 76 141 142 142 342> 472 64<168.5 306.5 168.5 317>
LayerCount: 2
Fore
SplineSet
114 0 m 1x7c
 114 524 l 2
 114 638 223 711 354 711 c 0
 431 711 476 690 524 655 c 1
 506 602 l 1
 473 628 438 661 355 661 c 0
 270.303749805 661 177 616 177 525 c 6
 177 399 l 1
 213 440 268 480 350 480 c 0
 451 480 536 375 536 238 c 0
 536 99 442 -8 329 -8 c 0xbc
 299 -8 232 0 179 76 c 1
 179 0 l 1
 114 0 l 1x7c
179 142 m 2
 179 108.733989587 213.733397331 42 294 42 c 0xbc
 364 42 472 81 472 236 c 0
 472 398 365 430 306 430 c 0
 224.705173574 430 179 376.849583014 179 342 c 2
 179 142 l 2
EndSplineSet
Validated: 1
EndChar

StartChar: uni0254
Encoding: 620 596 462
GlifName: uni0254
Width: 467
GlyphClass: 2
Flags: MW
HStem: -12 52<161 245.5 160.5 272.5> 429 51<163.5 247>
VStem: 355 65<180 292>
LayerCount: 2
Fore
SplineSet
26 417 m 1
 71.7803468208 454 123.664739884 480 202 480 c 0
 324 480 420 372 420 236 c 0
 420 124 347 -12 198 -12 c 0
 124 -12 93 0 35 33 c 1
 44 88 l 1
 97 55 122 40 199 40 c 0
 292 40 355 114 355 235 c 0
 355 349 293 429 201 429 c 0
 111 429 62 386 34 361 c 1
 26 417 l 1
EndSplineSet
EndChar

StartChar: uni0255
Encoding: 621 597 463
GlifName: uni0255
Width: 467
GlyphClass: 2
Flags: MW
HStem: -125 21G<33 33 33 83> -8 52<255 298> 143 50<299.5 335.5> 433 52<220 303.5 201 305>
VStem: 46 65<194.5 297 185.5 301.5> 387 56<81.5 117>
LayerCount: 2
Fore
SplineSet
33 -125 m 1
 62 -75 l 1
 133 40 l 1
 83 81 46 152 46 237 c 0
 46 366 135 485 267 485 c 0
 340 485 372 474 431 442 c 1
 422 387 l 1
 372 415 343 433 267 433 c 0
 173 433 111 357 111 237 c 0
 111 134 157 96 163 86 c 1
 205 156 258 193 321 193 c 0
 390 193 443 156 443 100 c 0
 443 14 331 -8 265 -8 c 0
 227 -8 207 -2 173 14 c 1
 142 -32 109 -75 83 -125 c 1
 33 -125 l 1
203 57 m 1
 227 47 242 44 268 44 c 0
 350 44 387 64 387 99 c 0
 387 135 347 143 324 143 c 0
 275 143 239 117 203 57 c 1
EndSplineSet
Validated: 1
EndChar

StartChar: uni0256
Encoding: 622 598 464
GlifName: uni0256
Width: 550
GlyphClass: 2
Flags: MW
HStem: -184 51<514.5 541 540 541> -8 50<243 272.5> 430 50<253 282 190.5 319.5> 675 20G<405 468 468 468>
VStem: 46 65<167 302> 404 64<-80.5 -47 -47 -25 141 345 345 364>
LayerCount: 2
Fore
SplineSet
46 236 m 0
 46 368 134 480 247 480 c 0
 317 480 368 447 405 403 c 1
 405 695 l 1
 468 695 l 1
 468 -47 l 2
 468 -114 511 -133 541 -133 c 0
 584 -133 611 -102 622 -87 c 1
 641 -139 l 1
 630 -150 600 -184 540 -184 c 4
 469 -184 404 -152 404 -46 c 0
 404 -4 403 39 403 81 c 1
 366 27 305 -8 240 -8 c 0
 134 -8 46 98 46 236 c 0
111 237 m 0
 111 81 210 42 276 42 c 0
 352 42 404 108 404 141 c 2
 404 345 l 2
 404 383 351 430 288 430 c 0
 218 430 111 391 111 237 c 0
EndSplineSet
Validated: 1
EndChar

StartChar: uni0257
Encoding: 623 599 465
GlifName: uni0257
Width: 517
GlyphClass: 2
Flags: MW
HStem: -8 21G<174.5 256.5> 0 42<371 371> 430 50<240 264.5 184 299.5> 661 50<523 564>
VStem: 46 65<219.5 305.5> 371 64<0 42 42 47 134 352 352 369.5 411 497 497 499>
LayerCount: 2
Fore
SplineSet
46 236 m 0xbc
 46 375 133 480 235 480 c 0
 294 480 337 452 371 411 c 1
 371 497 l 2
 371 501 370 505 370 509 c 0
 370 650 460 711 543 711 c 0
 598 711 619 683 636 662 c 1
 617 610 l 1
 604 639 584 661 544 661 c 0
 502 661 435 629 435 518 c 2
 435 0 l 1
 371 0 l 1
 371 42 l 2x7c
 371 52 370 63 370 73 c 1
 336 23 285 -8 228 -8 c 0
 121 -8 46 105 46 236 c 0xbc
111 236 m 0
 111 203 114 176 121 153 c 0
 147 62 218 42 260 42 c 0
 330 42 371 105 371 134 c 2
 371 352 l 2
 371 387 327 430 272 430 c 0
 208 430 111 393 111 236 c 0
EndSplineSet
Validated: 1
EndChar

StartChar: uni0258
Encoding: 624 600 466
GlifName: uni0258
Width: 467
GlyphClass: 2
Flags: MW
HStem: -8 50<166.5 251.5 164.5 268.5> 250 40<86 98 98 358 86 363> 434 50<182 247>
VStem: 363 60<193.5 250>
LayerCount: 2
Fore
SplineSet
32 250 m 1
 33 448 147 484 217 484 c 0
 330 484 423 376 423 240 c 0
 423 111 335 -8 202 -8 c 0
 131 -8 76 21 35 56 c 1
 39 111 l 1
 78 76 127 42 202 42 c 0
 301 42 363 137 363 250 c 1
 98 250 l 1
 32 250 l 1
86 290 m 1
 358 290 l 1
 340 382 277 434 217 434 c 0
 140 434 94 373 86 290 c 1
EndSplineSet
Validated: 1
EndChar

StartChar: uni0259
Encoding: 625 601 467
GlifName: uni0259
Width: 467
GlyphClass: 2
Flags: MW
HStem: -12 50<180 251.5 164 281.5> 183 39<84 84 84 371> 430 50<167 255>
VStem: 39 45 377 60<222 277>
LayerCount: 2
Fore
SplineSet
29 222 m 1
 377 222 l 1
 377 332 308 430 202 430 c 0
 100 430 42 362 39 361 c 2
 35 416 l 1
 76 451 131 480 203 480 c 0
 328 480 437 376 437 233 c 0
 437 104 345 -12 218 -12 c 0
 142 -12 30 27 29 222 c 1
84 183 m 1
 85 144 110 38 218 38 c 0
 285 38 351 90 371 183 c 1
 84 183 l 1
EndSplineSet
Validated: 1
EndChar

StartChar: uni025A
Encoding: 626 602 468
GlifName: uni025A_
Width: 671
GlyphClass: 2
Flags: MW
HStem: -12 50<184.5 250 184.5 272.5> 235 51<565.5 582 565.5 585.5> 430 50<154 206.5>
VStem: 39 55 360 61<178 244.5> 473 65<317 340 340 342.5>
LayerCount: 2
Fore
SplineSet
29 156 m 1
 317 366 l 1
 270 425 218 430 195 430 c 0
 96 430 42 362 39 361 c 2
 35 416 l 1
 65 442 113 480 195 480 c 0
 262 480 323 449 362 400 c 1
 399 427 436 453 473 480 c 1
 538 480 l 1
 538 340 l 2
 538 294 559 286 572 286 c 0
 592 286 604 305 606 330 c 1
 670 330 l 1
 662 246 599 235 572 235 c 0
 537 235 473 256 473 339 c 0
 473 346 474 353 474 360 c 2
 474 433 l 1
 384 369 l 1
 405 333 421 287 421 233 c 0
 421 111 338 -12 207 -12 c 0
 133 -12 31 19 29 156 c 1
94 156 m 1
 96 60 160 38 209 38 c 0
 291 38 360 122 360 234 c 0
 360 255 357 274 353 290 c 0
 349 306 344 321 338 334 c 1
 94 156 l 1
EndSplineSet
Validated: 1
EndChar

StartChar: uni025B
Encoding: 627 603 469
GlifName: uni025B_
Width: 437
GlyphClass: 2
Flags: MW
HStem: -8 52<211 259> 240 38<201 260 251 260 251 309> 434 51<201.5 223>
VStem: 35 74 47 62<351 394 326.5 420>
LayerCount: 2
Fore
SplineSet
35 140 m 0xe8
 35 205 88 240 155 262 c 1
 51 296 47 341 47 361 c 0
 47 479 163 485 226 485 c 0
 314 485 345 470 402 443 c 1
 392 388 l 1
 355 408 l 2
 321 426 289 433 223 434 c 0
 180 434 109 429 109 359 c 0
 109 294 184 281 251 278 c 0
 269 278 290 278 309 280 c 1
 309 240 l 1
 240 240 l 2
 162 240 98 218 98 143 c 0
 98 64 187 44 235 44 c 0
 335 44 401 111 403 111 c 2
 408 55 l 1
 352 13 296 -8 222 -8 c 0
 69 -8 35 81 35 140 c 0xe8
EndSplineSet
Validated: 1
EndChar

StartChar: uni025C
Encoding: 628 604 470
GlifName: uni025C_
Width: 496
GlyphClass: 2
Flags: MW
HStem: -17 52<210.5 295.5 200.5 313.5> 230 50<203 246 203 203> 439 50
VStem: 371 65<344 376.5> 386 50 386 65<105.5 137 95.5 152>
LayerCount: 2
Fore
SplineSet
43 74 m 5xe4
 53 129 l 1
 92 88 149 35 252 35 c 0
 339 35 386 79 386 132 c 0xe8
 386 172 357 230 246 230 c 2
 203 230 l 1
 203 281 l 1
 246 281 l 2
 302.093136171 281 371 298.234893299 371 361 c 0
 371 392.561740602 344.407910642 439.011419467 251.443585864 439.011419467 c 0
 140.980775796 439.011419467 74.9389456347 374.969472817 67 371 c 1
 58 425 l 1
 112 463 174 489 252 489 c 0
 355 489 436 433 436 360 c 0xf0
 436 279 398 266 343 250 c 1
 408.167417915 225.562218282 451 194.120175794 451 131 c 0
 451 60 375 -17 252 -17 c 0
 169 -17 100 17 43 74 c 5xe4
EndSplineSet
Validated: 1
EndChar

StartChar: uni025D
Encoding: 629 605 471
GlifName: uni025D_
Width: 671
GlyphClass: 2
Flags: MW
HStem: -17 52<212 295.5 212 316.5> 230 50<203 240 203 203> 439 50<210 253 253 254> 460 20G<524 543 543 563 563 563>
VStem: 371 65<329 363 363 372 329 372.5> 386 65<106 134.5 98 151.5> 524 39<333 336 336 447 447 447> 524 165<325 447 325 447 325 480>
LayerCount: 2
Fore
SplineSet
43 74 m 1xe6
 53 129 l 1
 110 69 172 35 252 35 c 0
 339 35 386 80 386 132 c 0xe6
 386 171 362 230 240 230 c 2
 203 230 l 1
 203 280 l 1
 248 282 371 283 371 361 c 0
 371 384 357 416 311 431 c 0
 296 436 277 439 254 439 c 2
 253 439 l 2
 140 439 75 375 67 371 c 1
 58 425 l 1
 102 457 168 489 252 489 c 0xea
 332 489 400 456 428 399 c 1
 524 480 l 1
 543 480 l 1
 563 480 l 1
 563 336 l 2xda
 563 296 587 287 606 287 c 0
 646 287 651 325 651 325 c 1
 689 325 l 1xe9
 683 249 630 236 606 236 c 0
 574 236 524 260 524 333 c 2
 524 447 l 1
 436 372 l 1
 436 363 l 2xea
 436 295 383 266 343 250 c 1
 405 227 437 193 447 157 c 0
 450 148 451 139 451 130 c 0
 451 66 381 -17 252 -17 c 0
 169 -17 100 17 43 74 c 1xe6
EndSplineSet
Validated: 1
EndChar

StartChar: uni025E
Encoding: 630 606 472
GlifName: uni025E_
Width: 525
GlyphClass: 2
Flags: MW
HStem: -17 52<213 312.5 213 325.5> 230 50<233 259 233 233> 439 50<214.5 309.5>
VStem: 29 65<189.5 286.5 189.5 302.5> 401 65<353.5 384> 416 50 416 65<103 151.5>
LayerCount: 2
Fore
SplineSet
29 238 m 0xf2
 29 367 126 489 270 489 c 0
 376 489 466 433 466 360 c 0xf8
 466 277 370 250 369 248 c 1
 384 242 481 209 481 131 c 0
 481 48 381 -17 270 -17 c 0
 133 -17 29 99 29 238 c 0xf2
94 237 m 0
 94 142 155 35 271 35 c 0
 354 35 416 74 416 132 c 0xf4
 416 171 386 230 259 230 c 2
 233 230 l 1
 233 280 l 1
 297 284 306 284 324 288 c 0
 395 305 401 346 401 361 c 0
 401 407 348 439 271 439 c 0
 158 439 94 336 94 237 c 0
EndSplineSet
Validated: 1
EndChar

StartChar: uni025F
Encoding: 631 607 473
GlifName: uni025F_
Width: 321
GlyphClass: 2
Flags: MW
HStem: -175 53<60 75 42 108.5> 224 50<42 144 42 144 207 295> 452 20G<144 207 207 207>
VStem: 144 63<-58 -48 -48 224 274 472>
LayerCount: 2
Fore
SplineSet
-43 -146 m 1
 -25 -95 l 1
 0 -111 25 -122 59 -122 c 0
 91 -122 144 -109 144 -58 c 2
 144 224 l 1
 42 224 l 1
 42 274 l 1
 144 274 l 1
 144 472 l 1
 207 472 l 1
 207 274 l 1
 295 274 l 1
 295 224 l 1
 207 224 l 1
 207 -48 l 2
 207 -137 139 -175 78 -175 c 0
 42 -175 1 -167 -43 -146 c 1
EndSplineSet
Validated: 1
EndChar

StartChar: uni0260
Encoding: 632 608 474
GlifName: uni0260
Width: 550
GlyphClass: 2
Flags: MW
HStem: -184 50<218.5 278 217 302> 17 50<221 273.5> 430 50<231 288.5 185 298> 591 51<520.5 557.5>
VStem: 46 65<188.5 293 188.5 299.5> 371 64<-45.5 10 10 31 246 320 320 324.5 395 495 495 499>
LayerCount: 2
Fore
SplineSet
46 238 m 0
 46 361 127 480 243 480 c 0
 334 480 367 398 371 395 c 1
 371 495 l 2
 371 613 476 642 531 642 c 0
 594 642 622 610 636 594 c 1
 617 542 l 1
 604 562 583 591 532 591 c 0
 509 591 472 583 452 556 c 0
 442 542 435 523 435 499 c 2
 435 336 l 1
 435 10 l 2
 435 -119 348 -184 256 -184 c 0
 181 -184 132 -168 72 -139 c 1
 72 -85 l 1
 131 -114 179 -134 255 -134 c 0
 301 -134 371 -103 371 12 c 0
 371 50 370 87 370 125 c 1
 355 88 315 17 232 17 c 0
 142 17 46 101 46 238 c 0
111 237 m 0
 111 140 181 67 261 67 c 0
 325 67 368 136 371 246 c 2
 371 320 l 2
 371 329 369 340 365 352 c 0
 354 388 324 430 272 430 c 0
 190 430 111 349 111 237 c 0
EndSplineSet
Validated: 1
EndChar

StartChar: uni0261
Encoding: 633 609 475
GlifName: uni0261
Width: 517
GlyphClass: 2
Flags: MW
HStem: -184 50<219 278.5 217 305> 17 50<217.5 270.5> 430 50<230 280.5 184.5 308.5>
VStem: 46 65<192.5 292 192.5 298> 372 63<250 316 316 334.5 393 480>
LayerCount: 2
Fore
SplineSet
46 237 m 0
 46 359 125 480 244 480 c 0
 317 480 354 426 372 393 c 1
 372 480 l 1
 435 480 l 1
 435 9 l 2
 435 -112 353 -184 257 -184 c 0
 181 -184 132 -168 72 -139 c 1
 72 -85 l 1
 131 -114 179 -134 255 -134 c 0
 302 -134 371 -103 371 12 c 0
 371 50 370 87 370 125 c 1
 352 79 309 17 232 17 c 0
 140 17 46 102 46 237 c 0
111 237 m 0
 111 148 175 67 260 67 c 0
 347 67 369 171 372 250 c 2
 372 316 l 2
 372 353 345 430 272 430 c 0
 188 430 111 347 111 237 c 0
EndSplineSet
Validated: 1
EndChar

StartChar: uni0262
Encoding: 634 610 476
GlifName: uni0262
Width: 480
GlyphClass: 2
Flags: MW
HStem: -12 43<233 302.5 233 311> 157 50<279 362 279 426> 441 43<233 308 213 320.5>
VStem: 52 64<182 289.5 182 300.5> 362 64<44 157 157 157>
LayerCount: 2
Fore
SplineSet
52 236 m 0
 52 365 144 484 282 484 c 0
 334 484 370 475 421 451 c 1
 410 388 l 1
 399 397 358 441 283 441 c 0
 183 441 116 343 116 236 c 0
 116 128 183 31 283 31 c 0
 322 31 346 41 362 44 c 1
 362 157 l 1
 279 157 l 1
 279 207 l 1
 426 207 l 1
 426 21 l 1
 387 3 340 -12 282 -12 c 0
 144 -12 52 107 52 236 c 0
EndSplineSet
Validated: 1
EndChar

StartChar: uni0263
Encoding: 635 611 477
GlifName: uni0263
Width: 458
GlyphClass: 2
Flags: MW
HStem: -183 21G<199 257.5> 0 21G<224 233 224 224> 452 20G<14 79 79 79 379 443 443 443>
VStem: 134 57<-104.5 -68 -107.5 -67.5> 266 58<-94.5 -65.5>
LayerCount: 2
Fore
SplineSet
14 472 m 1
 79 472 l 1
 229 102 l 1
 379 472 l 1
 443 472 l 1
 267 41 l 1
 299 0 324 -31 324 -79 c 0
 324 -131 287 -183 228 -183 c 0
 170 -183 134 -130 134 -79 c 0
 134 -56 141 -19 190 40 c 1
 131 184 73 328 14 472 c 1
191 -83 m 0
 191 -132 229 -133 229 -133 c 2
 232 -133 242 -132 250 -125 c 0
 258 -118 266 -106 266 -83 c 0
 266 -48 239 -10 233 0 c 1
 224 0 l 1
 209 -25 191 -53 191 -83 c 0
EndSplineSet
Validated: 1
EndChar

StartChar: uni0264
Encoding: 636 612 478
GlifName: uni0264
Width: 554
GlyphClass: 2
Flags: MW
HStem: -17 51<264.5 289.5 264.5 308.5> 440 49<117.5 118.5 95 124 95 124 95 124 407 436>
VStem: 175 60<73 106.5 73 119.5> 318 61<73 112>
LayerCount: 2
Fore
SplineSet
13 398 m 1
 14 413 17 427 23 438 c 0
 41 472 78 489 112 489 c 0
 125 489 137 487 149 483 c 0
 208 463 249 398 276 336 c 1
 294 375 347 489 441 489 c 0
 487 489 537 459 540 398 c 1
 510 392 l 2
 500 390 490 389 480 387 c 1
 476 433 442 440 430 440 c 0
 384 440 355 370 321 299 c 1
 321 299 l 1
 313 283 310 276 310 270 c 0
 310 245 379 148 379 92 c 0
 379 38 340 -17 277 -17 c 0
 221 -17 175 30 175 92 c 0
 175 147 243 248 243 269 c 0
 243 275 240 283 231 301 c 1
 231 301 l 1
 191 386 167 440 124 440 c 1
 124 440 l 1
 124 440 l 1
 111 440 77 432 73 387 c 1
 13 398 l 1
235 90 m 0
 235 56 252 34 277 34 c 0
 302 34 318 56 318 90 c 0
 318 134 286 179 277 205 c 1
 249 149 235 123 235 90 c 0
EndSplineSet
Validated: 1
EndChar

StartChar: uni0265
Encoding: 637 613 479
GlifName: uni0265
Width: 517
GlyphClass: 2
Flags: MW
HStem: -167 21G<372 435 372 372> -8 50<211.5 267.5> 452 20G<80 145 145 145 371 435 435 435>
VStem: 80 65<157 161 161 472> 370 65<172 172 172 172>
LayerCount: 2
Fore
SplineSet
80 157 m 2
 80 472 l 1
 145 472 l 1
 145 161 l 2
 145 91 166 42 257 42 c 0
 347 42 366 138 370 172 c 1
 370 172 l 1
 371 185 371 198 371 210 c 2
 371 472 l 1
 435 472 l 1
 435 -167 l 1
 372 -167 l 1
 372 95 l 1
 356 60 312 -8 223 -8 c 0
 82 -8 80 100 80 157 c 2
EndSplineSet
Validated: 1
EndChar

StartChar: uni0266
Encoding: 638 614 480
GlifName: uni0266
Width: 517
GlyphClass: 2
Flags: MW
HStem: 0 21G<80 80 80 145 371 371 371 435> 430 50<247.5 303.5> 661 50<266 337 243.5 341.5>
VStem: 80 65<0 262 0 479 563 569> 371 64<0 311 311 315 0 347>
LayerCount: 2
Fore
SplineSet
80 0 m 1
 80 541 l 2
 80 651 182 711 305 711 c 0
 369 711 409 697 462 661 c 1
 443 609 l 1
 411 634 379 661 304 661 c 0
 227.522012579 661 144 626.433598968 144 569 c 2
 144 378 l 1
 159 413 203 480 292 480 c 0
 432 480 435 374 435 315 c 2
 435 0 l 1
 371 0 l 1
 371 311 l 2
 371 383 348 430 259 430 c 0
 167.194690265 430 146.137378135 334.12134405 145 300 c 2
 145 0 l 1
 80 0 l 1
EndSplineSet
Validated: 1
EndChar

StartChar: uni0267
Encoding: 639 615 481
GlifName: uni0267
Width: 521
GlyphClass: 2
Flags: MW
HStem: -184 51<246.5 284 239 311.5> 0 21G<80 80 80 145> 430 50<247.5 304.5> 661 50<247 321 241 325.5>
VStem: 80 65<0 251> 371 64<-34 -31 -31 312 312 315>
LayerCount: 2
Fore
SplineSet
80 0 m 1
 80 479 l 2
 80 542 80 564 82 578 c 0
 94 660 192 711 290 711 c 0
 352 711 389 696 435 661 c 1
 417 609 l 1
 390 632 361 661 290 661 c 0
 204 661 150 613 145 570 c 0
 145 556 144 542 144 528 c 1
 143 528 l 1
 143 478 144 428 144 378 c 1
 159 413 203 480 292 480 c 0
 434 480 435 371 435 315 c 2
 435 -31 l 2
 435 -37 436 -42 436 -48 c 0
 436 -140 351 -184 272 -184 c 0
 221 -184 185 -170 145 -139 c 1
 164 -87 l 1
 174 -96 207 -133 271 -133 c 0
 297 -133 333 -125 354 -99 c 0
 364 -86 371 -68 371 -44 c 2
 371 312 l 2
 371 383 350 430 259 430 c 0
 207 430 144 391 144 268 c 0
 144 262 145 257 145 251 c 2
 145 0 l 1
 80 0 l 1
EndSplineSet
Validated: 1
EndChar

StartChar: uni0268
Encoding: 640 616 482
GlifName: uni0268
Width: 318
GlyphClass: 2
Flags: MW
HStem: 0 21G<127 190 127 127> 224 50<22 127 22 127 190 295> 452 20G<127 190 190 190> 617 78<119 197 119 197>
VStem: 119 78<617 695 617 695>
LayerCount: 2
Fore
SplineSet
22 224 m 1
 22 274 l 1
 127 274 l 1
 127 472 l 1
 190 472 l 1
 190 274 l 1
 295 274 l 1
 295 224 l 1
 190 224 l 1
 190 0 l 1
 127 0 l 1
 127 224 l 1
 22 224 l 1
119 617 m 1
 119 695 l 1
 197 695 l 1
 197 617 l 1
 119 617 l 1
EndSplineSet
Validated: 1
EndChar

StartChar: uni0269
Encoding: 641 617 483
GlifName: uni0269
Width: 350
GlyphClass: 2
Flags: MW
HStem: -8 51<221 250 221 264> 452 20G<113 178 178 178>
VStem: 113 64<126 130.5 94 472> 275 64<157 157>
LayerCount: 2
Fore
SplineSet
113 126 m 2
 113 472 l 1
 178 472 l 1
 178 147 l 2
 178 141 177 134 177 127 c 0
 177 61 210 43 232 43 c 0
 268 43 273 95 275 157 c 1
 339 157 l 1
 335 57 296 -8 232 -8 c 0
 181 -8 113 31 113 126 c 2
EndSplineSet
Validated: 1
EndChar

StartChar: uni026A
Encoding: 642 618 484
GlifName: uni026A_
Width: 163
GlyphClass: 2
Flags: MW
HStem: 0 21G<49 49 49 114> 452 20G<49 114 114 114>
VStem: 49 65<0 472 0 472>
LayerCount: 2
Fore
SplineSet
49 0 m 1
 49 472 l 1
 114 472 l 1
 114 0 l 1
 49 0 l 1
EndSplineSet
Validated: 1
EndChar

StartChar: uni026B
Encoding: 643 619 485
GlifName: uni026B_
Width: 377
GlyphClass: 2
Flags: MW
HStem: 0 21G<156 219 156 156> 335 90<27 125.5 27 125.5> 675 20G<156 219 219 219>
VStem: 27 192<335 335> 156 63<0 341 0 368 0 368 419 695> 156 192<0 425 368 425 425 425 425 695>
LayerCount: 2
Fore
SplineSet
27 335 m 1xf0
 30 400 83 425 119 425 c 0
 132 425 144 422 156 419 c 1
 156 695 l 1xe8
 219 695 l 1
 219 392 l 1xf0
 230 389 242 385 253 385 c 0
 264 385 292 389 297 425 c 1
 348 425 l 1xe4
 345 370 303 335 255 335 c 0
 238 335 230 339 219 341 c 1
 219 0 l 1
 156 0 l 1
 156 368 l 1xe8
 145 371 133 374 122 374 c 0
 110 374 82 370 77 335 c 1
 27 335 l 1xf0
EndSplineSet
Validated: 1
EndChar

StartChar: uni026C
Encoding: 644 620 486
GlifName: uni026C_
Width: 342
GlyphClass: 2
Flags: MW
HStem: 0 21G<139 202 139 139> 221 45<104 139> 675 20G<139 202 202 202>
VStem: 7 51<318 349 318 364> 139 63<0 221 221 221 280 421 421 421 472 695>
LayerCount: 2
Fore
SplineSet
7 332 m 0
 7 396 57 462 139 472 c 1
 139 695 l 1
 202 695 l 1
 202 280 l 1
 242 297 276 321 306 350 c 1
 338 312 l 1
 306 279 261 246 202 230 c 1
 202 0 l 1
 139 0 l 1
 139 221 l 1
 33 226 7 288 7 332 c 0
58 331 m 0
 58 305 69 266 139 266 c 1
 139 421 l 1
 82 410 58 367 58 331 c 0
EndSplineSet
Validated: 1
EndChar

StartChar: uni026D
Encoding: 645 621 487
GlifName: uni026D_
Width: 258
GlyphClass: 2
Flags: MW
HStem: -184 51<216 216 216 240.5 216 245> 675 20G<80 143 143 143>
VStem: 80 63<-46 695>
LayerCount: 2
Fore
SplineSet
80 -46 m 2
 80 695 l 1
 143 695 l 1
 143 -47 l 2
 143 -114 186 -133 216 -133 c 1
 216 -133 l 1
 265 -133 285 -103 297 -87 c 1
 315 -139 l 1
 301 -154 275 -184 215 -184 c 0
 169 -184 80 -156 80 -46 c 2
EndSplineSet
Validated: 5
EndChar

StartChar: uni026E
Encoding: 646 622 488
GlifName: uni026E_
Width: 533
GlyphClass: 2
Flags: MW
HStem: -175 50<280.5 377 280.5 386> 0 21G<80 143 80 80> 416 56<163 431 163 522> 675 20G<80 143 143 143>
VStem: 80 63<0 695 0 695> 467 55
LayerCount: 2
Fore
SplineSet
143 695 m 1
 143 0 l 1
 80 0 l 1
 80 695 l 1
 143 695 l 1
431 416 m 1
 163 416 l 1
 163 472 l 1
 522 472 l 1
 522 435 l 1
 460 353 397 270 336 187 c 1
 413 174 531 117 531 12 c 0
 531 -72 457 -175 315 -175 c 0
 235 -175 169 -145 115 -103 c 1
 134 -50 l 1
 188 -97 244 -125 317 -125 c 0
 437 -125 467 -44 467 12 c 0
 467 82 394 138 225 142 c 1
 431 416 l 1
EndSplineSet
Validated: 1
EndChar

StartChar: uni026F
Encoding: 647 623 489
GlifName: uni026F_
Width: 808
GlyphClass: 2
Flags: MW
HStem: -8 21G<153 263.5 445.5 559> 0 42 452 20G<80 145 145 145 371 435 435 435 662 726 726 726>
VStem: 80 65<157 161 161 472> 370 65 661 65
LayerCount: 2
Fore
SplineSet
80 157 m 2xbc
 80 472 l 1
 145 472 l 1
 145 161 l 2
 145 89 164 42 257 42 c 0
 347 42 366 138 370 172 c 0
 371 185 371 198 371 210 c 2
 371 472 l 1
 435 472 l 1
 435 161 l 2
 435 89 457 42 547 42 c 0
 638 42 657 138 661 172 c 0
 662 185 662 198 662 210 c 2
 662 472 l 1
 726 472 l 1
 726 0 l 1
 665 0 l 1x7c
 665 59 l 2
 665 72 664 84 664 97 c 1
 648 60 604 -8 514 -8 c 0
 377 -8 378 99 374 100 c 1
 352 48 304 -8 223 -8 c 0
 83 -8 80 99 80 157 c 2xbc
EndSplineSet
Validated: 1
EndChar

StartChar: uni0270
Encoding: 648 624 490
GlifName: uni0270
Width: 808
GlyphClass: 2
Flags: MW
HStem: -167 21G<665 726 665 665> -8 50<211.5 263.5 501.5 559> 452 20G<80 145 145 145 371 435 435 435 662 726 726 726>
VStem: 80 65<157 161 161 472> 370 65 661 65
LayerCount: 2
Fore
SplineSet
80 157 m 2
 80 472 l 1
 145 472 l 1
 145 161 l 2
 145 91 166 42 257 42 c 0
 347 42 366 138 370 172 c 0
 371 185 371 198 371 210 c 2
 371 472 l 1
 435 472 l 1
 435 161 l 2
 435 90 456 42 547 42 c 0
 638 42 657 138 661 172 c 0
 662 185 662 198 662 210 c 2
 662 472 l 1
 726 472 l 1
 726 -167 l 1
 665 -167 l 1
 665 60 l 2
 665 72 664 85 664 97 c 1
 648 62 604 -8 514 -8 c 0
 377 -8 378 99 374 100 c 1
 352 48 304 -8 223 -8 c 0
 83 -8 80 99 80 157 c 2
EndSplineSet
Validated: 1
EndChar

StartChar: uni0271
Encoding: 649 625 491
GlifName: uni0271
Width: 842
GlyphClass: 2
Flags: MW
HStem: -184 51<533.5 605.5 531.5 606> 0 21G<80 80 80 145 371 371 371 436> 430 42 460 20G<248 361 539.5 655.5>
VStem: 80 62<375 472 375 472 375 472> 371 65<0 268> 663 64<-33 312 312 314>
LayerCount: 2
Fore
SplineSet
80 0 m 1xee
 80 472 l 1
 142 472 l 1xee
 142 375 l 1
 157 410 203 480 293 480 c 0
 429 480 429 373 433 373 c 0
 450 412 494 480 585 480 c 0xde
 726 480 727 371 727 314 c 2
 727 -47 l 2
 727 -135 649 -184 563 -184 c 0
 504 -184 471 -165 436 -139 c 1
 455 -87 l 1
 468 -98 500 -133 563 -133 c 0
 648 -133 663 -73 663 -33 c 2
 663 312 l 2
 663 356 655 394 622 414 c 0
 605 424 582 430 550 430 c 0
 499 430 436 392 436 268 c 2
 436 0 l 1
 371 0 l 1
 371 311 l 2
 371 358 362 396 329 415 c 0
 312 425 290 430 259 430 c 0
 186 430 144 364 144 270 c 0
 144 267 144 265 145 262 c 2
 145 0 l 1
 80 0 l 1xee
EndSplineSet
Validated: 1
EndChar

StartChar: uni0272
Encoding: 650 626 492
GlifName: uni0272
Width: 517
GlyphClass: 2
Flags: MW
HStem: -184 51<-5.5 36.5 -10 53.5> 0 21G<372 437 372 372> 430 42 460 20G<248 364>
VStem: 81 62<409 415 415 472 409 472> 372 65<0 308 308 315 0 339.5>
LayerCount: 2
Fore
SplineSet
-76 -139 m 1xec
 -57 -87 l 1
 -51 -96 -35 -133 15 -133 c 0
 58 -133 77 -95 81 -65 c 1
 81 472 l 1
 143 472 l 1xec
 143 415 l 2
 143 403 144 390 144 378 c 1
 160 413 203 480 293 480 c 0xdc
 435 480 437 372 437 315 c 2
 437 0 l 1
 372 0 l 1
 372 308 l 2
 372 371 361 430 259 430 c 0
 213 430 144 399 144 266 c 2
 144 -55 l 1
 140 -126 91 -184 16 -184 c 0
 -27 -184 -52 -167 -76 -139 c 1xec
EndSplineSet
Validated: 1
EndChar

StartChar: uni0273
Encoding: 651 627 493
GlifName: uni0273
Width: 550
GlyphClass: 2
Flags: MW
HStem: -184 51<484 533 484 536.5> 0 21G<80 80 80 145> 430 42 460 20G<252.5 307>
VStem: 80 62<375 472 375 472 375 472> 371 64<-65 -65 -65 -46 -46 -11 -11 311 -11 -11 311 315>
LayerCount: 2
Fore
SplineSet
80 0 m 1xec
 80 472 l 1
 142 472 l 1xec
 142 375 l 1
 164 424 212 480 293 480 c 0xdc
 321 480 344 475 362 468 c 0
 434 438 435 360 435 315 c 2
 435 -46 l 2
 435 -95 460 -133 508 -133 c 0
 558 -133 578 -101 589 -87 c 1
 607 -139 l 1
 593 -154 567 -184 506 -184 c 0
 436 -184 377 -134 371 -65 c 1
 371 -65 l 1
 371 -11 l 1
 371 -11 l 1
 371 311 l 2
 371 348 369 382 339 407 c 0
 315 426 282 430 259 430 c 0
 201 430 144 384 144 268 c 0
 144 263 145 257 145 251 c 2
 145 0 l 1
 80 0 l 1xec
EndSplineSet
Validated: 5
EndChar

StartChar: uni0274
Encoding: 652 628 494
GlifName: uni0274
Width: 469
GlyphClass: 2
Flags: MW
HStem: 0 21G<50 50 50 113 325 325 325 417> 452 20G<50 143 143 143 355 417 417 417>
VStem: 50 63<0 411 0 472 0 472> 355 62<61 472 0 472>
LayerCount: 2
Fore
SplineSet
50 0 m 1
 50 472 l 1
 143 472 l 1
 355 61 l 1
 355 472 l 1
 417 472 l 1
 417 0 l 1
 325 0 l 1
 113 411 l 1
 113 0 l 1
 50 0 l 1
EndSplineSet
Validated: 1
EndChar

StartChar: uni0275
Encoding: 653 629 495
GlifName: uni0275
Width: 525
GlyphClass: 2
Flags: MW
HStem: -8 52<213.5 304.5 213.5 323.5> 211 50<106 106 106 418> 434 50<230.5 292.5>
VStem: 40 66<211 211 211 301.5> 419 64<261 261>
LayerCount: 2
Fore
SplineSet
40 236 m 0
 40 367 134 484 262 484 c 0
 380 484 483 378 483 236 c 0
 483 101 385 -8 262 -8 c 0
 148 -8 40 91 40 236 c 0
105 261 m 1
 419 261 l 1
 413 395 323 434 262 434 c 0
 199 434 111 396 105 261 c 1
106 211 m 1
 112 124 165 44 262 44 c 0
 347 44 404 103 418 211 c 1
 106 211 l 1
EndSplineSet
Validated: 1
EndChar

StartChar: uni0276
Encoding: 654 630 496
GlifName: uni0276
Width: 672
GlyphClass: 2
Flags: MW
HStem: -12 51<187 263.5> 0 39 220 50<379 607 379 607> 434 38 434 50<190 260.5 166.5 272>
VStem: 4 63<193 296 193 297> 315 64<270 325 325 367>
LayerCount: 2
Fore
SplineSet
4 235 m 0xb6
 4 383.05 82.6112400531 484 192 484 c 0xae
 244.933409331 484 299.910530703 466.387096774 334 432 c 1
 334 472 l 1
 626 472 l 1
 626 429 l 1
 379 429 l 1
 379 270 l 1
 607 270 l 1
 607 220 l 1
 379 220 l 1
 379 46 l 1
 636 46 l 1
 636 0 l 1
 336 0 l 1
 336 40 l 1
 292.35298673 1.13567613749 240.566733285 -12 192 -12 c 0
 62.75 -12 4 83.95 4 235 c 0xb6
67 245 m 0
 67 121 113.035097661 39 210 39 c 0
 275.509433962 39 326 84.1654791153 326 186 c 0
 326 290 l 0
 326 400.972477064 264.80952381 434 201 434 c 0
 122.448275862 434 67 347 67 245 c 0
EndSplineSet
Validated: 1
EndChar

StartChar: uni0277
Encoding: 655 631 497
GlifName: uni0277
Width: 642
GlyphClass: 2
Flags: MW
HStem: -8 50<152 229.5 152 229.5 412.5 480> 430 51<264 320 241 383>
VStem: 29 65<176.5 277.5 176.5 286.5> 300 53 548 64<182 272.5>
LayerCount: 2
Fore
SplineSet
29 210 m 0
 29 363 162 481 320 481 c 1
 444 475 612 396 612 211 c 0
 612 97 542 -8 436 -8 c 0
 389 -8 344 16 318 83 c 1
 301 51 268 -8 191 -8 c 0
 90 -8 29 100 29 210 c 0
94 208 m 0
 94 145 112 42 192 42 c 0
 267 42 300 124 300 140 c 0
 300 157 289 199 289 276 c 0
 289 320 312 327 321 327 c 0
 340 327 353 309 353 269 c 0
 353 234 346 184 340 152 c 0
 339 148 337 145 337 139 c 0
 337 128 358 42 435 42 c 0
 525 42 548 153 548 211 c 0
 548 334 446 430 320 430 c 0
 208 430 94 347 94 208 c 0
EndSplineSet
Validated: 1
EndChar

StartChar: uni0278
Encoding: 656 632 498
GlifName: uni0278
Width: 642
GlyphClass: 2
Flags: MW
HStem: -167 21G<288 353 288 288> 675 20G<288 353 353 353>
VStem: 56 62<211.5 309.5 211.5 315> 288 65<-167 33 -167 33 83 436 487 695> 523 62<212 283.5>
CounterMasks: 1 38
LayerCount: 2
Fore
SplineSet
56 260 m 0
 56 370 150 474 288 487 c 1
 288 695 l 1
 353 695 l 1
 353 487 l 1
 478 474 585 381 585 260 c 0
 585 157 499 48 353 33 c 1
 353 -167 l 1
 288 -167 l 1
 288 33 l 1
 166 44 56 137 56 260 c 0
118 260 m 0
 118 163 183 94 288 83 c 1
 288 436 l 1
 185 426 118 359 118 260 c 0
353 83 m 1
 460 95 523 164 523 260 c 0
 523 307 504 418 353 436 c 1
 353 83 l 1
EndSplineSet
Validated: 1
EndChar

StartChar: uni0279
Encoding: 657 633 499
GlifName: uni0279
Width: 346
GlyphClass: 2
Flags: MW
HStem: -8 21G<14 14> 0 49 452 20G<201 264 264 264>
VStem: 198 66
LayerCount: 2
Fore
SplineSet
14 -8 m 1xb0
 14 49 l 1
 126 51 186 128 198 192 c 0
 201 207 201 221 201 236 c 1
 201 236 l 1
 201 472 l 1
 264 472 l 1
 264 0 l 1
 204 0 l 1x70
 204 76 l 2
 204 92 203 108 203 124 c 1
 184 78 129 -6 14 -8 c 1xb0
EndSplineSet
Validated: 5
EndChar

StartChar: uni027A
Encoding: 658 634 500
GlifName: uni027A_
Width: 346
GlyphClass: 2
Flags: MW
HStem: -8 21G<14 14> 0 49 619 20G<201 264 264 264>
VStem: 201 63<231 639 0 639>
LayerCount: 2
Fore
SplineSet
14 -8 m 1xb0
 14 49 l 1
 107 50 201 111 201 231 c 2
 201 639 l 1
 264 639 l 1
 264 0 l 1
 204 0 l 1x70
 204 76 l 2
 204 92 203 108 203 124 c 1
 184 78 129 -6 14 -8 c 1xb0
EndSplineSet
Validated: 1
EndChar

StartChar: uni027B
Encoding: 659 635 501
GlifName: uni027B_
Width: 346
GlyphClass: 2
Flags: MW
HStem: -184 51<311 361 311 366> -8 57<14 14> 453 20G<201 264 264 264>
VStem: 201 63<-49 -39 -39 -2 -2 92 92 96 236 236 236 473>
LayerCount: 2
Fore
SplineSet
14 -8 m 1
 14 49 l 1
 126 51 186 128 198 192 c 0
 201 207 201 221 201 236 c 1
 201 236 l 1
 201 473 l 1
 264 473 l 1
 264 -39 l 2
 264 -90 286 -133 336 -133 c 0
 386 -133 404 -105 418 -87 c 1
 436 -139 l 1
 425 -150 396 -184 336 -184 c 0
 265 -184 201 -134 201 -49 c 2
 201 -2 l 1
 201 92 l 2
 201 100 201 109 200 117 c 1
 181 76 127 -6 14 -8 c 1
EndSplineSet
Validated: 5
EndChar

StartChar: uni027C
Encoding: 660 636 502
GlifName: uni027C_
Width: 346
GlyphClass: 2
Flags: MW
HStem: -167 21G<80 80 80 143> 424 48 460 20G<330 330>
VStem: 80 61<349 357 349 472>
LayerCount: 2
Fore
SplineSet
80 -167 m 1xd0
 80 472 l 1
 140 472 l 1xd0
 140 396 l 2
 140 380 141 365 141 349 c 1
 160 394 215 478 330 480 c 1xb0
 330 424 l 1
 226 422 143 351 143 242 c 2
 143 -167 l 1
 80 -167 l 1xd0
EndSplineSet
Validated: 1
EndChar

StartChar: uni027D
Encoding: 661 637 503
GlifName: uni027D_
Width: 346
GlyphClass: 2
Flags: MW
HStem: -184 51<201 255 201 260> 424 48 460 20G<330 330>
VStem: 80 61<349 357 349 472>
LayerCount: 2
Fore
SplineSet
80 -33 m 2xd0
 80 472 l 1
 140 472 l 1xd0
 140 349 l 1
 159 394 215 478 330 480 c 1xb0
 330 424 l 1
 192 420 143 314 143 235 c 2
 143 -46 l 6
 143 -95.7927022704 169.374073323 -133 218 -133 c 0
 273.869565217 -133 304.47826087 -104 320 -87 c 1
 339 -139 l 1
 323.699115044 -153 276.03539823 -184 206 -184 c 0
 150.260273973 -184 80 -152.943262411 80 -33 c 2xd0
EndSplineSet
Validated: 1
EndChar

StartChar: uni027E
Encoding: 662 638 504
GlifName: uni027E_
Width: 346
GlyphClass: 2
Flags: MW
HStem: 0 21G<80 80 80 143>
VStem: 80 63<0 287 0 355>
LayerCount: 2
Fore
SplineSet
80 0 m 1
 80 335 l 1
 80 436.773829811 172.230373585 476.554333141 279 480 c 1
 330 480 l 1
 330 424 l 1
 279 424 l 2
 187.605887607 424 143 384.57654672 143 314.631835938 c 6
 143 0 l 1
 80 0 l 1
EndSplineSet
Validated: 1
EndChar

StartChar: uni027F
Encoding: 663 639 505
GlifName: uni027F_
Width: 317
GlyphClass: 2
Flags: HMW
HStem: 0 21G<171 236 171 171> 430 50<95.5 126>
VStem: 171 65<0 325 325 328>
LayerCount: 2
Fore
SplineSet
11 315 m 1
 15 417 54 480 117 480 c 0
 155 480 236 453 236 346 c 2
 236 0 l 1
 171 0 l 1
 171 325 l 2
 171 331 172 338 172 344 c 0
 172 417 134 430 118 430 c 0
 78.2941176471 430 75.9584775087 356.816608997 75.9584775087 325.170974964 c 0
 75.9584775087 320.951557093 76 317.470588235 76 315 c 1
 11 315 l 1
EndSplineSet
Validated: 1
EndChar

StartChar: uni0280
Encoding: 664 640 506
GlifName: uni0280
Width: 441
GlyphClass: 2
Flags: MW
HStem: 0 21G<50 50 50 113 350 350 350 415> 211 50<113 205 205 223 113 205> 419 53<114 205 114 114>
VStem: 50 63<0 211 261 361> 335 60<316.5 367.5 316.5 372.5>
LayerCount: 2
Fore
SplineSet
50 0 m 1
 50 472 l 1
 208 472 l 2
 344 472 395 394 395 341 c 0
 395 292 357 241 280 219 c 1
 415 0 l 1
 350 0 l 1
 223 211 l 1
 113 211 l 1
 113 0 l 1
 50 0 l 1
113 261 m 1
 205 261 l 2
 282 261 335 280 335 340 c 0
 335 405 266 419 205 419 c 2
 114 419 l 1
 114 400 113 380 113 361 c 2
 113 261 l 1
EndSplineSet
Validated: 1
EndChar

StartChar: uni0281
Encoding: 665 641 507
GlifName: uni0281
Width: 441
GlyphClass: 2
Flags: MW
HStem: 0 53<113 206 206 208> 211 50<114 179 114 114 179 212> 452 20G<50 113 113 113 350 415 415 415>
VStem: 50 63<53 53 53 153 261 472> 335 60<104.5 156.5 104.5 170>
LayerCount: 2
Fore
SplineSet
50 0 m 1
 50 472 l 1
 113 472 l 1
 113 261 l 1
 223 261 l 1
 265 331 308 402 350 472 c 1
 415 472 l 1
 280 254 l 1
 358 231 395 181 395 132 c 0
 395 77 346 0 208 0 c 2
 50 0 l 1
113 53 m 1
 206 53 l 2
 283 53 335 72 335 132 c 0
 335 208 247 211 212 211 c 2
 179 211 l 1
 114 211 l 1
 114 192 113 172 113 153 c 2
 113 53 l 1
EndSplineSet
Validated: 1
EndChar

StartChar: uni0282
Encoding: 666 642 508
GlifName: uni0282
Width: 402
GlyphClass: 2
Flags: MW
HStem: -184 51<143 175.5> -8 52<185 252.5 170.5 277> 435 50<153 228.5>
VStem: 28 52<-44 -42 -42 15 -44 -44> 320 58<109.5 141.5>
LayerCount: 2
Fore
SplineSet
28 -44 m 1
 28 98 l 1
 81 65 134 44 207 44 c 0
 298 44 320 93 320 126 c 0
 320 157 298 188 251 203 c 1
 251 203 l 1
 232 209 210 213 187 217 c 0
 131 228 35 254 35 352 c 0
 35 404 64 485 204 485 c 0
 264 485 302 476 359 451 c 1
 350 396 l 1
 295 424 259 435 198 435 c 0
 108 435 93 387 93 360 c 0
 93 332 113 303 156 290 c 0
 174 284 244 273 273 263 c 0
 313 249 378 210 378 131 c 0
 378 76 347 -8 207 -8 c 0
 163 -8 120 0 80 15 c 1
 80 -42 l 2
 80 -70 81 -93 99 -112 c 0
 113 -127 133 -133 153 -133 c 0
 201 -133 220 -105 233 -87 c 1
 252 -139 l 1
 224 -168 199 -184 152 -184 c 0
 31 -184 28 -82 28 -44 c 1
 28 -44 l 1
EndSplineSet
Validated: 5
EndChar

StartChar: uni0283
Encoding: 667 643 509
GlifName: uni0283
Width: 350
GlyphClass: 2
Flags: MW
HStem: -184 51<46.5 77> 661 50<255 292.5>
VStem: 143 63<-65 -43 -43 18 18 512 512 566>
LayerCount: 2
Fore
SplineSet
-29 -139 m 1
 -10 -87 l 1
 1 -102 22 -133 71 -133 c 0
 113 -133 138 -99 143 -65 c 1
 143 512 l 1
 143 570 l 2
 143 685 230 711 280 711 c 0
 323 711 352 697 379 678 c 1
 360 626 l 1
 332 651 304 661 281 661 c 0
 228 661 206 617 206 566 c 2
 206 18 l 1
 206 -43 l 2
 206 -128 158 -165 113 -178 c 0
 98 -182 83 -184 71 -184 c 0
 11 -184 -18 -150 -29 -139 c 1
EndSplineSet
Validated: 1
EndChar

StartChar: uni0284
Encoding: 668 644 510
GlifName: uni0284
Width: 350
GlyphClass: 2
Flags: MW
HStem: -184 51<39.5 79 37 100.5> 225 50<30 144 30 144 207 321> 591 51<281 307>
VStem: 144 63<-45 -10 -10 225 275 475 475 515 515 524>
LayerCount: 2
Fore
SplineSet
-43 -139 m 1
 -24 -87 l 1
 -12 -101 10 -133 64 -133 c 0
 94 -133 144 -117 144 -45 c 2
 144 225 l 1
 30 225 l 1
 30 275 l 1
 144 275 l 1
 144 475 l 1
 144 515 l 2
 144 592 194 627 251 639 c 0
 263 641 274 642 286 642 c 0
 337 642 365 625 394 601 c 1
 375 549 l 1
 349 576 328 591 286 591 c 0
 276 591 264 590 252 586 c 0
 229 578 207 560 207 524 c 2
 207 275 l 1
 321 275 l 1
 321 225 l 1
 207 225 l 1
 207 -10 l 1
 207 -49 l 2
 207 -136 137 -184 64 -184 c 0
 15 -184 -13 -166 -43 -139 c 1
EndSplineSet
Validated: 1
EndChar

StartChar: uni0285
Encoding: 669 645 511
GlifName: uni0285
Width: 423
GlyphClass: 2
Flags: MW
HStem: -175 51<282 315 282 325.5> -10 21G<337 402 402 402> 430 50<97.5 128.5>
VStem: 174 65<-41 -39 -39 344 344 346>
LayerCount: 2
Fore
SplineSet
11 315 m 1
 11 375 l 1
 11 437.075473162 56.3221554994 480 120 480 c 0
 178 480 239 458.641791045 239 374 c 2
 239 -69 l 2
 239 -112.352941176 271 -124 293 -124 c 0
 330.41930536 -124 336.162983834 -89.5398809215 337 -71 c 1
 337 -10 l 1
 402 -10 l 1
 402 -73 l 1
 402 -132.55704698 355.001093542 -175 293 -175 c 0
 230 -175 174 -152.63224985 174 -64 c 2
 174 370 l 2
 174 420.080220922 150 430 125 430 c 0
 77.0188588008 430 76 385.18875502 76 370 c 0
 76 315 l 1
 11 315 l 1
EndSplineSet
Validated: 1
EndChar

StartChar: uni0286
Encoding: 670 646 512
GlifName: uni0286
Width: 425
GlyphClass: 2
Flags: MW
HStem: -183 21G<49 121> -173 40 -35 36<75 105> -1 21G<140.5 144> 661 50<255.5 296>
VStem: -31 46<-101 -93 -101 -68> 144 63<34.5 45 45 522 522 567>
LayerCount: 2
Fore
SplineSet
19 -98 m 0xae
 19 -38 83 1 159 1 c 0x6e
 176 1 187 -1 194 -1 c 1
 194 570 l 0
 194 685 281 711 330 711 c 0
 373 711 402 697 429 678 c 1
 410 626 l 1
 383 651 362 661 330 661 c 0
 259.429518426 661 257 600 257 567 c 1
 257 -19 l 1
 296.694656489 -34 385.015267176 -79 387 -173 c 1
 323 -173 l 1x5e
 319.704315528 -141.690997515 279 -92 247 -72 c 1
 243 -89 216 -183 126 -183 c 0
 72 -183 19 -154 19 -98 c 0xae
65 -93 m 0
 65 -109 73 -133 123 -133 c 0
 150 -133 183 -122 191 -43 c 1
 178 -39 164 -35 146 -35 c 0
 104 -35 65 -58.9852972966 65 -93 c 0
EndSplineSet
Validated: 1
EndChar

StartChar: uni0287
Encoding: 671 647 513
GlifName: uni0287
Width: 379
GlyphClass: 2
Flags: MW
HStem: -135 21G<202 263 202 202> 0 50<47 202 47 202 264 359> 428 52<150 174>
VStem: 202 62<-135 291 0 291 50 291 50 327 50 327>
LayerCount: 2
Fore
SplineSet
29 436 m 5
 67.2105263158 462 107.157894737 480 161 480 c 0
 256.086141353 480 264 396.592241896 264 327 c 2
 264 50 l 1
 359 50 l 1
 359 0 l 1
 263 0 l 1
 263 -135 l 1
 202 -135 l 1
 202 0 l 1
 47 0 l 1
 47 50 l 1
 202 50 l 1
 202 328.134277344 l 2
 202 366 200.25 428 144 428 c 0
 100 428 58 401 42 387 c 1
 29 436 l 5
EndSplineSet
Validated: 1
EndChar

StartChar: uni0288
Encoding: 672 648 514
GlifName: uni0288
Width: 379
GlyphClass: 2
Flags: MW
HStem: -184 51<238 275.5 238 278.5> 422 50<19 115 19 114 176 303> 587 20G<115 176 176 176>
VStem: 115 61<472 607>
LayerCount: 2
Fore
SplineSet
19 422 m 1
 19 472 l 1
 115 472 l 1
 115 607 l 1
 176 607 l 1
 176 472 l 1
 303 472 l 1
 303 422 l 1
 176 422 l 1
 176 16 l 1
 176 -42 l 2
 176 -123 226 -133 250 -133 c 0
 301 -133 323 -97 330 -87 c 1
 349 -139 l 1
 334 -153 309 -184 248 -184 c 0
 197 -184 114 -155 114 -42 c 2
 114 422 l 1
 19 422 l 1
EndSplineSet
Validated: 1
EndChar

StartChar: uni0289
Encoding: 673 649 515
GlifName: uni0289
Width: 575
GlyphClass: 2
Flags: MW
HStem: -8 21G<171.5 262> 0 39 224 50<22 109 22 109 174 400 465 552> 452 20G<109 174 174 174 400 465 465 465>
VStem: 109 65<134 190 190 224 274 472> 400 65<203 224 0 224 274 472>
LayerCount: 2
Fore
SplineSet
22 224 m 1xbc
 22 274 l 1
 109 274 l 1
 109 472 l 1
 174 472 l 1
 174 274 l 1
 400 274 l 1
 400 472 l 1
 465 472 l 1
 465 274 l 1
 552 274 l 1
 552 224 l 1
 465 224 l 1
 465 0 l 1
 402 0 l 1x7c
 402 51 l 2
 402 63 401 74 401 86 c 1
 366 28 298 -8 226 -8 c 0
 117 -8 109 69 109 134 c 2
 109 224 l 1
 22 224 l 1xbc
174 121 m 2
 174 60 189 39 266 39 c 0
 332 39 400 70 400 203 c 2
 400 224 l 1
 174 224 l 1
 174 190 l 1
 174 121 l 2
EndSplineSet
Validated: 1
EndChar

StartChar: uni028A
Encoding: 674 650 516
GlifName: uni028A_
Width: 583
GlyphClass: 2
Flags: MW
HStem: -17 51<245 337.5 245 355> 416 56<58 220 58 159 423 423 423 423 423 524>
VStem: 73 64<161 246> 73 147 445 65<161.5 210 152 259>
LayerCount: 2
Fore
SplineSet
58 416 m 1xe8
 58 472 l 1
 220 472 l 1xd8
 216 370 137 309 137 210 c 0
 137 112 199 34 291 34 c 0
 384 34 445 113 445 210 c 0
 445 308 365 373 363 472 c 1
 524 472 l 1
 524 416 l 1
 423 416 l 1
 423 416 l 1
 459 331 510 287 510 210 c 1
 510 210 l 1
 510 94 419 -17 291 -17 c 0
 166 -17 73 92 73 210 c 0
 73 282 110 309 159 416 c 1
 58 416 l 1xe8
EndSplineSet
Validated: 5
EndChar

StartChar: uni028B
Encoding: 675 651 517
GlifName: uni028B_
Width: 492
GlyphClass: 2
Flags: MW
HStem: -8 50<192 274 192 287> 452 20G<80 145 145 145> 460 20G<414 414>
VStem: 80 65<155 160 160 472> 380 64<212 311>
LayerCount: 2
Fore
SplineSet
80 155 m 2xb8
 80 472 l 1
 145 472 l 1xd8
 145 160 l 2
 145 105 155 42 229 42 c 0
 319 42 380 151 380 273 c 0
 380 349 365 418 351 464 c 1
 414 480 l 1
 430 420 444 357 444 274 c 0
 444 119 347 -8 227 -8 c 0
 137 -8 80 42 80 155 c 2xb8
EndSplineSet
Validated: 1
EndChar

StartChar: uni028C
Encoding: 676 652 518
GlifName: uni028C_
Width: 458
GlyphClass: 2
Flags: MW
HStem: 0 21G<14 14 14 77 379 379 379 443> 455 20G<191 265 265 265>
LayerCount: 2
Fore
SplineSet
14 0 m 1
 191 475 l 1
 265 475 l 1
 443 0 l 1
 379 0 l 1
 228 408 l 1
 77 0 l 1
 14 0 l 1
EndSplineSet
Validated: 1
EndChar

StartChar: uni028D
Encoding: 677 653 519
GlifName: uni028D_
Width: 692
GlyphClass: 2
Flags: MW
HStem: 0 21G<14 14 14 75 318 318 318 375 614 614 614 676> 455 20G<159 231 231 231 467 531 531 531>
LayerCount: 2
Fore
SplineSet
14 0 m 1
 159 475 l 1
 231 475 l 1
 306 226 l 1
 306 226 l 1
 334 130 344 97 349 65 c 1
 359 129 462 456 467 475 c 1
 531 475 l 1
 676 0 l 1
 614 0 l 1
 500 375 525 289 494 408 c 1
 489 377 470 318 453 258 c 2
 375 0 l 1
 318 0 l 1
 231 285 219 326 196 408 c 1
 180 348 l 1
 75 0 l 1
 14 0 l 1
EndSplineSet
Validated: 5
EndChar

StartChar: uni028E
Encoding: 678 654 520
GlifName: uni028E_
Width: 458
GlyphClass: 2
Flags: MW
HStem: 0 21G<14 14 14 77 378 378 378 443> 597 50<340 363.5 307.5 365>
LayerCount: 2
Fore
SplineSet
14 0 m 1
 73 150 127 300 186 450 c 2
 208 506 l 1
 208 506 l 1
 232 572 265 647 350 647 c 0
 377 647 409 643 427 640 c 1
 432 585 l 1
 413 589 380 597 350 597 c 0
 330 597 315 591 304 581 c 0
 281 561 269 526 256 489 c 1
 256 489 l 1
 253 481 252 476 252 472 c 0
 252 466 254 461 258 452 c 1
 258 452 l 1
 258 452 l 1
 258 452 l 1
 443 0 l 1
 378 0 l 1
 343 86 309 172 274 258 c 0
 235 362 229 377 223 408 c 1
 216 371 147 188 107 80 c 2
 77 0 l 1
 14 0 l 1
EndSplineSet
Validated: 5
EndChar

StartChar: uni028F
Encoding: 679 655 521
GlifName: uni028F_
Width: 436
GlyphClass: 2
Flags: MW
HStem: 0 21G<186 249 186 186> 452 20G<8 83 83 83 353 426 426 426>
VStem: 186 63<0 174 0 175 0 181.5>
LayerCount: 2
Fore
SplineSet
8 472 m 1
 83 472 l 1
 164 341 l 2
 182 312 200 282 218 253 c 1
 353 472 l 1
 426 472 l 1
 257 202 l 2
 249 189 249 188 249 174 c 2
 249 0 l 1
 186 0 l 1
 186 175 l 2
 186 188 183 192 177 202 c 0
 121 292 64 382 8 472 c 1
EndSplineSet
Validated: 1
EndChar

StartChar: uni0290
Encoding: 680 656 522
GlifName: uni0290
Width: 450
GlyphClass: 2
Flags: MW
HStem: -183 50<466.5 494.5 465 500> 0 50<117 371> 423 49<44 332 44 419>
VStem: 371 48
LayerCount: 2
Fore
SplineSet
29 0 m 1
 29 34 l 1
 332 423 l 1
 44 423 l 1
 44 472 l 1
 419 472 l 1
 419 439 l 1
 117 50 l 1
 423 50 l 1
 423 -22 l 2
 423 -30 422 -37 422 -44 c 0
 422 -115 453 -133 477 -133 c 0
 512 -133 526 -107 534 -87 c 1
 544 -113 l 2
 547 -122 550 -131 554 -139 c 1
 543 -155 523 -183 477 -183 c 0
 456 -183 438 -176 424 -166 c 0
 380 -135 371 -82 371 -39 c 2
 371 0 l 1
 29 0 l 1
EndSplineSet
Validated: 1
EndChar

StartChar: uni0291
Encoding: 681 657 523
GlifName: uni0291
Width: 508
GlyphClass: 2
Flags: MW
HStem: -125 21G<126 188 126 126> 0 60<125 191 125 252 289 312 312 322> 152 51<371 404> 422 50<44 327 44 420>
VStem: 437 61<79 118>
LayerCount: 2
Fore
SplineSet
29 0 m 1
 29 24 l 6
 29 39 35.5502097751 49.3098501305 40 55 c 6
 327 422 l 1
 44 422 l 1
 44 472 l 1
 420 472 l 1
 420 438 l 1
 125 60 l 1
 227 60 l 1
 267 129 328 203 395 203 c 0
 448 203 498 164 498 106 c 0
 498 32 417 -7.10271685217e-015 359 0 c 2
 252 0 l 1
 188 -125 l 1
 126 -125 l 1
 191 0 l 1
 29 0 l 1
289 60 m 1
 340 60 l 2
 380.352 60 437 67 437 106 c 0
 437 130 417 152 391 152 c 0
 351 152 310 94 289 60 c 1
EndSplineSet
Validated: 1
EndChar

StartChar: uni0292
Encoding: 682 658 524
GlifName: uni0292
Width: 450
GlyphClass: 2
Flags: MW
HStem: -175 50<196.5 286 196.5 290.5> 416 56<43 100 43 419 100 215 215 329>
VStem: 364 55
LayerCount: 2
Fore
SplineSet
43 -103 m 1
 62 -50 l 1
 110 -97 162 -125 231 -125 c 0
 341 -125 364 -38 364 9 c 0
 364 27 362 94 258 126 c 0
 215 139 171 140 130 142 c 1
 329 416 l 1
 215 416 l 1
 100 416 l 1
 43 416 l 1
 43 472 l 1
 419 472 l 1
 419 435 l 1
 359 352 298 270 238 187 c 1
 318 172 428 116 428 12 c 0
 428 -79 352 -175 229 -175 c 0
 155 -175 93 -146 43 -103 c 1
EndSplineSet
Validated: 1
EndChar

StartChar: uni0293
Encoding: 683 659 525
GlifName: uni0293
Width: 450
GlyphClass: 2
Flags: MW
HStem: -175 21G<181.5 272.5> -172 47 -25 50<180.5 191 191 194> 416 56<43 91 43 419 91 186 186 330>
VStem: 33 51<-93.5 -50 -93.5 -35> 364 55
LayerCount: 2
Fore
SplineSet
33 -75 m 0xbc
 33 5 135 25 200 25 c 0
 253 25 308 14 362 -21 c 1
 363 -10 364 0 364 11 c 0
 364 71 314 101 294 111 c 0
 244 135 184 142 130 142 c 1
 330 416 l 1
 186 416 l 1
 91 416 l 1
 43 416 l 1
 43 472 l 1
 419 472 l 1
 419 435 l 1
 359 352 299 270 239 187 c 1
 316 173 429 117 429 12 c 0
 429 -18 420 -43 412 -64 c 1
 439 -94 457 -128 466 -172 c 1
 402 -172 l 1x7c
 399 -162 395 -152 392 -142 c 2
 378 -114 l 1
 360 -129 318 -175 227 -175 c 0
 136 -175 33 -155 33 -75 c 0xbc
84 -73 m 0
 84 -114 136 -125 212 -125 c 2
 223 -125 l 2
 284 -125 314 -109 342 -73 c 1
 292 -33 244 -25 194 -25 c 2
 191 -25 l 2
 170 -25 84 -27 84 -73 c 0
EndSplineSet
Validated: 1
EndChar

StartChar: uni0294
Encoding: 684 660 526
GlifName: uni0294
Width: 525
GlyphClass: 2
Flags: MW
HStem: 0 21G<214 278 214 214> 652 51<213 293.5>
VStem: 214 64<0 349 0 389 0 389> 402 64<476 558 466.5 575.5>
LayerCount: 2
Fore
SplineSet
58 647 m 1
 115 682 177 703 249 703 c 0
 427 703 466 594 466 522 c 0
 466 411 355 368 278 349 c 1
 278 0 l 1
 214 0 l 1
 214 389 l 1
 296 399 402 428 402 524 c 0
 402 627 337 652 250 652 c 0
 176 652 125 629 77 594 c 1
 58 647 l 1
EndSplineSet
Validated: 1
EndChar

StartChar: uni0295
Encoding: 685 661 527
GlifName: uni0295
Width: 525
GlyphClass: 2
Flags: MW
HStem: 0 21G<246 310 246 246> 652 51<231 308>
VStem: 58 65<475 558> 246 64<0 349 349 349>
LayerCount: 2
Fore
SplineSet
58 522 m 0
 58 594 98 703 275 703 c 0
 352 703 409 682 466 647 c 1
 447 594 l 1
 394 632 343 652 273 652 c 0
 189 652 123 626 123 525 c 0
 123 425 235 397 310 389 c 1
 310 0 l 1
 246 0 l 1
 246 349 l 1
 169 368 58 411 58 522 c 0
EndSplineSet
Validated: 1
EndChar

StartChar: uni0296
Encoding: 686 662 528
GlifName: uni0296
Width: 525
GlyphClass: 2
Flags: MW
HStem: -8 50<238.5 317.5 222 342.5> 675 20G<188 253 253 253>
VStem: 188 65<424 695 424 695 424 695> 402 64<158.5 254.5>
LayerCount: 2
Fore
SplineSet
58 62 m 1
 77 115 l 1
 124 75 183 42 261 42 c 0
 374 42 402 109 402 203 c 0
 402 306 315 375 215 375 c 2
 188 375 l 1
 188 695 l 1
 253 695 l 1
 253 424 l 1
 352 413 466 339 466 206 c 0
 466 111 424 -8 261 -8 c 0
 216 -8 140 0 58 62 c 1
EndSplineSet
Validated: 1
EndChar

StartChar: uni0297
Encoding: 687 663 529
GlifName: uni0297
Width: 525
GlyphClass: 2
Flags: MW
HStem: -175 55<210.5 302.5 210.5 323.5> 0 21G<70 70 402 466 466 466> 651 56<215.5 315>
VStem: 70 65<0 9 9 510> 396 64<520 520>
LayerCount: 2
Fore
SplineSet
70 0 m 2
 70 512 l 2
 70 668 169 707 262 707 c 0
 372 707 459 653 460 520 c 1
 396 520 l 1
 395 606 368 651 262 651 c 0
 137 651 135 582 135 510 c 2
 135 9 l 2
 135 -79 157 -120 264 -120 c 0
 341 -120 400 -105 402 0 c 1
 466 0 l 1
 464 -118 385 -175 262 -175 c 0
 108 -175 71 -78 70 0 c 2
EndSplineSet
Validated: 1
EndChar

StartChar: uni0298
Encoding: 688 664 530
GlifName: uni0298
Width: 783
GlyphClass: 2
Flags: MW
HStem: -17 53<317.5 466.5 317.5 481> 309 77<380 401.5> 659 52<318 391 391 391 391 391>
VStem: 58 70<260.5 444 260.5 451.5> 353 77<337.5 357 336.5 358> 654 70<263 444>
LayerCount: 2
Fore
SplineSet
353 348 m 0
 353 368 369 386 391 386 c 0
 415 386 430 367 430 347 c 0
 430 326 412 309 391 309 c 0
 367 309 353 327 353 348 c 0
58 347 m 0
 58 556 211 711 391 711 c 0
 571 711 724 556 724 347 c 0
 724 138 571 -17 391 -17 c 0
 211 -17 58 138 58 347 c 0
128 347 m 0
 128 174 244 36 391 36 c 0
 542 36 654 179 654 347 c 0
 654 541 536 659 391 659 c 1
 391 659 l 1
 391 659 l 1
 245 659 128 541 128 347 c 0
EndSplineSet
Validated: 5
EndChar

StartChar: uni0299
Encoding: 689 665 531
GlifName: uni0299
Width: 458
GlyphClass: 2
Flags: MW
HStem: 0 53<112 194 194 197.5 112 224> 220 51<112 193 193 197 112 193> 419 53<112 189 112 112>
VStem: 50 62<53 53 53 220 271 419> 332 60<330.5 363.5> 350 42 350 61<104 130 104 149.5>
LayerCount: 2
Fore
SplineSet
50 0 m 1xf2
 50 472 l 1
 255 472 l 2
 364.90960452 472 392 396 392 351 c 0xf4
 392 273 310 247 310 247 c 1
 366.092892009 232.687708775 411 196.624277432 411 130 c 1
 411 78 364.836734694 -1.34506763189e-014 255 0 c 2
 50 0 l 1xf2
112 53 m 1
 236 53 l 1
 289.041666667 53 350 78 350 132 c 1
 350 167 326.25 220 236 220 c 2
 112 220 l 1
 112 53 l 1
112 271 m 1
 236 271 l 2
 304.571428571 271 332 311 332 350 c 0xf8
 332 377 319.047619048 419 236 419 c 2
 112 419 l 1
 112 271 l 1
EndSplineSet
Validated: 1
EndChar

StartChar: uni029A
Encoding: 690 666 532
GlifName: uni029A_
Width: 525
GlyphClass: 2
Flags: MW
HStem: -17 52<211.5 311 211.5 327> 230 50<198 291 265 291> 439 50<223 309>
VStem: 43 65<103 148.5 103 172.5> 430 65<189.5 286.5>
LayerCount: 2
Fore
SplineSet
43 131 m 0
 43 214 154 248 154 248 c 1
 115 265 58 293 58 360 c 0
 58 433 147 489 253 489 c 0
 398 489 495 368 495 238 c 0
 495 109 400 -17 254 -17 c 0
 142 -17 43 48 43 131 c 0
108 132 m 0
 108 74 170 35 253 35 c 0
 369 35 430 142 430 237 c 0
 430 336 366 439 252 439 c 0
 194 439 150 421 132 393 c 0
 126 384 123 372 123 361 c 0
 123 346 129 305 200 288 c 0
 217 284 227 284 291 280 c 1
 291 230 l 1
 265 230 l 2
 131 230 108 165 108 132 c 0
EndSplineSet
Validated: 1
EndChar

StartChar: uni029B
Encoding: 691 667 533
GlifName: uni029B_
Width: 499
GlyphClass: 2
Flags: MW
HStem: -12 43<233 302.5 233 310> 157 50<279 362 279 426> 441 43<239 306> 611 51<484.5 504.5>
VStem: 52 65<182.5 298.5 182.5 302> 362 64<44 157 157 157> 376 50<458 518>
LayerCount: 2
Fore
SplineSet
52 236 m 0xfc
 52 368 148 484 280 484 c 0
 347 484 371 458 376 458 c 1
 376 519 l 1
 376 519 l 1
 376 519 l 1xfa
 376 604 419 644 459 657 c 0
 469 660 478 662 487 662 c 0
 528 662 549 646 570 626 c 1
 552 577 l 1
 537 595 519 611 490 611 c 0
 479 611 467 608 458 602 c 0
 439 589 426 562 426 518 c 2
 426 403 l 1
 371 372 l 1
 358 407 334 441 278 441 c 0
 200 441 117 361 117 236 c 0
 117 129 183 31 283 31 c 0
 322 31 346 41 362 44 c 1
 362 157 l 1
 279 157 l 1
 279 207 l 1
 426 207 l 1
 426 21 l 1
 386 3 339 -12 281 -12 c 0
 157 -12 52 94 52 236 c 0xfc
EndSplineSet
Validated: 5
EndChar

StartChar: uni029C
Encoding: 692 668 534
GlifName: uni029C_
Width: 469
GlyphClass: 2
Flags: MW
HStem: 0 21G<49 49 49 114 354 354 354 419> 220 50<114 354 114 354> 452 20G<49 114 114 114 354 419 419 419>
VStem: 49 65<0 220 270 472> 354 65<0 220 220 220 270 472 0 472>
LayerCount: 2
Fore
SplineSet
49 0 m 1
 49 472 l 1
 114 472 l 1
 114 270 l 1
 354 270 l 1
 354 472 l 1
 419 472 l 1
 419 0 l 1
 354 0 l 1
 354 220 l 1
 114 220 l 1
 114 0 l 1
 49 0 l 1
EndSplineSet
Validated: 1
EndChar

StartChar: uni029D
Encoding: 693 669 535
GlifName: uni029D_
Width: 334
GlyphClass: 2
Flags: MW
HStem: -175 53<66 81.5> -25 50<91 120 120 139 202 317> 452 20G<139 202 202 202> 617 78<124 202 124 202>
VStem: -48 51<-89.5 -61.5 -89.5 -29.5> 124 78<617 695> 139 63<-53 -25 -66 -25 25 472>
LayerCount: 2
Fore
SplineSet
-48 -76 m 0xfc
 -48 17 58 25 91 25 c 2
 139 25 l 1
 139 472 l 1xfa
 202 472 l 1
 202 25 l 1
 317 25 l 1
 317 -25 l 1
 202 -25 l 1
 202 -107 173 -153 114 -170 c 0
 102 -173 88 -175 75 -175 c 0
 11 -175 -48 -135 -48 -76 c 0xfc
3 -76 m 0
 3 -103 27 -116 51 -120 c 0
 57 -121 63 -122 69 -122 c 0
 100 -122 139 -108 139 -53 c 2
 139 -25 l 1
 120 -25 l 2
 22 -25 3 -47 3 -76 c 0
124 617 m 1xfc
 124 695 l 1
 202 695 l 1
 202 617 l 1
 124 617 l 1xfc
EndSplineSet
Validated: 1
EndChar

StartChar: uni029E
Encoding: 694 670 536
GlifName: uni029E_
Width: 487
GlyphClass: 2
Flags: MW
HStem: -167 21G<279 339 279 279> 0 21G<-24 55 -24 -24> 452 20G<-48 22 22 22 281 339 339 339>
VStem: 281 58<307 472 -167 472>
LayerCount: 2
Fore
SplineSet
-48 472 m 1
 22 472 l 1
 193 220 l 1
 281 307 l 1
 281 472 l 1
 339 472 l 1
 339 -167 l 1
 279 -167 l 1
 279 226 l 1
 204 151 130 75 55 0 c 1
 -24 0 l 1
 152 178 l 1
 -48 472 l 1
EndSplineSet
Validated: 1
EndChar

StartChar: uni029F
Encoding: 695 671 537
GlifName: uni029F_
Width: 366
GlyphClass: 2
Flags: MW
HStem: 0 43<114 186 186 258 258 330> 452 20G<49 114 114 114>
VStem: 49 65<43 472 43 472 43 472>
LayerCount: 2
Fore
SplineSet
49 0 m 1
 49 472 l 1
 114 472 l 1
 114 43 l 1
 186 43 l 1
 258 43 l 1
 258 43 l 1
 330 43 l 1
 330 0 l 1
 49 0 l 1
EndSplineSet
Validated: 1
EndChar

StartChar: uni02A0
Encoding: 696 672 538
GlifName: uni02A_0
Width: 550
GlyphClass: 2
Flags: MW
HStem: -167 21G<371 435 371 371> -8 50<224.5 273.5> 429 51<233.5 288 189.5 304> 591 51<525.5 564.5 504.5 565.5>
VStem: 46 65<177.5 294.5 177.5 304.5> 372 63<149 315 315 315 393 472 -167 530.5>
LayerCount: 2
Fore
SplineSet
46 235 m 0
 46 374 137 480 242 480 c 0
 334 480 368 396 372 393 c 1
 372 472 l 2
 372 589 466 642 543 642 c 0
 586 642 610 628 636 596 c 1
 617 544 l 1
 606 565 588 591 543 591 c 0
 508 591 435 567 435 472 c 2
 435 -167 l 1
 371 -167 l 1
 371 42 l 2
 371 54 370 65 370 77 c 1
 359 58 315 -8 232 -8 c 0
 134 -8 46 94 46 235 c 0
111 235 m 0
 111 120 187 42 262 42 c 0
 326 42 372 102 372 149 c 2
 372 315 l 2
 370 366 335 429 273 429 c 0
 194 429 111 354 111 235 c 0
EndSplineSet
Validated: 1
EndChar

StartChar: uni02A1
Encoding: 697 673 539
GlifName: uni02A_1
Width: 525
GlyphClass: 2
Flags: MW
HStem: 0 21G<214 278 214 214> 209 51<68 214 68 214 278 425> 652 51<213 293.5>
VStem: 214 64<0 209 0 209 260 349> 402 64<476 558 466.5 575.5>
LayerCount: 2
Fore
SplineSet
58 647 m 1
 115 682 177 703 249 703 c 0
 427 703 466 594 466 522 c 0
 466 411 355 368 278 349 c 1
 278 260 l 1
 425 260 l 1
 425 209 l 1
 278 209 l 1
 278 0 l 1
 214 0 l 1
 214 209 l 1
 68 209 l 1
 68 260 l 1
 214 260 l 1
 214 389 l 1
 296 399 402 428 402 524 c 0
 402 627 337 652 250 652 c 0
 176 652 125 629 77 594 c 1
 58 647 l 1
EndSplineSet
Validated: 1
EndChar

StartChar: uni02A2
Encoding: 698 674 540
GlifName: uni02A_2
Width: 525
GlyphClass: 2
Flags: MW
HStem: 0 21G<246 310 246 246> 209 51<99 246 99 246 310 456> 652 51<230.5 308>
VStem: 58 65<474 558> 246 64<0 209 0 209 260 349 349 349>
LayerCount: 2
Fore
SplineSet
58 522 m 0
 58 594 98 703 275 703 c 0
 352 703 409 682 466 647 c 1
 447 594 l 1
 394 632 343 652 273 652 c 0
 188 652 123 627 123 525 c 0
 123 423 236 399 310 389 c 1
 310 260 l 1
 456 260 l 1
 456 209 l 1
 310 209 l 1
 310 0 l 1
 246 0 l 1
 246 209 l 1
 99 209 l 1
 99 260 l 1
 246 260 l 1
 246 349 l 1
 169 368 58 411 58 522 c 0
EndSplineSet
Validated: 1
EndChar

StartChar: uni02A3
Encoding: 699 675 541
GlifName: uni02A_3
Width: 884
GlyphClass: 2
Flags: MW
HStem: -8 21G<182 256.5> 0 42<371 371> 452 20G<437 624 624 812 812 812> 480 0<235 235> 675 20G<372 435 435 435>
VStem: 46 65<162.5 302.5> 435 0<0 0 695 695>
LayerCount: 2
Fore
SplineSet
46 236 m 0xbe
 46 369 129 480 235 480 c 0
 295 480 338 451 372 410 c 1
 372 695 l 1
 435 695 l 1
 435 0 l 1
 370 0 l 1x7e
 370 73 l 1
 336 23 285 -8 228 -8 c 0
 136 -8 46 89 46 236 c 0xbe
111 236 m 0
 111 73 207 42 260 42 c 0
 330 42 371 105 371 134 c 2
 371 352 l 2
 371 387 327 430 272 430 c 0
 208 430 111 393 111 236 c 0
452 0 m 1
 452 34 l 1
 755 423 l 1
 467 423 l 1
 467 472 l 1
 842 472 l 1
 842 439 l 1
 540 50 l 1
 846 50 l 1
 846 0 l 1
 452 0 l 1
EndSplineSet
Validated: 1
EndChar

StartChar: uni02A4
Encoding: 700 676 542
GlifName: uni02A_4
Width: 742
GlyphClass: 2
Flags: MW
HStem: -175 50<454 560.5 454 566.5> -8 50<178.5 230.5> 416 64 430 50<217 237 167.5 262.5> 452 20G<314 314 377 711 711 711> 675 20G<314 377 377 377>
VStem: 46 65<235 235 235 259 235 304.5> 313 64<28 141 53 141 109 141 165 373 373 381> 656 55
LayerCount: 2
Fore
SplineSet
46 235 m 0xcf80
 46 374 122 480 213 480 c 0
 261 480 291 455 313 430 c 1xd780
 313 695 l 1
 378 695 l 1
 378 472 l 1
 711 472 l 1
 711 435 l 1
 479 184 l 1
 600 167 720 126 720 13 c 4
 720 -75 638 -175 495 -175 c 0
 411 -175 339 -144 284 -103 c 1
 303 -50 l 1
 354 -91 412 -125 496 -125 c 0
 625 -125 656 -41 656 11 c 4
 656 99 545 141 378 141 c 1
 378 0 l 1
 313 0 l 1
 313 53 l 1
 290 23 258 -8 203 -8 c 0
 111 -8 46 109 46 235 c 0xcf80
111 239 m 1
 111 171.414766035 119.468993112 42 237 42 c 0
 283 42 308 101 313 129.09375 c 1
 313 373 l 21
 303.443394904 401.832059868 275.608695652 430 237 430 c 0
 184.218045113 430 116.864661654 392.023391813 111 239 c 1
378 165 m 1
 610 416 l 1
 378 416 l 1xe780
 378 165 l 1
EndSplineSet
Validated: 1
EndChar

StartChar: uni02A5
Encoding: 701 677 543
GlifName: uni02A_5
Width: 984
GlyphClass: 2
Flags: MW
HStem: -125 21G<519 581 519 519> -8 21G<182 256.5> 0 42<371 371> 60 0<518 518 620 620 682 682> 203 0<788 788> 430 50<240 265 182 281> 452 20G<437 625 625 813 813 813> 675 20G<372 435 435 435>
VStem: 46 65<162.5 302.5> 371 64<0 42 42 47 134 243 243 352 352 363.5> 830 61<90 118.5>
LayerCount: 2
Fore
SplineSet
46 236 m 0xd9e0
 46 369 129 480 235 480 c 0
 295 480 338 451 372 410 c 1
 372 695 l 1
 435 695 l 1
 435 0 l 1
 370 0 l 1xbde0
 370 53 l 1
 336 15.3456790123 285 -8 228 -8 c 0
 136 -8 46 89 46 236 c 0xd9e0
111 236 m 0
 111 72 207 42 260 42 c 0
 330 42 351 67.6086956522 371 94 c 1
 371 372 l 1
 345 402 312.389815377 430 272 430 c 0
 208 430 111 393 111 236 c 0
452 0 m 1
 452 40 l 1
 750 422 l 1
 467 422 l 1
 467 472 l 1
 843 472 l 1xbbe0
 843 438 l 1
 548 60 l 1
 650 60 l 1
 688 129 731 203 818 203 c 0
 871 203 921 164 921 106 c 0
 921 32 840 3 782 0 c 1
 675 0 l 1
 611 -125 l 1
 549 -125 l 1
 614 0 l 1
 452 0 l 1
694 60 m 1
 704.700536006 60 714.460365549 59.3469387755 724.89212828 59.3469387755 c 0
 769.725701964 59.3469387755 830 64.277085111 830 106 c 0
 830 131 809 152 784 152 c 0
 747.859865075 152 709.893376618 91.5218636249 694 60 c 1
EndSplineSet
Validated: 1
EndChar

StartChar: uni02A6
Encoding: 702 678 544
GlifName: uni02A_6
Width: 671
GlyphClass: 2
Flags: MW
HStem: -8 52<271 482> 422 50<19 116 19 114 176 291> 435 50<445 517.5> 655 20G<116 176 176 176>
VStem: 116 60<472 675> 326 58<340 374.5 340 378> 606 58<109 139 103 159>
LayerCount: 2
Fore
SplineSet
19 422 m 1xde
 19 472 l 1
 116 472 l 1
 116 675 l 1
 176 675 l 1
 176 472 l 1
 291 472 l 1
 291 422 l 1
 176 422 l 1xde
 176 139 l 2
 176 91 182 44 271 44 c 2
 489 44 l 2
 587 44 606 92 606 126 c 0
 606 192 538 204 475 217 c 0
 414 229 326 263 326 352 c 0
 326 404 355 485 494 485 c 0
 552 485 589 476 645 451 c 1
 636 396 l 1
 583 424 547 435 488 435 c 0xbe
 402 435 384 389 384 360 c 0
 384 320 424 297 441 291 c 0
 510 267 582 280 638 208 c 0
 662 177 664 147 664 131 c 0
 664 75 640 -8 482 -8 c 2
 192 -8 l 2
 169 -8 114 -2 114 134 c 2
 114 422 l 1
 19 422 l 1xde
EndSplineSet
Validated: 1
EndChar

StartChar: uni02A7
Encoding: 703 679 545
GlifName: uni02A_7
Width: 554
GlyphClass: 2
Flags: MW
HStem: -184 51<261 314 259 315.5> -8 52<239.5 247.5> 422 50<19 116 19 114 177 177 177 349> 661 50<461 497.5 461 498>
VStem: 116 60<472 675> 349 63<-45 32 32 32 159 422 422 422 472 560 560 560>
LayerCount: 2
Fore
SplineSet
19 422 m 1
 19 472 l 1
 116 472 l 1
 116 675 l 1
 176 675 l 1
 176 472 l 1
 349 472 l 1
 349 560 l 1
 350.800549994 648.226949696 382.91159817 711 477 711 c 0
 518 711 542 702 575 678 c 1
 557 626 l 1
 534 646 516 661 480 661 c 0
 416 661 412 603 412 579 c 2
 412 -45 l 1
 412 -152 348.577540182 -184 283 -184 c 0
 239 -184 215 -170 186 -139 c 1
 205 -87 l 1
 217 -105 236 -133 282 -133 c 0
 346 -133 349 -75 349 -48 c 2
 349 32 l 1
 315 8 273 -8 222 -8 c 0
 168 -8 114 24 114 139 c 2
 114 422 l 1
 19 422 l 1
176 134 m 0
 176 62 218 44 261 44 c 0
 296 44 349 69 349 159 c 2
 349 422 l 1
 176 422 l 1
 176 134 l 0
EndSplineSet
Validated: 1
EndChar

StartChar: uni02A8
Encoding: 704 680 546
GlifName: uni02A_8
Width: 720
GlyphClass: 2
Flags: MW
HStem: -125 21G<287 287 287 337> -8 52<205.5 227.5 517.5 527> 193 0<575 575> 472 0<19 19 115 115 176 176 331 331> 472 13 587 20G<115 176 176 176>
VStem: 176 0<138 138 422 422 472 472 607 607> 300 65<237 237 237 297 185.5 301.5 237 237> 641 56<81.5 117>
LayerCount: 2
Fore
SplineSet
19 422 m 1xf780
 19 472 l 1
 115 472 l 1
 115 607 l 1
 176 607 l 1
 176 472 l 1
 331 472 l 1
 331 422 l 1
 176 422 l 1
 176 138 l 2
 176 110 178 44 233 44 c 0
 298 44 329 77 336 85 c 1
 349 36 l 1
 307 10 258 -8 197 -8 c 0
 117 -8 114 88 114 131 c 2
 114 422 l 1
 19 422 l 1xf780
287 -125 m 1
 319.281497335 -69.3422459735 352.343527284 -13.4287287706 387 40 c 1
 336.573871661 78.7893294915 300 150.670414678 300 237 c 0
 300 366 389 485 521 485 c 0xef80
 597.500991382 485 627.278546364 473.080782727 685 442 c 1
 676 387 l 1
 626 417 597 433 521 433 c 0
 427 433 365 357 365 237 c 0
 365 134 411 96 417 86 c 1
 459 156 512 193 575 193 c 0
 644 193 697 156 697 100 c 0
 697 19.4045115053 601.34150135 -8 519 -8 c 0
 482 -8 461 -2 427 14 c 1
 392 -32 363 -75 337 -125 c 1
 287 -125 l 1
457 57 m 1
 480.215858818 46.8430617672 493.488786383 44 522 44 c 0
 604 44 641 64 641 99 c 0
 641 135 601 143 578 143 c 0
 529 143 493 117 457 57 c 1
EndSplineSet
Validated: 1
EndChar

StartChar: uni02A9
Encoding: 705 681 547
GlifName: uni02A_9
Width: 732
GlyphClass: 2
Flags: MW
HStem: -175 53<495.5 522 485.5 559> 0 21G<113 177 113 113 296 361 296 296 651 651> 430 42 460 20G<468 578.5> 652 51<271.5 289 256.5 294>
VStem: 113 62<0 580 422 580 472 536 536 552.5> 175 188<472 695 472 695> 588 63<-47 -13.5>
LayerCount: 2
Fore
SplineSet
28 422 m 1xed
 28 472 l 1
 113 472 l 1
 113 576 l 2xed
 113 656.852608634 169.516431765 703 281 703 c 0
 297 703 323 702 363 695 c 1
 363 638 l 1xeb
 326.117647059 648 303.764705882 652 268 652 c 0
 221.778010641 652 175 632.812082226 175 580 c 2
 175 472 l 1
 358 472 l 1xed
 358 375 l 1
 381 426 428 480 508 480 c 0xdd
 649 480 651 372 651 315 c 2
 651 0 l 2
 651 -94 596 -175 522 -175 c 0
 469 -175 424 -157 401 -146 c 1
 424 -95 l 1
 448 -110 468 -122 503 -122 c 0
 575.626120329 -122 587 -50.2029061743 587 47 c 2
 587 310 l 2
 587 344.06030334 582.044638672 430 478 430 c 0
 382 430 361 338 361 257 c 2
 361 0 l 1
 296 0 l 1
 296 422 l 1
 177 422 l 1
 177 0 l 1
 113 0 l 1
 113 422 l 1
 28 422 l 1xed
EndSplineSet
Validated: 1
EndChar

StartChar: uni02AA
Encoding: 706 682 548
GlifName: uni02A_A_
Width: 532
GlyphClass: 2
Flags: MW
HStem: -8 21G<303 339 339 339> 44 0<338 338> 435 50<336 339 339 359.5> 675 20G<80 143 143 143>
VStem: 143 0<0 0 116 116 463 463 695 695> 224 158 451 58<126.5 149>
LayerCount: 2
Fore
SplineSet
80 0 m 1
 80 695 l 1
 143 695 l 1
 143 0 l 1
 80 0 l 1
160 39 m 1
 170 97 l 1
 216 68 262 44 338 44 c 0
 430 44 451 93 451 126 c 0
 451 172 407 195 382 203 c 0
 326 221 166 222 166 352 c 0
 166 420.474461606 226.405661956 485 339 485 c 0
 397 485 435 476 491 451 c 1
 481 396 l 1
 427 424 390 435 329 435 c 0
 240 435 224 388 224 360 c 0
 224 278 351 283 406 263 c 0
 453 246 509 203 509 132 c 0
 509 52.3987377173 462.651379736 -8 339 -8 c 0
 267 -8 211 11 160 39 c 1
EndSplineSet
Validated: 1
EndChar

StartChar: uni02AB
Encoding: 707 683 549
GlifName: uni02A_B_
Width: 580
GlyphClass: 2
Flags: MW
HStem: 50 0<248 248 554 554> 472 0<175 175 550 550> 675 20G<80 143 143 143>
VStem: 80 63<0 695 0 695>
LayerCount: 2
Fore
SplineSet
160 0 m 1
 160 34 l 1
 463 423 l 1
 175 423 l 1
 175 472 l 1
 550 472 l 1
 550 439 l 1
 248 50 l 1
 554 50 l 1
 554 0 l 1
 160 0 l 1
80 0 m 1
 80 695 l 1
 143 695 l 1
 143 0 l 1
 80 0 l 1
EndSplineSet
Validated: 1
EndChar

StartChar: uni02AC
Encoding: 708 684 550
GlifName: uni02A_C_
Width: 346
GlyphClass: 2
Flags: MW
HStem: -1 21G<80 112 80 80 230 266 230 230> 511 20G<7 38 38 38 157 186 186 186 307 338 338 338>
LayerCount: 2
Fore
SplineSet
7 531 m 1
 38 531 l 1
 88 369 82 389 98 327 c 1
 101 348 152 510 157 531 c 1
 186 531 l 1
 230 389 236 368 247 327 c 1
 307 531 l 1
 338 531 l 1
 266 294 l 1
 230 294 l 1
 218 334 l 1
 218 334 l 1
 199 395 174 478 171 499 c 1
 167 470 135 373 120 322 c 2
 112 294 l 1
 80 294 l 1
 7 531 l 1
7 236 m 1
 38 236 l 1
 88 74 82 94 98 32 c 1
 101 53 152 215 157 236 c 1
 186 236 l 1
 230 94 236 73 247 32 c 1
 307 236 l 1
 338 236 l 1
 266 -1 l 1
 230 -1 l 1
 218 39 l 1
 218 39 l 1
 199 100 174 183 171 204 c 1
 167 175 135 78 120 27 c 2
 112 -1 l 1
 80 -1 l 1
 7 236 l 1
EndSplineSet
Validated: 5
EndChar

StartChar: uni02AD
Encoding: 709 685 551
GlifName: uni02A_D_
Width: 525
GlyphClass: 2
Flags: MW
HStem: 0 157<91 141 91 433 382 433 382 382> 106 51<141 382 141 141> 208 157<91 141 91 433 382 433 382 382> 314 51<141 382 141 141>
VStem: 91 50<0 106 0 157 208 314> 382 51<0 106 106 106 208 314 314 314>
LayerCount: 2
Fore
SplineSet
91 365 m 1xac
 433 365 l 1
 433 208 l 1
 382 208 l 1xac
 382 314 l 1
 141 314 l 1x9c
 141 208 l 1
 91 208 l 1
 91 365 l 1xac
91 157 m 1
 433 157 l 1
 433 0 l 1
 382 0 l 1xac
 382 106 l 1
 141 106 l 1x6c
 141 0 l 1
 91 0 l 1
 91 157 l 1
EndSplineSet
Validated: 1
EndChar

StartChar: uni02AE
Encoding: 710 686 552
GlifName: uni02A_E_
Width: 583
GlyphClass: 2
Flags: MW
HStem: -167 21G<405 469 405 405> -8 50<264.5 329.5> 430 50<68 98.5> 452 20G<405 469 469 469>
VStem: 129 65<365.5 389> 404 65
LayerCount: 2
Fore
SplineSet
-17 315 m 1xec
 -16 415 25 480 89 480 c 0xec
 141 480 194 436 194 369 c 0
 194 362 193 354 193 347 c 2
 193 202 l 2
 193 159 198 42 299 42 c 0
 385 42 401 149 404 232 c 0
 405 249 405 264 405 278 c 2
 405 472 l 1
 469 472 l 1xdc
 469 -167 l 1
 405 -167 l 1
 405 42 l 1
 393 30 362 -8 297 -8 c 0
 232 -8 128 21 128 207 c 2
 128 309 l 2
 128 329 129 350 129 370 c 0
 129 408 109 430 88 430 c 0
 48 430 48 358 48 322 c 2
 48 315 l 1
 -17 315 l 1xec
EndSplineSet
Validated: 1
EndChar

StartChar: uni02AF
Encoding: 711 687 553
GlifName: uni02A_F_
Width: 583
GlyphClass: 2
Flags: MW
HStem: -175 51<518.5 540 511.5 555> -9 21G<565 629 629 629> -8 50<266.5 329.5> 430 50<69 100> 452 20G<405 469 469 469>
VStem: 129 65<365.5 387> 405 64<-40 -36 -36 42 42 42 278 472> 565 64<-9 -9>
LayerCount: 2
Fore
SplineSet
-17 315 m 1xb7
 -16 415 25 480 89 480 c 0
 141 480 194 436 194 369 c 0
 194 362 193 354 193 347 c 2
 193 202 l 2
 193 159 198 42 299 42 c 0xb7
 373 42 395 120 402 195 c 0
 405 225 405 255 405 278 c 2
 405 472 l 1
 469 472 l 1
 469 -36 l 2
 469 -108 500 -124 523 -124 c 0
 557 -124 562 -80 565 -9 c 1
 629 -9 l 1xcf
 625 -111 587 -175 523 -175 c 0
 514 -175 504 -173 493 -170 c 0
 451 -158 405 -119 405 -40 c 2
 405 42 l 1
 393 30 362 -8 297 -8 c 0
 236 -8 128 19 128 207 c 2
 128 309 l 2
 128 329 129 350 129 370 c 0
 129 404 111 430 89 430 c 0
 49 430 48 369 48 333 c 2
 48 315 l 1
 -17 315 l 1xb7
EndSplineSet
Validated: 1
EndChar

StartChar: uni02B0
Encoding: 712 688 554
GlifName: uni02B_0
Width: 258
GlyphClass: 2
Flags: MW
HStem: 394 21G<40 40 40 72 185 185 185 218> 608 26<124 153.5> 721 20G<40 72 72 72>
VStem: 40 32<394 524 582 741> 185 33<394 549 549 551 394 565.5>
LayerCount: 2
Fore
SplineSet
40 394 m 1
 40 741 l 1
 72 741 l 1
 72 582 l 1
 80 600 102 634 146 634 c 0
 216 634 218 580 218 551 c 2
 218 394 l 1
 185 394 l 1
 185 549 l 2
 185 582 177 608 130 608 c 0
 98 608 72 586 72 524 c 2
 72 394 l 1
 40 394 l 1
EndSplineSet
Validated: 1
EndChar

StartChar: uni02B1
Encoding: 713 689 555
GlifName: uni02B_1
Width: 258
GlyphClass: 2
Flags: MW
HStem: 394 21G<40 40 40 72 185 185 185 218> 608 26<124 153.5> 724 25<128 168 127.5 171>
VStem: 40 32<394 524 582 655 655 677 677 678> 185 33<394 549 549 551 394 565>
LayerCount: 2
Fore
SplineSet
40 394 m 1
 40 655 l 1
 40 677 l 2
 40 724 103 749 152 749 c 0
 184 749 204 742 231 724 c 1
 222 698 l 1
 204 711 190 724 152 724 c 0
 104 724 75 702 72 678 c 2
 72 582 l 1
 80 600 102 634 146 634 c 0
 216 634 218 580 218 551 c 2
 218 394 l 1
 185 394 l 1
 185 549 l 2
 185 581 177 608 130 608 c 0
 98 608 72 586 72 524 c 2
 72 394 l 1
 40 394 l 1
EndSplineSet
Validated: 1
EndChar

StartChar: uni02B2
Encoding: 714 690 556
GlifName: uni02B_2
Width: 165
GlyphClass: 2
Flags: MW
HStem: 306 27<11 21.5 3.5 40.5> 689 20G<55 55 55 87> 721 20G<55 87 87 87>
VStem: 55 32<371 630 371 630 371 630 709 741>
LayerCount: 2
Fore
SplineSet
-8 321 m 1
 -1 346 l 1
 14 337 25 333 42 333 c 0
 61 333 85 339 85 366 c 2
 85 630 l 1
 117 630 l 1
 117 371 l 1
 117 330 87.9434227129 306 53 306 c 0
 29 306 9 312 -8 321 c 1
85 709 m 1
 85 741 l 1
 117 741 l 1
 117 709 l 1
 85 709 l 1
EndSplineSet
Validated: 1
EndChar

StartChar: uni02B3
Encoding: 715 691 557
GlifName: uni02B_3
Width: 173
GlyphClass: 2
Flags: MW
HStem: 394 21G<40 40 40 72> 614 20G<165 165>
VStem: 40 30<568 630 568 630 568 630>
LayerCount: 2
Fore
SplineSet
40 394 m 1
 40 630 l 1
 70 630 l 1
 70 568 l 1
 80 590 107 633 165 634 c 1
 165 605 l 1
 130 605 72 587 72 508 c 2
 72 394 l 1
 40 394 l 1
EndSplineSet
Validated: 1
EndChar

StartChar: uni02B4
Encoding: 716 692 558
GlifName: uni02B_4
Width: 173
GlyphClass: 2
Flags: MW
HStem: 389 21G<7 7> 610 20G<100 132 132 132>
VStem: 100 32<515 630 394 630>
LayerCount: 2
Fore
SplineSet
7 389 m 1
 7 418 l 1
 42 419 100 437 100 515 c 2
 100 630 l 1
 132 630 l 1
 132 394 l 1
 102 394 l 1
 102 455 l 1
 92 433 64 391 7 389 c 1
EndSplineSet
Validated: 1
EndChar

StartChar: uni02B5
Encoding: 717 693 559
GlifName: uni02B_5
Width: 223
GlyphClass: 2
Flags: MW
HStem: 302 21G<152 173> 610 20G<100 132 132 132>
VStem: 100 32<374 452 452 452 515 630 374 630>
LayerCount: 2
Fore
SplineSet
7 389 m 1
 7 418 l 1
 42 419 100 437 100 515 c 2
 100 630 l 1
 132 630 l 1
 132 374 l 2
 132 336 153.571563788 327 169 327 c 0
 193 327 204 342 209 350 c 1
 218 324 l 1
 197 302 178 302 168 302 c 0
 136.424234758 302 100 323.420543861 100 370.104643313 c 0
 100 452 l 1
 90 430 64 391 7 389 c 1
EndSplineSet
Validated: 1
EndChar

StartChar: uni02B6
Encoding: 718 694 560
GlifName: uni02B_6
Width: 220
GlyphClass: 2
Flags: MW
HStem: 393 27<101 103 103 120.5 57 139> 394 21G<25 25 25 90> 420 79<57 103 103 106 57 120.5> 610 20G<25 57 57 57 175 207 207 207>
VStem: 25 32<420 420 420 499 524 630> 167 30<446.5 472.5 446.5 478.5>
LayerCount: 2
Fore
SplineSet
25 394 m 1x7c
 25 630 l 1
 57 630 l 1
 57 524 l 1
 111 524 l 1
 175 630 l 1
 207 630 l 1
 140 520 l 1
 180 509 197 485 197 460 c 0
 197 433 174 393 104 393 c 0x9c
 98 393 95 394 90 394 c 2
 25 394 l 1x7c
57 420 m 1x7c
 103 420 l 2
 138 420 167 428 167 460 c 0
 167 497 123 499 106 499 c 2
 57 499 l 1
 57 420 l 1x7c
EndSplineSet
Validated: 1
EndChar

StartChar: uni02B7
Encoding: 719 695 561
GlifName: uni02B_7
Width: 346
GlyphClass: 2
Flags: MW
HStem: 392 21G<80 112 80 80 230 266 230 230> 609 20G<7 38 38 38 157 186 186 186 307 338 338 338>
LayerCount: 2
Fore
SplineSet
7 629 m 1
 38 629 l 1
 88 467 82 487 98 425 c 1
 101 446 152 608 157 629 c 1
 186 629 l 1
 230 487 236 466 247 425 c 1
 307 629 l 1
 338 629 l 1
 266 392 l 1
 230 392 l 1
 218 432 l 1
 218 432 l 1
 199 493 174 576 171 597 c 1
 167 568 135 471 120 420 c 2
 112 392 l 1
 80 392 l 1
 7 629 l 1
EndSplineSet
Validated: 5
EndChar

StartChar: uni02B8
Encoding: 720 696 562
GlifName: uni02B_8
Width: 229
GlyphClass: 2
Flags: MW
HStem: 306 25<46.5 65.5 45 67> 610 20G<7 40 40 40 190 221 221 221>
LayerCount: 2
Fore
SplineSet
7 630 m 1
 40 630 l 1
 56 589 110 457 117 426 c 1
 121 457 183 607 190 630 c 1
 221 630 l 1
 123 374 l 1
 123 374 l 1
 104 321 81 306 53 306 c 0
 40 306 24 308 15 309 c 1
 12 337 l 1
 28 333 40 331 50 331 c 0
 81 331 87 351 100 385 c 0
 101 388 102 389 102 391 c 0
 102 402 88 432 7 630 c 1
EndSplineSet
Validated: 5
EndChar

StartChar: uni02B9
Encoding: 721 697 563
GlifName: uni02B_9
Width: 175
GlyphClass: 2
Flags: MW
HStem: 517 21G<3 3 3 53> 675 20G<85 149 149 149>
LayerCount: 2
Fore
SplineSet
3 517 m 1
 85 695 l 1
 149 695 l 1
 53 517 l 1
 3 517 l 1
EndSplineSet
Validated: 1
EndChar

StartChar: uni02BA
Encoding: 722 698 564
GlifName: uni02B_A_
Width: 497
GlyphClass: 2
Flags: HMW
HStem: 546 21G<222 222 222 272> 675 20G<372 437 437 437>
LayerCount: 2
Fore
SplineSet
120 546 m 1
 197 695 l 1
 262 695 l 1
 170 546 l 1
 120 546 l 1
235 546 m 1
 312 695 l 1
 377 695 l 1
 285 546 l 1
 235 546 l 1
EndSplineSet
Validated: 1
EndChar

StartChar: uni02BB
Encoding: 723 699 565
GlifName: uni02B_B_
Width: 292
GlyphClass: 2
Flags: MW
HStem: 505 21G<106 106 106 184> 675 20G<145 185 185 185>
VStem: 106 78<505 555 555 577.5>
LayerCount: 2
Fore
SplineSet
106 505 m 1
 106 555 l 2
 106 600 129 650 145 695 c 1
 185 695 l 1
 161 584 l 1
 184 584 l 1
 184 505 l 1
 106 505 l 1
EndSplineSet
Validated: 1
EndChar

StartChar: uni02BC
Encoding: 724 700 566
GlifName: uni02B_C_
Width: 292
GlyphClass: 2
Flags: MW
HStem: 505 21G<106 146 106 106> 674 20G<106 185 185 185>
VStem: 106 79<640 645 645 694 640 694>
LayerCount: 2
Fore
SplineSet
106 616 m 1
 106 694 l 1
 185 694 l 1
 185 645 l 2
 185 635 184 626 184 616 c 0
 171 579 159 542 146 505 c 1
 106 505 l 1
 130 616 l 1
 106 616 l 1
EndSplineSet
Validated: 1
EndChar

StartChar: uni02BD
Encoding: 725 701 567
GlifName: uni02B_D_
Width: 292
GlyphClass: 2
Flags: MW
HStem: 505 21G<145 185 145 145> 675 20G<106 184 184 184>
VStem: 106 78<645 695 616 695>
LayerCount: 2
Fore
SplineSet
106 645 m 1
 106 695 l 1
 184 695 l 1
 184 616 l 1
 161 616 l 1
 185 505 l 1
 145 505 l 1
 112 600 l 1
 107 616 l 1
 106 645 l 1
EndSplineSet
Validated: 1
EndChar

StartChar: uni02BE
Encoding: 726 702 568
GlifName: uni02B_E_
Width: 350
GlyphClass: 2
Flags: MW
HStem: 0 50<106 106> 266 20G<106 106>
VStem: 106 152<0 181.5 50 181.5 109.5 286 109.5 286> 207 51<127.5 172.5>
LayerCount: 2
Fore
SplineSet
106 0 m 1xe0
 106 50 l 1xe0
 184 54 207 112 207 143 c 0xd0
 207 202 151 235 106 235 c 1
 106 286 l 1
 195 284 258 220 258 143 c 0
 258 76 206 3 106 0 c 1xe0
EndSplineSet
Validated: 1
EndChar

StartChar: uni02BF
Encoding: 727 703 569
GlifName: uni02B_F_
Width: 350
GlyphClass: 2
Flags: MW
HStem: 0 21G<243 243> 235 51<243 243>
VStem: 91 51<111 158 111 176.5> 91 152<0 176.5>
LayerCount: 2
Fore
SplineSet
91 143 m 0xd0
 91 210 143 283 243 286 c 1
 243 235 l 1xd0
 164 232 142 173 142 143 c 0xe0
 142 79 198 57 243 50 c 1
 243 0 l 1
 155 2 91 65 91 143 c 0xd0
EndSplineSet
Validated: 1
EndChar

StartChar: uni02C0
Encoding: 728 704 570
GlifName: uni02C_0
Width: 467
GlyphClass: 2
Flags: MW
HStem: 378 21G<187 251 187 187> 708 50<194 255>
VStem: 187 64<378 477 378 517 378 517> 343 65<585.5 642 567.5 655.5>
LayerCount: 2
Fore
SplineSet
58 720 m 1
 109 745 160 758 220 758 c 0
 375 758 408 671 408 613 c 0
 408 522 309 488 251 477 c 1
 251 378 l 1
 187 378 l 1
 187 517 l 1
 285 525 343 556 343 615 c 0
 343 696 286 708 224 708 c 0
 164 708 123 694 77 667 c 1
 67 693 l 1
 58 720 l 1
EndSplineSet
Validated: 1
EndChar

StartChar: uni02C1
Encoding: 729 705 571
GlifName: uni02C_1
Width: 467
GlyphClass: 2
Flags: MW
HStem: 378 21G<215 279 215 215> 708 50<209.5 272>
VStem: 58 65<585.5 642> 215 64<378 477 477 477>
LayerCount: 2
Fore
SplineSet
58 613 m 0
 58 671 91 758 246 758 c 0
 306 758 357 745 408 720 c 1
 389 667 l 1
 343 694 302 708 242 708 c 0
 177 708 123 694 123 615 c 0
 123 556 181 525 279 517 c 1
 279 378 l 1
 215 378 l 1
 215 477 l 1
 157 488 58 522 58 613 c 0
EndSplineSet
Validated: 1
EndChar

StartChar: uni02C2
Encoding: 730 706 572
GlifName: uni02C_2
Width: 350
GlyphClass: 2
Flags: MW
HStem: 513 21G<288.5 301> 701 20G<288.5 301>
LayerCount: 2
Fore
SplineSet
30 617 m 0
 30 638 51 643 67 648 c 1
 67 648 l 1
 269 715 284 721 293 721 c 0
 309 721 320 708 320 695 c 0
 320 690 318 686 316 682 c 0
 306 666 273 662 203 638 c 2
 142 617 l 1
 223 590 l 2
 307 562 305 564 311 558 c 0
 316 553 320 547 320 539 c 0
 320 525 309 513 293 513 c 0
 284 513 183 547 68 585 c 0
 62 586 30 592 30 617 c 0
EndSplineSet
Validated: 1
EndChar

StartChar: uni02C3
Encoding: 731 707 573
GlifName: uni02C_3
Width: 350
GlyphClass: 2
Flags: MW
HStem: 513 21G<51.5 60> 701 20G<48 56>
LayerCount: 2
Fore
SplineSet
30 539 m 0
 30 571 96 579 125 589 c 2
 208 617 l 1
 44 670 45 670 39 675 c 0
 32 680 30 687 30 695 c 0
 30 708 40 721 56 721 c 0
 59 720 87 713 129 699 c 2
 283 648 l 2
 286 647 320 641 320 617 c 0
 320 595 298 590 282 585 c 1
 282 585 l 1
 282 585 l 1
 97 524 l 2
 74 516 65 514 60 513 c 0
 43 513 30 522 30 539 c 0
EndSplineSet
Validated: 5
EndChar

StartChar: circumflex
Encoding: 732 710 574
GlifName: circumflex
Width: 525
GlyphClass: 2
Flags: W
HStem: 550 158
VStem: 116 292
LayerCount: 2
Fore
SplineSet
116 550 m 5
 236 708 l 5
 288 708 l 5
 408 550 l 5
 358 550 l 5
 262 656 l 5
 166 550 l 5
 116 550 l 5
EndSplineSet
Validated: 1
EndChar

StartChar: caron
Encoding: 733 711 575
GlifName: caron
Width: 525
GlyphClass: 2
Flags: MW
HStem: 536 21G<237 288 237 237> 647 20G<114 165 165 165 360 411 411 411>
LayerCount: 2
Back
SplineSet
116 708 m 5
 236 550 l 5
 288 550 l 5
 408 708 l 5
 358 708 l 5
 262 607 l 5
 166 708 l 5
 116 708 l 5
EndSplineSet
Fore
SplineSet
116 708 m 1
 166 708 l 1
 262 602 l 5
 358 708 l 1
 408 708 l 1
 288 550 l 1
 236 550 l 1
 116 708 l 1
EndSplineSet
Validated: 1
EndChar

StartChar: uni02C8
Encoding: 734 712 576
GlifName: uni02C_8
Width: 233
GlyphClass: 2
Flags: MW
HStem: 462 21G<91 91 91 141> 675 20G<91 141 141 141>
VStem: 91 50<462 695 462 695>
LayerCount: 2
Fore
SplineSet
91 462 m 1
 91 695 l 1
 141 695 l 1
 141 462 l 1
 91 462 l 1
EndSplineSet
Validated: 1
EndChar

StartChar: uni02CC
Encoding: 738 716 580
GlifName: uni02C_C_
Width: 233
GlyphClass: 2
Flags: MW
HStem: -167 21G<91 91 91 141> 46 20G<91 141 141 141>
VStem: 91 50<-167 66 -167 66>
LayerCount: 2
Fore
SplineSet
91 -167 m 1
 91 66 l 1
 141 66 l 1
 141 -167 l 1
 91 -167 l 1
EndSplineSet
Validated: 1
EndChar

StartChar: uni02CD
Encoding: 739 717 581
GlifName: uni02C_D_
Width: 350
GlyphClass: 2
Flags: W
HStem: -114 64<10 340>
VStem: 10 330<-114 -50>
LayerCount: 2
Fore
SplineSet
10 -50 m 1
 340 -50 l 1
 340 -114 l 1
 10 -114 l 1
 10 -50 l 1
EndSplineSet
Validated: 1
EndChar

StartChar: uni02CE
Encoding: 740 718 582
GlifName: uni02C_E_
Width: 525
GlyphClass: 2
Flags: MW
HStem: -196 21G<269 278 278 316> -87 20G<101 166 166 166>
LayerCount: 2
Fore
SplineSet
101 -67 m 1
 166 -67 l 1
 316 -196 l 1
 278 -196 l 2
 260 -196 263 -195 144 -101 c 2
 101 -67 l 1
EndSplineSet
Validated: 1
EndChar

StartChar: uni02CF
Encoding: 741 719 583
GlifName: uni02C_F_
Width: 525
GlyphClass: 2
Flags: MW
HStem: -196 21G<207 207 207 245> -87 20G<357 422 422 422>
LayerCount: 2
Fore
SplineSet
207 -196 m 1
 357 -67 l 1
 422 -67 l 1
 258 -196 264 -196 245 -196 c 2
 207 -196 l 1
EndSplineSet
Validated: 1
EndChar

StartChar: uni02D0
Encoding: 742 720 584
GlifName: uni02D_0
Width: 292
GlyphClass: 2
Flags: MW
HStem: 0 21G<58 58 58 233> 452 20G<58 233 233 233>
LayerCount: 2
Fore
SplineSet
58 0 m 1
 145 183 l 1
 233 0 l 1
 58 0 l 1
58 472 m 1
 233 472 l 1
 145 290 l 1
 58 472 l 1
EndSplineSet
Validated: 1
EndChar

StartChar: uni02D1
Encoding: 743 721 585
GlifName: uni02D_1
Width: 292
GlyphClass: 2
Flags: MW
HStem: 290 21G<145 145> 452 20G<58 233 233 233>
LayerCount: 2
Fore
SplineSet
58 472 m 1
 233 472 l 1
 145 290 l 1
 58 472 l 1
EndSplineSet
Validated: 1
EndChar

StartChar: uni02D2
Encoding: 744 722 586
GlifName: uni02D_2
Width: 350
GlyphClass: 2
Flags: MW
HStem: 143 50<106 106> 409 20G<106 106>
VStem: 106 152<143 324.5 193 324.5 252.5 429 252.5 429> 207 51<270.5 315.5>
LayerCount: 2
Fore
SplineSet
106 143 m 1xe0
 106 193 l 1xe0
 184 197 207 255 207 286 c 0xd0
 207 345 151 378 106 378 c 1
 106 429 l 1
 195 427 258 363 258 286 c 0
 258 219 206 146 106 143 c 1xe0
EndSplineSet
Validated: 1
EndChar

